#N canvas 558 302 715 458 12;
#X obj 92 132 adc~;
#X obj 92 177 lop~;
#X obj 132 177 lop~;
#X obj 92 221 *~ 1;
#X obj 132 221 *~ 1;
#X obj 207 184 r volume;
#X obj 221 47 r freq;
#X obj 221 71 * 2000;
#X obj 221 95 pack f 200;
#X obj 221 119 line 0 5;
#X obj 91 298 dac~;
#X obj 387 167 loadbang;
#X msg 386 200 freq 1;
#X obj 386 224 s pdpulp_p1;
#X msg 491 203 volume 0;
#X obj 491 227 s pdpulp_p2;
#X connect 0 0 1 0;
#X connect 0 1 2 0;
#X connect 1 0 3 0;
#X connect 2 0 4 0;
#X connect 3 0 10 0;
#X connect 4 0 10 1;
#X connect 5 0 4 1;
#X connect 5 0 3 1;
#X connect 6 0 7 0;
#X connect 7 0 8 0;
#X connect 8 0 9 0;
#X connect 9 0 2 1;
#X connect 9 0 1 1;
#X connect 11 0 12 0;
#X connect 11 0 14 0;
#X connect 12 0 13 0;
#X connect 14 0 15 0;
