#N canvas 531 69 718 740 10;
#X obj 9 7 tgl 15 0 empty empty empty 17 7 0 10 -262144 -1 -1 1 1;
#X msg 9 27 \; pd dsp \$1;
#X obj 9 196 tabosc4~;
#X floatatom 9 84 5 0 0 0 - - -, f 5;
#X obj 9 104 sig~ 220;
#X obj 253 34 table waveform1;
#X obj 254 267 table waveform2;
#X obj 254 397 table waveform3;
#X msg 376 168 \; waveform1 sinesum 1024 1 0.5 0-3;
#X text 218 15 Create a blank table;
#X msg 378 300 \; waveform2 sinesum 1024 1 1 0.4 2.345 \; waveform2
normalize 1;
#X msg 378 264 \; waveform2 sinesum 1024 1 1 0.4 2.345;
#X text 375 245 Normalizing wavetables;
#X msg 376 33 \; waveform1 sinesum 1024 1;
#X msg 376 66 \; waveform1 sinesum 1024 1 1;
#X msg 376 100 \; waveform1 sinesum 1024 0 1;
#X msg 376 133 \; waveform1 sinesum 1024 0 0 0 1;
#X msg 376 201 \; waveform1 sinesum 1024 0.5 1 0.8 1.2234 1.3;
#X text 379 370 Cosine-wavetable;
#X text 374 14 Calculate a sine-wavetable with harmonics;
#X msg 379 396 \; waveform3 cosinesum 1024 0 1;
#X msg 379 429 \; waveform3 cosinesum 1024 0 1 0.3 1.234 1.4;
#X msg 380 461 \; waveform3 cosinesum 1024 1 0.2 0.754 1.1 \; waveform3
normalize 0.8;
#X obj 260 544 table waveform4;
#X obj 9 286 dac~;
#X obj 9 254 *~ 0.3;
#X floatatom 67 234 5 0 0 0 - - -, f 5;
#X msg 93 112 set waveform1;
#X msg 101 133 set waveform2;
#X msg 110 152 set waveform3;
#X msg 120 173 set waveform4;
#X msg 384 543 \; waveform4 sinesum 4 1;
#X msg 384 576 \; waveform4 cosinesum 8 0 1 0.3 0.28543 \; waveform4
normalize 0.9;
#X floatatom 329 597 5 0 0 0 - - -, f 5;
#X obj 329 616 / 10;
#X msg 384 671 \; waveform4 sinesum 16 \$1 0.3 0.3 0.28543 \; waveform4
normalize 0.9;
#X msg 245 594 0 1000;
#X msg 233 573 20 2000;
#X obj 244 621 line;
#X text 382 521 Interacting with very short wavetables;
#X obj 244 643 / 10;
#X connect 0 0 1 0;
#X connect 2 0 25 0;
#X connect 3 0 4 0;
#X connect 4 0 2 0;
#X connect 25 0 24 0;
#X connect 25 0 24 1;
#X connect 26 0 25 1;
#X connect 27 0 2 0;
#X connect 28 0 2 0;
#X connect 29 0 2 0;
#X connect 30 0 2 0;
#X connect 33 0 34 0;
#X connect 34 0 35 0;
#X connect 36 0 38 0;
#X connect 37 0 38 0;
#X connect 38 0 40 0;
#X connect 40 0 35 0;
