#N canvas 200 173 974 450 10;
#X obj 9 7 tgl 15 0 empty empty empty 17 7 0 10 -262144 -1 -1 0 1;
#X obj 9 196 tabosc4~;
#X floatatom 9 84 5 0 0 0 - r_freq -, f 5;
#X obj 9 104 sig~ 220;
#X obj 9 343 dac~;
#X msg 90 121 set wavetable1;
#X text 232 30 Write a wavetable to a .txt-File:;
#X obj 545 73 table wavetable2;
#X msg 235 56 \; wavetable1 sinesum 1024 1 1 0.4 0.345 \; wavetable1
normalize 1 \; wavetable1 write wavetable1.txt;
#X obj 545 53 table wavetable1;
#X obj 183 8 loadbang;
#X msg 241 186 \; wavetable2 read wavetable2.txt;
#X text 241 164 Read an existing .txt-File:;
#X text 240 221 The .txt File must be in the same folder then the main
patch!;
#X msg 545 97 \; wavetable2 sinesum 1024 0.2 0.3 0.4 0.345 1 0.3 \;
wavetable2 normalize 1 \; wavetable2 write wavetable1.txt;
#X msg 100 151 set wavetable2;
#X obj 81 267 line;
#X obj 9 311 *~ 0;
#X obj 81 223 b;
#X msg 81 244 0.2 200;
#X msg 9 27 \; pd dsp \$1 \; r_freq 333;
#X connect 0 0 20 0;
#X connect 1 0 17 0;
#X connect 2 0 3 0;
#X connect 3 0 1 0;
#X connect 5 0 1 0;
#X connect 5 0 18 0;
#X connect 10 0 8 0;
#X connect 10 0 11 0;
#X connect 15 0 1 0;
#X connect 15 0 18 0;
#X connect 16 0 17 1;
#X connect 17 0 4 0;
#X connect 17 0 4 1;
#X connect 18 0 19 0;
#X connect 19 0 16 0;
