#N canvas 583 165 740 531 10;
#X obj 9 7 tgl 15 0 empty empty empty 17 7 0 10 -262144 -1 -1 0 1;
#X msg 9 27 \; pd dsp \$1;
#X obj 9 186 tabosc4~;
#X floatatom 9 72 5 0 0 0 - - -, f 5;
#X obj 9 92 sig~ 220;
#X obj 9 276 dac~;
#X obj 9 244 *~ 0.3;
#X floatatom 67 224 5 0 0 0 - - -, f 5;
#N canvas 0 22 450 278 (subpatch) 0;
#X array wavetableABC 515 float 0;
#X coords 0 1 514 -1 200 140 1 0 0;
#X restore 189 221 graph;
#X obj 113 62 vradio 15 1 0 3 empty empty empty 0 -8 0 10 -262144 -1
-1 2;
#N canvas 617 120 481 460 tableselect 0;
#X obj 150 44 sel 0 1 2;
#X obj 150 19 inlet;
#X obj 156 387 outlet;
#X msg 182 91 \; wavetableABC read drawntable1.txt;
#X msg 202 157 \; wavetableABC read drawntable2.txt;
#X msg 222 223 \; wavetableABC read drawntable3.txt;
#X msg 32 322 set wavetableABC;
#X obj 150 67 t b b;
#X obj 170 134 t b b;
#X obj 190 200 t b b;
#X connect 0 0 7 0;
#X connect 0 1 8 0;
#X connect 0 2 9 0;
#X connect 1 0 0 0;
#X connect 3 0 2 0;
#X connect 4 0 2 0;
#X connect 5 0 2 0;
#X connect 6 0 2 0;
#X connect 7 0 6 0;
#X connect 7 1 3 0;
#X connect 8 0 6 0;
#X connect 8 1 4 0;
#X connect 9 0 6 0;
#X connect 9 1 5 0;
#X restore 113 122 pd tableselect;
#N canvas 704 239 450 300 tablesafe 0;
#X obj 52 43 inlet;
#X obj 52 67 sel 0 1 2;
#X msg 52 95 \; wavetableABC normalize 1 \; wavetableABC write drawntable1.txt
;
#X msg 72 149 \; wavetableABC normalize 1 \; wavetableABC write drawntable2.txt
;
#X msg 92 204 \; wavetableABC normalize 1 \; wavetableABC write drawntable3.txt
;
#X connect 0 0 1 0;
#X connect 1 0 2 0;
#X connect 1 1 3 0;
#X connect 1 2 4 0;
#X restore 221 122 pd tablesafe;
#X obj 221 62 vradio 15 1 0 3 empty empty empty 0 -8 0 10 -262144 -1
-1 0;
#X text 132 61 sel 1;
#X text 132 76 sel 2;
#X text 132 91 sel 3;
#X text 242 61 safe to 1;
#X text 242 76 safe to 2;
#X text 242 91 safe to 3;
#X text 187 190 Draw 512-Point Wavetable;
#X obj 20 450 soundfiler;
#X floatatom 20 475 5 0 0 0 - - -, f 5;
#X obj 87 475 print;
#X msg 20 426 write -wave -rate 44100 wt_512_01 wavetableABC;
#X text 20 401 Write Wavetabel as audio file to disc:;
#X connect 0 0 1 0;
#X connect 2 0 6 0;
#X connect 3 0 4 0;
#X connect 4 0 2 0;
#X connect 6 0 5 0;
#X connect 6 0 5 1;
#X connect 7 0 6 1;
#X connect 9 0 10 0;
#X connect 10 0 2 0;
#X connect 12 0 11 0;
#X connect 20 0 21 0;
#X connect 20 1 22 0;
#X connect 23 0 20 0;
