#N canvas 342 111 1515 699 10;
#X obj 251 256 - 1;
#X obj 251 72 until;
#X obj 283 96 + 1;
#X obj 251 97 f;
#X obj 251 282 tabwrite saw;
#X obj 251 204 t f f;
#X obj 251 15 bng 15 250 50 0 empty empty empty 17 7 0 10 -262144 -1
-1;
#X msg 313 62 0;
#X obj 577 224 t f f, f 6;
#X obj 577 273 * 3.14159;
#X obj 673 224 t f f, f 6;
#X obj 673 281 moses 1;
#X obj 673 436 tabwrite tri;
#X obj 719 337 t b f;
#X obj 719 394 -;
#X obj 719 362 f 2;
#X obj 765 403 - 4;
#X obj 801 273 * 0.1;
#X obj 801 294 - 1;
#X obj 801 224 t b f;
#X obj 801 251 random 20;
#X obj 801 326 tabwrite rnd;
#X obj 12 14 tgl 15 0 empty empty empty 17 7 0 10 -262144 -1 -1 0 1
;
#X msg 12 33 \; pd dsp \$1;
#X obj 13 368 dac~;
#X obj 13 336 *~ 0.3;
#X floatatom 71 316 5 0 0 0 - - -;
#X msg 94 90 set saw;
#X msg 114 132 set sin;
#X msg 143 174 set tri;
#X msg 152 194 set rnd;
#X obj 13 273 tabosc4~;
#X floatatom 13 75 5 0 0 0 - - -;
#X obj 13 92 sig~ 220;
#X obj 568 14 table saw 515;
#X obj 568 34 table sin 515;
#X obj 568 74 table tri 515;
#X obj 568 94 table rnd 515;
#X msg 251 38 515;
#X obj 251 231 / 257.5;
#X obj 577 248 / 257.5;
#X obj 673 257 / 128.75;
#X text 693 13 Tabosc4~ needs table-length x^2+3;
#X obj 719 310 moses 3;
#X obj 577 297 cos;
#X obj 568 54 table cos 515;
#X obj 477 224 t f f, f 6;
#X obj 477 322 tabwrite sin;
#X obj 477 296 sin;
#X obj 477 273 * 3.14159;
#X obj 477 248 / 257.5;
#X msg 124 152 set cos;
#X obj 577 322 tabwrite cos;
#X obj 360 220 t f f;
#X obj 360 252 moses 255;
#X obj 360 295 / 255;
#X obj 411 294 / 255;
#X obj 410 326 - 2;
#X obj 360 359 tabwrite saw2;
#X obj 698 34 table saw2 515;
#X msg 104 110 set saw2;
#X obj 924 224 t f f;
#X obj 925 333 tabwrite exp;
#X obj 568 114 table exp 515;
#X obj 925 255 expr exp(-($f1-1)/100);
#X obj 925 277 * 2;
#X obj 925 299 - 1;
#X text 286 40 Tabe-Size;
#X msg 162 214 set exp;
#X obj 1347 394 tabwrite;
#X msg 1268 183 set saw;
#X msg 1278 203 set sin;
#X msg 1288 223 set cos;
#X msg 1298 243 set tri;
#X msg 1308 263 set rnd;
#X msg 1318 283 set exp;
#X obj 1397 299 t f f;
#X msg 1397 323 0;
#X obj 1397 242 until;
#X obj 1429 266 + 1;
#X obj 1397 267 f;
#X obj 1397 185 bng 15 250 50 0 empty empty empty 17 7 0 10 -262144
-1 -1;
#X msg 1459 232 0;
#X msg 1397 208 515;
#X text 1262 149 Erase Table:;
#X obj 1087 343 pack 0 0;
#X obj 1087 254 / 514;
#X obj 1087 220 t f f;
#X obj 1087 373 tabwrite srt;
#X obj 568 134 table srt 515;
#X msg 172 234 set srt;
#X msg 1328 303 set srt;
#X obj 1087 276 sqrt;
#X obj 1087 297 * 2;
#X obj 1087 318 - 1;
#X connect 0 0 4 0;
#X connect 1 0 3 0;
#X connect 2 0 3 1;
#X connect 3 0 2 0;
#X connect 3 0 5 0;
#X connect 3 0 8 0;
#X connect 3 0 10 0;
#X connect 3 0 19 0;
#X connect 3 0 46 0;
#X connect 3 0 53 0;
#X connect 3 0 61 0;
#X connect 3 0 87 0;
#X connect 5 0 39 0;
#X connect 5 1 4 1;
#X connect 6 0 7 0;
#X connect 6 0 38 0;
#X connect 7 0 3 1;
#X connect 8 0 40 0;
#X connect 8 1 52 1;
#X connect 9 0 44 0;
#X connect 10 0 41 0;
#X connect 10 1 12 1;
#X connect 11 0 12 0;
#X connect 11 1 43 0;
#X connect 13 0 15 0;
#X connect 13 1 14 1;
#X connect 14 0 12 0;
#X connect 15 0 14 0;
#X connect 16 0 12 0;
#X connect 17 0 18 0;
#X connect 18 0 21 0;
#X connect 19 0 20 0;
#X connect 19 1 21 1;
#X connect 20 0 17 0;
#X connect 22 0 23 0;
#X connect 25 0 24 0;
#X connect 25 0 24 1;
#X connect 26 0 25 1;
#X connect 27 0 31 0;
#X connect 28 0 31 0;
#X connect 29 0 31 0;
#X connect 30 0 31 0;
#X connect 31 0 25 0;
#X connect 32 0 33 0;
#X connect 33 0 31 0;
#X connect 38 0 1 0;
#X connect 39 0 0 0;
#X connect 40 0 9 0;
#X connect 41 0 11 0;
#X connect 43 0 13 0;
#X connect 43 1 16 0;
#X connect 44 0 52 0;
#X connect 46 0 50 0;
#X connect 46 1 47 1;
#X connect 48 0 47 0;
#X connect 49 0 48 0;
#X connect 50 0 49 0;
#X connect 51 0 31 0;
#X connect 53 0 54 0;
#X connect 53 1 58 1;
#X connect 54 0 55 0;
#X connect 54 1 56 0;
#X connect 55 0 58 0;
#X connect 56 0 57 0;
#X connect 57 0 58 0;
#X connect 60 0 31 0;
#X connect 61 0 64 0;
#X connect 61 1 62 1;
#X connect 64 0 65 0;
#X connect 65 0 66 0;
#X connect 66 0 62 0;
#X connect 68 0 31 0;
#X connect 70 0 69 0;
#X connect 71 0 69 0;
#X connect 72 0 69 0;
#X connect 73 0 69 0;
#X connect 74 0 69 0;
#X connect 75 0 69 0;
#X connect 76 0 77 0;
#X connect 76 1 69 1;
#X connect 77 0 69 0;
#X connect 78 0 80 0;
#X connect 79 0 80 1;
#X connect 80 0 79 0;
#X connect 80 0 76 0;
#X connect 81 0 82 0;
#X connect 81 0 83 0;
#X connect 82 0 80 1;
#X connect 83 0 78 0;
#X connect 85 0 88 0;
#X connect 86 0 92 0;
#X connect 87 0 86 0;
#X connect 87 1 85 1;
#X connect 90 0 31 0;
#X connect 91 0 69 0;
#X connect 92 0 93 0;
#X connect 93 0 94 0;
#X connect 94 0 85 0;
