#N canvas 217 93 1083 699 10;
#X obj 12 14 tgl 15 0 empty empty empty 17 7 0 10 -262144 -1 -1 0 1
;
#X msg 12 33 \; pd dsp \$1;
#X obj 13 338 dac~;
#X obj 13 306 *~ 0.3;
#X floatatom 71 286 5 0 0 0 - - -, f 5;
#X obj 13 243 tabosc4~;
#X floatatom 13 75 5 0 0 0 - - -, f 5;
#X obj 13 92 sig~ 220;
#X text 713 13 Tabosc4~ needs table-length x^2+3;
#X obj 568 14 table sin 515;
#X msg 94 90 set sin;
#X obj 568 35 table saw4harm 515;
#X msg 104 110 set saw4harm;
#X msg 114 130 set saw12harm;
#X obj 568 55 table saw12harm 515;
#X obj 568 75 table tri4harm 515;
#X msg 124 150 set tri4harm;
#X msg 134 170 set tri12harm;
#X obj 568 95 table tri12harm 515;
#X msg 144 190 set saw4harm;
#X msg 154 210 set saw12harm;
#X text 567 414 Sinesum: every harmonic with its amplitude.;
#X text 567 434 Sawtooth: 1/h for every harmonic;
#X text 597 454 1/1 1/2 1/3 1/4 1/5 etc.;
#X text 597 494 1 0 1/3 0 1/5 0 1/7 0 etc.;
#X text 567 514 Triangle: 1/h^2 for odd harmonics. 0 for even harmonics.
;
#X text 567 474 Square: 1/h for every odd harmonic. 0 for even harmonics.
;
#X text 567 534 *(-1) for the harmonics 3 \, 7 \, 11 \, 15 \, etc.
;
#X text 597 554 1 0 -(1/(3^2)) 0 1/5 0 -(1/7^2)) 0 1/9 0 -(1/11^2))
etc.;
#X obj 568 115 table square4harm 515;
#X obj 568 135 table square12harm 515;
#X msg 568 163 \; sin sinesum 515 1 \; saw4harm sinesum 515 1 0.5 0.33
0.25 \; saw4harm normalize 1 \; saw12harm sinesum 515 1 0.5 0.33333
0.25 0.2 0.166667 0.142857 0.125 0.11111 0.1 0.090909 0.0833333 0.076923
\; saw12harm normalize 1 \; tri4harm sinesum 515 1 0 -0.1 0 \; tri4harm
normalize 1 \; tri12harm sinesum 515 1 0 -0.11111 0 0.04 0 -0.0204082
0 0.0123457 0 -0.00826446 0 \; tri12harm normalize 1 \; square4harm
sinesum 515 1 0 0.5 0 \; square4harm normalize 1 \; square12harm sinesum
515 1 0 0.33333 0 0.2 0 0.142857 0 0.11111 0 0.090909 0 0.076923 \;
square12harm normalize 1 \;;
#X obj 718 34 table saw2 515;
#X connect 0 0 1 0;
#X connect 3 0 2 0;
#X connect 3 0 2 1;
#X connect 4 0 3 1;
#X connect 5 0 3 0;
#X connect 6 0 7 0;
#X connect 7 0 5 0;
#X connect 10 0 5 0;
#X connect 12 0 5 0;
#X connect 13 0 5 0;
#X connect 16 0 5 0;
#X connect 17 0 5 0;
#X connect 19 0 5 0;
#X connect 20 0 5 0;
