#N canvas 518 31 720 904 10;
#X obj 48 59 adc~ 1;
#X text 99 58 input;
#X text 91 841 output;
#X msg 350 106 \; pd dsp \$1;
#X obj 350 33 tgl 15 0 empty empty empty 17 7 0 10 -262144 -1 -1 0
1;
#X obj 383 57 loadbang;
#X msg 383 79 1;
#X text 445 57 turn on audio on startup;
#X text 371 34 manual audio on/off;
#X obj 48 154 *~ 0;
#X obj 72 126 hsl 60 20 0 1 0 0 empty empty empty -2 -8 0 10 -262144
-1 -1 5900 1;
#X msg 69 104 0;
#X msg 103 104 1;
#X text 92 152 Input Volume;
#X obj 97 798 *~ 0;
#X obj 121 765 hsl 60 20 0 1 0 0 empty empty empty -2 -8 0 10 -262144
-1 -1 0 1;
#X text 141 790 Output Volume;
#X obj 52 798 *~ 0;
#X obj 52 837 dac~;
#X obj 118 743 line;
#X msg 118 721 0 10;
#X msg 162 721 1 10;
#X obj 48 289 *~ 0;
#X obj 72 262 hsl 60 20 0 1 0 0 empty empty empty -2 -8 0 10 -262144
-1 -1 5900 1;
#X msg 69 215 0;
#X msg 103 215 1;
#X text 84 290 Volume FX;
#X msg 139 215 0 10;
#X msg 183 215 1 10;
#X obj 139 238 line 1 2;
#X obj 522 297 env~;
#X obj 522 319 * 100;
#X floatatom 522 359 5 0 0 0 - - -, f 5;
#X obj 522 339 clip 0 1;
#X text 566 362 Volume meter;
#X text 158 744 Line to avoid clicks;
#X obj 49 528 *~ 1;
#X text 88 531 Tremolo Something;
#X msg 70 472 0;
#X obj 70 436 t b b;
#X obj 70 414 bng 15 250 50 0 empty empty empty 17 7 0 10 -262144 -1
-1;
#X obj 70 392 metro 500;
#X obj 70 346 tgl 15 0 empty empty empty 17 7 0 10 -262144 -1 -1 0
1;
#X obj 70 505 line;
#X floatatom 133 346 5 0 0 0 - - -, f 5;
#X msg 133 474 1 126;
#X msg 133 450 set 1 \$1;
#X obj 48 596 lop~ 15000;
#X obj 48 632 hip~ 5;
#X text 122 595 FILTERS;
#X obj 103 190 loadbang;
#X text 88 343 On/Off;
#X text 168 346 Speed;
#X floatatom 522 400 5 0 0 0 - - -, f 5;
#X obj 522 379 * 200;
#X connect 0 0 9 0;
#X connect 4 0 3 0;
#X connect 5 0 6 0;
#X connect 6 0 3 0;
#X connect 9 0 22 0;
#X connect 10 0 9 1;
#X connect 11 0 10 0;
#X connect 12 0 10 0;
#X connect 14 0 18 1;
#X connect 15 0 14 1;
#X connect 15 0 17 1;
#X connect 17 0 18 0;
#X connect 19 0 15 0;
#X connect 20 0 19 0;
#X connect 21 0 19 0;
#X connect 22 0 36 0;
#X connect 23 0 22 1;
#X connect 24 0 23 0;
#X connect 25 0 23 0;
#X connect 27 0 29 0;
#X connect 28 0 29 0;
#X connect 29 0 23 0;
#X connect 30 0 31 0;
#X connect 31 0 33 0;
#X connect 32 0 54 0;
#X connect 33 0 32 0;
#X connect 36 0 47 0;
#X connect 38 0 43 0;
#X connect 39 0 45 0;
#X connect 39 1 38 0;
#X connect 40 0 39 0;
#X connect 41 0 40 0;
#X connect 42 0 41 0;
#X connect 43 0 36 1;
#X connect 44 0 41 1;
#X connect 44 0 46 0;
#X connect 45 0 43 0;
#X connect 46 0 45 0;
#X connect 47 0 48 0;
#X connect 48 0 17 0;
#X connect 48 0 14 0;
#X connect 50 0 25 0;
#X connect 54 0 53 0;
