#N canvas 613 54 720 904 10;
#X obj 48 59 adc~ 1;
#X text 99 58 input;
#X text 91 841 output;
#X msg 200 95 \; pd dsp \$1;
#X obj 200 22 tgl 15 0 empty empty empty 17 7 0 10 -262144 -1 -1 0
1;
#X obj 233 46 loadbang;
#X msg 233 68 1;
#X text 295 46 turn on audio on startup;
#X text 221 23 manual audio on/off;
#X obj 48 154 *~ 0;
#X obj 72 128 hsl 60 20 0 1 0 0 empty empty empty -2 -8 0 10 -262144
-1 -1 4300 1;
#X msg 69 104 0;
#X msg 103 104 1;
#X text 92 152 Input Volume;
#X obj 97 798 *~ 0;
#X obj 121 765 hsl 60 20 0 1 0 0 empty empty empty -2 -8 0 10 -262144
-1 -1 5300 1;
#X text 141 790 Output Volume;
#X obj 52 798 *~ 0;
#X obj 52 837 dac~;
#X obj 118 743 line;
#X msg 118 721 0 10;
#X msg 162 721 1 10;
#X obj 48 289 *~ 0;
#X obj 72 262 hsl 60 20 0 1 0 0 empty empty empty -2 -8 0 10 -262144
-1 -1 5900 1;
#X msg 69 215 0;
#X msg 103 215 1;
#X text 84 290 Volume FX;
#X msg 139 215 0 10;
#X obj 139 238 line 1 2;
#X obj 587 461 env~;
#X obj 587 483 * 100;
#X floatatom 587 523 5 0 0 0 - - -, f 5;
#X obj 587 503 clip 0 1;
#X text 631 526 Volume meter;
#X text 158 744 Line to avoid clicks;
#X obj 49 615 *~ 1;
#X text 85 615 Tremolo Something;
#X obj 48 676 lop~ 15000;
#X obj 48 712 hip~ 5;
#X text 122 675 FILTERS;
#X obj 103 190 loadbang;
#X floatatom 587 564 5 0 0 0 - - -, f 5;
#X obj 587 543 * 200;
#X msg 183 215 1 10;
#N canvas 484 385 496 372 attack_release 0;
#X floatatom 30 152 5 0 0 0 - - -, f 5;
#X obj 30 67 metro 500;
#X obj 30 44 tgl 15 0 empty empty empty 17 7 0 10 -262144 -1 -1 0 1
;
#X text 48 40 On/Off;
#X msg 57 222 set 1 \$1;
#X obj 30 200 t b f;
#X msg 30 245 1 49;
#X floatatom 240 152 5 0 0 0 - - -, f 5;
#X obj 240 200 t b f;
#X msg 240 245 0 58;
#X msg 267 222 set 0 \$1;
#X obj 30 90 t b b;
#X obj 139 201 +;
#X obj 139 175 t b f;
#X floatatom 139 222 5 0 0 0 - - -, f 5;
#X obj 112 83 bng 15 250 50 0 empty empty empty 17 7 0 10 -262144 -1
-1;
#X obj 240 117 delay;
#X text 49 137 Attack TIME;
#X text 275 151 Release TIME;
#X obj 30 14 inlet;
#X obj 166 14 inlet;
#X obj 336 15 inlet;
#X obj 30 338 outlet;
#X obj 30 275 line 1 2;
#X connect 0 0 5 0;
#X connect 0 0 12 0;
#X connect 0 0 16 1;
#X connect 1 0 11 0;
#X connect 1 0 15 0;
#X connect 2 0 1 0;
#X connect 4 0 6 0;
#X connect 5 0 6 0;
#X connect 5 1 4 0;
#X connect 6 0 23 0;
#X connect 7 0 8 0;
#X connect 7 0 13 0;
#X connect 8 0 9 0;
#X connect 8 1 10 0;
#X connect 9 0 23 0;
#X connect 10 0 9 0;
#X connect 11 0 16 0;
#X connect 11 1 0 0;
#X connect 12 0 14 0;
#X connect 13 0 12 0;
#X connect 13 1 12 1;
#X connect 14 0 1 1;
#X connect 16 0 7 0;
#X connect 19 0 2 0;
#X connect 20 0 0 0;
#X connect 21 0 7 0;
#X connect 23 0 22 0;
#X restore 160 559 pd attack_release;
#X obj 204 579 hsl 60 15 0 1 0 0 empty empty empty -2 -8 0 10 -262144
-1 -1 0 1;
#X obj 160 534 tgl 15 0 empty empty empty 17 7 0 10 -262144 -1 -1 0
1;
#X text 157 515 On/Off;
#X floatatom 209 536 5 1 2000 0 - - -, f 5;
#X floatatom 259 536 5 1 2000 0 - - -, f 5;
#X text 211 513 Attack;
#X text 270 514 Realease;
#X text 157 496 Automated Volume Envelope;
#X obj 70 540 tgl 15 0 empty empty empty 17 7 0 10 -262144 -1 -1 0
1;
#X text 68 518 ByPass;
#N canvas 4 23 792 838 synth 0;
#X obj 90 311 osc~;
#X obj 209 677 *~;
#X obj 297 652 line~;
#X floatatom 482 612 5 0 1 0 - - -, f 5;
#X text 330 520 On;
#X text 418 599 Off;
#X text 524 613 VolumeFader;
#X msg 89 163 100;
#X floatatom 161 266 5 20 15000 0 - - -, f 5;
#X msg 296 519 1 \$1;
#X msg 381 597 0 \$1;
#X floatatom 314 473 5 0 0 0 - - -, f 5;
#X floatatom 399 551 5 0 0 0 - - -, f 5;
#X text 312 453 Attack;
#X text 401 529 Decay;
#X obj 252 310 phasor~;
#X obj 296 496 f;
#X obj 296 472 bng 15 250 50 0 empty empty empty 17 7 0 10 -262144
-1 -1;
#X obj 381 574 f;
#X obj 381 550 bng 15 250 50 0 empty empty empty 17 7 0 10 -262144
-1 -1;
#X obj 90 424 *~;
#X obj 252 423 *~;
#X obj 252 288 * 0.2;
#X msg 284 259 0.5;
#X text 313 259 1 Octave below;
#X obj 403 54 key;
#X text 116 164 Q;
#X msg 153 163 200;
#X text 180 164 A;
#X floatatom 326 69 5 0 0 0 - - -, f 5;
#X obj 89 127 sel 113 97;
#X msg 211 164 400;
#X text 241 164 every other key;
#X obj 381 510 delay 100;
#X obj 404 84 t b b f;
#X text 441 53 Key Input;
#X text 312 85 Key Number;
#X text 172 128 Key Selector by Key Number;
#X text 5 164 Frequencies;
#X obj 209 698 outlet~;
#X obj 40 18 inlet;
#X obj 90 18 inlet;
#X obj 539 28 inlet;
#X obj 589 28 inlet;
#X connect 0 0 20 0;
#X connect 1 0 39 0;
#X connect 2 0 1 1;
#X connect 3 0 2 0;
#X connect 7 0 0 0;
#X connect 7 0 22 0;
#X connect 8 0 0 0;
#X connect 8 0 22 0;
#X connect 9 0 2 0;
#X connect 10 0 2 0;
#X connect 11 0 16 1;
#X connect 11 0 33 1;
#X connect 12 0 18 1;
#X connect 15 0 21 0;
#X connect 16 0 9 0;
#X connect 17 0 16 0;
#X connect 18 0 10 0;
#X connect 19 0 18 0;
#X connect 20 0 1 0;
#X connect 21 0 1 0;
#X connect 22 0 15 0;
#X connect 23 0 22 1;
#X connect 25 0 29 0;
#X connect 25 0 34 0;
#X connect 27 0 0 0;
#X connect 27 0 22 0;
#X connect 30 0 7 0;
#X connect 30 1 27 0;
#X connect 30 2 31 0;
#X connect 31 0 0 0;
#X connect 31 0 22 0;
#X connect 33 0 19 0;
#X connect 34 0 33 0;
#X connect 34 1 17 0;
#X connect 34 2 30 0;
#X connect 40 0 20 1;
#X connect 41 0 21 1;
#X connect 42 0 11 0;
#X connect 43 0 12 0;
#X restore 372 289 pd synth;
#X obj 304 184 vsl 30 50 0 1 0 0 empty empty Volume_Sine 0 -9 0 10
-204786 -1 -1 2700 1;
#X obj 343 197 vsl 30 50 0 1 0 0 empty empty Volume_Phasor 0 -9 0 10
-262130 -1 -1 1800 1;
#X text 433 287 Q A;
#X floatatom 393 202 5 0 0 0 - - -, f 5;
#X text 430 202 Attack;
#X floatatom 413 223 5 0 0 0 - - -, f 5;
#X text 450 223 Decay;
#X obj 439 357 env~;
#X obj 439 378 - 100;
#X obj 439 399 vu 15 120 empty empty -1 -8 0 10 -66577 -1 1 0;
#X connect 0 0 9 0;
#X connect 4 0 3 0;
#X connect 5 0 6 0;
#X connect 6 0 3 0;
#X connect 9 0 22 0;
#X connect 10 0 9 1;
#X connect 11 0 10 0;
#X connect 12 0 10 0;
#X connect 14 0 18 1;
#X connect 15 0 14 1;
#X connect 15 0 17 1;
#X connect 17 0 18 0;
#X connect 19 0 15 0;
#X connect 20 0 19 0;
#X connect 21 0 19 0;
#X connect 22 0 35 0;
#X connect 23 0 22 1;
#X connect 24 0 23 0;
#X connect 25 0 23 0;
#X connect 27 0 28 0;
#X connect 28 0 23 0;
#X connect 29 0 30 0;
#X connect 30 0 32 0;
#X connect 31 0 42 0;
#X connect 32 0 31 0;
#X connect 35 0 37 0;
#X connect 37 0 38 0;
#X connect 38 0 17 0;
#X connect 38 0 14 0;
#X connect 40 0 25 0;
#X connect 42 0 41 0;
#X connect 43 0 28 0;
#X connect 44 0 45 0;
#X connect 44 0 35 1;
#X connect 46 0 44 0;
#X connect 48 0 44 1;
#X connect 49 0 44 2;
#X connect 53 0 35 1;
#X connect 55 0 63 0;
#X connect 56 0 55 0;
#X connect 57 0 55 1;
#X connect 59 0 55 2;
#X connect 61 0 55 3;
#X connect 63 0 64 0;
#X connect 64 0 65 0;
