#N canvas 652 408 565 563 10;
#X obj 100 471 dac~;
#X obj 100 444 *~ 0.4;
#X obj 99 98 noise~;
#X obj 99 153 *~;
#X obj 176 131 line 1 2;
#X floatatom 281 380 5 0 0 0 - - -, f 5;
#X obj 281 422 s~ delay;
#X obj 281 80 r~ delay;
#X obj 281 204 *~ 1;
#X obj 302 182 line 1 2;
#X msg 301 109 1;
#X floatatom 390 95 5 0 0 0 - - -, f 5;
#X obj 369 181 print;
#X obj 340 121 delay;
#X obj 281 401 delread~ del1 1;
#X msg 340 153 0 94900;
#X msg 390 117 set 0 \$1;
#X msg 176 62 1 1;
#X floatatom 390 40 5 0 0 0 - - -, f 5;
#X obj 390 60 * 100;
#X floatatom 281 293 5 0 0 0 - - -, f 5;
#X obj 281 341 max 1;
#X obj 331 320 expr max(1 \, $f1/100);
#X floatatom 331 341 5 0 0 0 - - -, f 5;
#X obj 176 24 bng 15 250 50 0 empty empty empty 17 7 0 10 -262144 -1
-1;
#X obj 281 231 delwrite~ del1 500;
#X msg 194 106 0 10;
#X obj 194 83 delay 5;
#X obj 281 320 / 10;
#X text 427 40 Delay Fade Out;
#X text 317 293 Delay Time in ms;
#X obj 99 119 lop~ 2000;
#X connect 1 0 0 0;
#X connect 1 0 0 1;
#X connect 2 0 31 0;
#X connect 3 0 1 0;
#X connect 3 0 25 0;
#X connect 4 0 3 1;
#X connect 5 0 14 0;
#X connect 7 0 8 0;
#X connect 8 0 25 0;
#X connect 9 0 8 1;
#X connect 10 0 9 0;
#X connect 10 0 13 0;
#X connect 11 0 13 1;
#X connect 11 0 16 0;
#X connect 13 0 15 0;
#X connect 14 0 1 0;
#X connect 14 0 6 0;
#X connect 15 0 9 0;
#X connect 15 0 12 0;
#X connect 16 0 15 0;
#X connect 17 0 4 0;
#X connect 17 0 10 0;
#X connect 17 0 27 0;
#X connect 18 0 19 0;
#X connect 19 0 11 0;
#X connect 20 0 22 0;
#X connect 20 0 28 0;
#X connect 21 0 5 0;
#X connect 22 0 23 0;
#X connect 24 0 17 0;
#X connect 26 0 4 0;
#X connect 27 0 26 0;
#X connect 28 0 21 0;
#X connect 31 0 3 0;
