#N canvas 652 408 736 563 10;
#X obj 100 471 dac~;
#X obj 100 444 *~ 0.4;
#X obj 99 98 noise~;
#X obj 99 153 *~;
#X obj 176 131 line 1 2;
#X floatatom 281 390 5 0 0 0 - - -, f 5;
#X obj 281 454 s~ delay;
#X obj 281 80 r~ delay;
#X obj 281 204 *~ 1;
#X obj 302 182 line 1 2;
#X msg 301 109 1;
#X floatatom 390 95 5 0 0 0 - - -, f 5;
#X obj 369 181 print;
#X obj 340 121 delay;
#X obj 281 411 delread~ del1 1;
#X msg 340 153 0 11900;
#X msg 390 117 set 0 \$1;
#X msg 176 62 1 1;
#X floatatom 390 40 5 0 0 0 - - -, f 5;
#X obj 390 60 * 100;
#X floatatom 281 257 5 0 0 0 - - -, f 5;
#X obj 281 351 max 1;
#X obj 331 330 expr max(1 \, $f1/100);
#X floatatom 331 351 5 0 0 0 - - -, f 5;
#X obj 176 24 bng 15 250 50 0 empty empty empty 17 7 0 10 -262144 -1
-1;
#X obj 281 231 delwrite~ del1 500;
#X msg 194 106 0 10;
#X obj 194 83 delay 5;
#X obj 281 330 / 10;
#X text 427 40 Delay Fade Out;
#X obj 557 80 osc~;
#X floatatom 557 48 5 0 0 0 - - -, f 5;
#X obj 557 147 snapshot~;
#X obj 627 114 metro 1;
#X obj 628 94 tgl 15 0 empty empty empty 17 7 0 10 -262144 -1 -1 0
1;
#X obj 557 101 *~ 0.5;
#X obj 557 122 +~ 0.5;
#X obj 557 168 clip 0 1;
#X floatatom 557 189 5 0 0 0 - - -, f 5;
#X obj 557 224 *;
#X obj 557 245 +;
#X floatatom 617 199 5 0 0 0 - - -, f 5;
#X floatatom 591 285 5 0 0 0 - - -, f 5;
#X obj 305 282 t b f;
#X obj 99 119 lop~ 1000;
#X floatatom 617 223 5 0 0 0 - - -, f 5;
#X msg 362 283 0;
#X obj 281 307 + 0;
#X text 391 286 Delay Time Modulation;
#X text 599 45 Mod Speed;
#X text 654 200 Mopd Scale;
#X text 657 87 Mod RUN;
#X text 198 22 SOUND;
#X text 37 120 Filter;
#X text 39 80 Sound Source;
#X text 208 60 Impulse;
#X obj 35 26 adc~;
#X obj 35 47 *~ 1;
#X obj 91 4 hsl 128 15 0 1 0 0 empty empty empty -2 -8 0 10 -262144
-1 -1 11400 1;
#X msg 166 172 1;
#X text 319 256 Delay Time;
#X connect 1 0 0 0;
#X connect 1 0 0 1;
#X connect 2 0 44 0;
#X connect 3 0 1 0;
#X connect 3 0 25 0;
#X connect 4 0 3 1;
#X connect 5 0 14 0;
#X connect 7 0 8 0;
#X connect 8 0 25 0;
#X connect 9 0 8 1;
#X connect 10 0 9 0;
#X connect 10 0 13 0;
#X connect 11 0 13 1;
#X connect 11 0 16 0;
#X connect 13 0 15 0;
#X connect 14 0 1 0;
#X connect 14 0 6 0;
#X connect 15 0 9 0;
#X connect 15 0 12 0;
#X connect 16 0 15 0;
#X connect 17 0 4 0;
#X connect 17 0 10 0;
#X connect 17 0 27 0;
#X connect 18 0 19 0;
#X connect 19 0 11 0;
#X connect 20 0 22 0;
#X connect 20 0 47 0;
#X connect 21 0 5 0;
#X connect 22 0 23 0;
#X connect 24 0 17 0;
#X connect 26 0 4 0;
#X connect 27 0 26 0;
#X connect 28 0 21 0;
#X connect 30 0 35 0;
#X connect 31 0 30 0;
#X connect 32 0 37 0;
#X connect 33 0 32 0;
#X connect 34 0 33 0;
#X connect 35 0 36 0;
#X connect 36 0 32 0;
#X connect 37 0 38 0;
#X connect 38 0 39 0;
#X connect 39 0 40 0;
#X connect 40 0 42 0;
#X connect 40 0 43 0;
#X connect 41 0 39 1;
#X connect 43 0 47 0;
#X connect 43 1 47 1;
#X connect 45 0 40 1;
#X connect 46 0 47 1;
#X connect 47 0 28 0;
#X connect 56 0 57 0;
#X connect 57 0 3 0;
#X connect 58 0 57 1;
#X connect 59 0 3 1;
