#N canvas 444 51 863 821 10;
#X msg 13 37 \; pd dsp \$1;
#X obj 13 14 tgl 15 0 empty empty empty 17 7 0 10 -262144 -1 -1 0 1
;
#X obj 90 311 osc~;
#X obj 209 706 dac~;
#X obj 209 677 *~;
#X obj 297 652 line~;
#X floatatom 482 612 5 0 1 0 - - -, f 5;
#X text 330 520 On;
#X text 418 599 Off;
#X text 524 613 VolumeFader;
#X msg 89 163 100;
#X floatatom 161 266 5 20 15000 0 - - -, f 5;
#X msg 296 519 1 \$1;
#X msg 381 597 0 \$1;
#X floatatom 314 473 5 0 0 0 - - -, f 5;
#X floatatom 399 551 5 0 0 0 - - -, f 5;
#X text 312 453 Attack;
#X text 401 529 Decay;
#X obj 252 310 phasor~;
#X obj 296 496 f;
#X obj 296 472 bng 15 250 50 0 empty empty empty 17 7 0 10 -262144
-1 -1;
#X obj 381 574 f;
#X obj 381 550 bng 15 250 50 0 empty empty empty 17 7 0 10 -262144
-1 -1;
#X obj 90 424 *~;
#X obj 252 423 *~;
#X obj 137 365 vsl 30 50 0 1 0 0 empty empty Volume_Sine 0 -9 0 10
-204786 -1 -1 0 1;
#X obj 295 365 vsl 30 50 0 1 0 0 empty empty Volume_Phasor 0 -9 0 10
-262130 -1 -1 0 1;
#X obj 252 288 * 0.2;
#X msg 284 259 0.5;
#X text 313 259 1 Octave below;
#X obj 526 26 key;
#X text 116 164 Q;
#X msg 153 163 200;
#X text 180 164 A;
#X floatatom 449 41 5 0 0 0 - - -, f 5;
#X obj 89 127 sel 113 97;
#X msg 211 164 400;
#X text 241 164 every other key;
#X obj 381 510 delay 100;
#X obj 527 56 t b b f;
#X text 564 25 Key Input;
#X text 40 13 Turn on Audio here!;
#X text 435 57 Key Number;
#X text 172 128 Key Selector by Key Number;
#X text 5 164 Frequencies;
#X text 200 728 Output;
#X connect 1 0 0 0;
#X connect 2 0 23 0;
#X connect 4 0 3 0;
#X connect 4 0 3 1;
#X connect 5 0 4 1;
#X connect 6 0 5 0;
#X connect 10 0 2 0;
#X connect 10 0 27 0;
#X connect 11 0 2 0;
#X connect 11 0 27 0;
#X connect 12 0 5 0;
#X connect 13 0 5 0;
#X connect 14 0 19 1;
#X connect 14 0 38 1;
#X connect 15 0 21 1;
#X connect 18 0 24 0;
#X connect 19 0 12 0;
#X connect 20 0 19 0;
#X connect 21 0 13 0;
#X connect 22 0 21 0;
#X connect 23 0 4 0;
#X connect 24 0 4 0;
#X connect 25 0 23 1;
#X connect 26 0 24 1;
#X connect 27 0 18 0;
#X connect 28 0 27 1;
#X connect 30 0 34 0;
#X connect 30 0 39 0;
#X connect 32 0 2 0;
#X connect 32 0 27 0;
#X connect 35 0 10 0;
#X connect 35 1 32 0;
#X connect 35 2 36 0;
#X connect 36 0 2 0;
#X connect 36 0 27 0;
#X connect 38 0 22 0;
#X connect 39 0 38 0;
#X connect 39 1 20 0;
#X connect 39 2 35 0;
