#N canvas 797 524 548 467 10;
#X obj 41 132 float;
#X obj 88 132 f;
#X msg 120 132 1.234;
#X obj 44 213 int;
#X floatatom 47 338 5 0 0 0 - - -;
#X floatatom 47 390 5 0 0 0 - - -;
#X floatatom 105 390 5 0 0 0 - - -;
#X obj 105 366 int;
#X msg 47 279 1;
#X msg 80 279 -3;
#X msg 115 279 1.234;
#X msg 159 279 1.8;
#X msg 192 279 -1.234;
#X msg 242 279 -1.8;
#X text 38 91 Pd only works with one kind of numbers: "floating point
number" or [float] or [f];
#X text 167 391 Keep in mind how [int] rounds the floats!;
#X obj 70 213 i;
#X text 41 171 To convert a float to an integer number \, there is
the [int] or [i] oject:;
#X obj 19 16 ../pd_tutorial_header;
#X connect 4 0 5 0;
#X connect 4 0 7 0;
#X connect 7 0 6 0;
#X connect 8 0 4 0;
#X connect 9 0 4 0;
#X connect 10 0 4 0;
#X connect 11 0 4 0;
#X connect 12 0 4 0;
#X connect 13 0 4 0;
