#N canvas 462 28 482 387 10;
#X floatatom 44 76 5 0 0 0 - - -, f 5;
#X obj 44 95 value a;
#X floatatom 104 76 5 0 0 0 - - -, f 5;
#X obj 104 95 value b;
#X floatatom 164 76 5 0 0 0 - - -, f 5;
#X obj 44 164 expr (a + b) * c \; a + b * c;
#X floatatom 44 206 5 0 0 0 - - -, f 5;
#X floatatom 160 206 5 0 0 0 - - -, f 5;
#X obj 44 139 bng 15 250 50 0 empty empty empty 17 7 0 10 -262144 -1
-1;
#X text 39 25 [Value] can store a value to be read by an expression:
;
#X obj 164 95 v c;
#X connect 0 0 1 0;
#X connect 2 0 3 0;
#X connect 4 0 10 0;
#X connect 5 0 6 0;
#X connect 5 1 7 0;
#X connect 8 0 5 0;
