#N canvas 83 158 843 734 10;
#X obj 102 118 4stageenv, f 23;
#X obj 303 117 env4stage;
#X floatatom 119 68 5 0 0 0 - - -, f 5;
#X floatatom 135 86 5 0 0 0 - - -, f 5;
#X floatatom 160 67 5 0 0 0 - - -, f 5;
#X floatatom 176 85 5 0 0 0 - - -, f 5;
#X floatatom 203 66 5 0 0 0 - - -, f 5;
#X floatatom 219 84 5 0 0 0 - - -, f 5;
#X floatatom 243 68 5 0 0 0 - - -, f 5;
#X floatatom 259 86 5 0 0 0 - - -, f 5;
#X obj 270 104 tgl 7 0 empty empty empty 17 7 0 10 -262144 -1 -1 0
1;
#X connect 2 0 0 1;
#X connect 3 0 0 2;
#X connect 4 0 0 3;
#X connect 5 0 0 4;
#X connect 6 0 0 5;
#X connect 7 0 0 6;
#X connect 8 0 0 7;
#X connect 9 0 0 8;
#X connect 10 0 0 9;
