#N canvas 4 23 1107 574 10;
#X obj 48 35 tgl 15 0 empty empty empty 17 7 0 10 -262144 -1 -1 0 1
;
#X msg 48 59 \; pd dsp \$1;
#X floatatom 331 255 5 0 0 0 - - -, f 5;
#X floatatom 446 255 5 0 0 0 - - -, f 5;
#X text 317 233 carrier freq;
#X text 444 234 mod index;
#X obj 331 385 dac~;
#X floatatom 370 338 5 0 0 0 - - -, f 5;
#X obj 331 358 *~ 0.3;
#X text 411 338 Volume;
#X floatatom 368 154 5 0 0 0 - - -, f 5;
#X floatatom 457 154 5 0 0 0 - - -, f 5;
#X floatatom 533 154 5 0 0 0 - - -, f 5;
#X text 361 133 carrier freq;
#X text 456 133 mod freq;
#X text 531 133 mod index;
#X obj 697 368 send~ op1;
#X obj 744 152 receive~ op1;
#X text 742 132 Feedback;
#X floatatom 715 319 5 0 0 0 - - -, f 5;
#X text 754 318 Feedback;
#X floatatom 611 255 5 0 0 0 - - -, f 5;
#X floatatom 726 255 5 0 0 0 - - -, f 5;
#X text 597 234 carrier freq;
#X text 724 234 mod index;
#X obj 611 455 dac~;
#X floatatom 650 408 5 0 0 0 - - -, f 5;
#X obj 611 428 *~ 0.3;
#X text 693 407 Volume;
#X floatatom 648 154 5 0 0 0 - - -, f 5;
#X floatatom 853 154 5 0 0 0 - - -, f 5;
#X text 641 130 carrier freq;
#X text 851 133 mod index;
#X obj 697 342 *~;
#X obj 41 106 cnv 20 250 400 empty empty FM_Operator 20 12 0 14 -261682
-66577 0;
#X obj 140 200 osc~;
#X obj 140 224 *~;
#X obj 51 431 dac~;
#X floatatom 51 171 5 0 0 0 - - -, f 5;
#X floatatom 140 171 5 0 0 0 - - -, f 5;
#X obj 51 246 +~;
#X floatatom 90 373 5 0 0 0 - - -, f 5;
#X floatatom 216 171 5 0 0 0 - - -, f 5;
#X obj 51 396 *~ 0.3;
#X text 44 147 carrier freq;
#X text 139 150 mod freq;
#X text 214 150 mod index;
#X text 133 373 Volume;
#X obj 51 216 phasor~;
#X obj 51 268 cos~;
#X obj 68 343 line;
#X msg 82 314 0 300;
#X msg 68 294 0.3 300;
#X text 131 314 Off;
#X text 130 295 On;
#X obj 320 296 cnv 20 100 26 empty empty empty 20 12 0 14 -261682 -66577
0;
#N canvas 488 85 359 274 operator 0;
#X obj 110 134 *~;
#X obj 21 156 +~;
#X text 19 32 carrier freq;
#X text 112 33 mod freq;
#X text 198 35 mod index;
#X obj 21 126 phasor~;
#X obj 21 178 cos~;
#X obj 21 52 inlet~;
#X obj 110 52 inlet~;
#X obj 21 200 outlet~;
#X obj 110 92 osc~;
#X obj 190 52 inlet~;
#X connect 0 0 1 1;
#X connect 1 0 6 0;
#X connect 5 0 1 0;
#X connect 6 0 9 0;
#X connect 7 0 5 0;
#X connect 8 0 10 0;
#X connect 10 0 0 0;
#X connect 11 0 0 1;
#X restore 331 300 pd operator;
#X obj 600 296 cnv 20 100 26 empty empty empty 20 12 0 14 -261682 -66577
0;
#N canvas 488 85 359 274 operator 0;
#X obj 110 134 *~;
#X obj 21 156 +~;
#X text 19 32 carrier freq;
#X text 112 33 mod freq;
#X text 198 35 mod index;
#X obj 21 126 phasor~;
#X obj 21 178 cos~;
#X obj 21 52 inlet~;
#X obj 110 52 inlet~;
#X obj 21 200 outlet~;
#X obj 110 92 osc~;
#X obj 190 52 inlet~;
#X connect 0 0 1 1;
#X connect 1 0 6 0;
#X connect 5 0 1 0;
#X connect 6 0 9 0;
#X connect 7 0 5 0;
#X connect 8 0 10 0;
#X connect 10 0 0 0;
#X connect 11 0 0 1;
#X restore 611 300 pd operator;
#X obj 637 191 cnv 20 100 26 empty empty empty 20 12 0 14 -261682 -66577
0;
#N canvas 488 85 359 274 operator 0;
#X obj 110 134 *~;
#X obj 21 156 +~;
#X text 19 32 carrier freq;
#X text 112 33 mod freq;
#X text 198 35 mod index;
#X obj 21 126 phasor~;
#X obj 21 178 cos~;
#X obj 21 52 inlet~;
#X obj 110 52 inlet~;
#X obj 21 200 outlet~;
#X obj 110 92 osc~;
#X obj 190 52 inlet~;
#X connect 0 0 1 1;
#X connect 1 0 6 0;
#X connect 5 0 1 0;
#X connect 6 0 9 0;
#X connect 7 0 5 0;
#X connect 8 0 10 0;
#X connect 10 0 0 0;
#X connect 11 0 0 1;
#X restore 648 195 pd operator;
#X obj 357 191 cnv 20 100 26 empty empty empty 20 12 0 14 -261682 -66577
0;
#N canvas 488 85 359 274 operator 0;
#X obj 110 134 *~;
#X obj 21 156 +~;
#X text 19 32 carrier freq;
#X text 112 33 mod freq;
#X text 198 35 mod index;
#X obj 21 126 phasor~;
#X obj 21 178 cos~;
#X obj 21 52 inlet~;
#X obj 110 52 inlet~;
#X obj 21 200 outlet~;
#X obj 110 92 osc~;
#X obj 190 52 inlet~;
#X connect 0 0 1 1;
#X connect 1 0 6 0;
#X connect 5 0 1 0;
#X connect 6 0 9 0;
#X connect 7 0 5 0;
#X connect 8 0 10 0;
#X connect 10 0 0 0;
#X connect 11 0 0 1;
#X restore 368 195 pd operator;
#X connect 0 0 1 0;
#X connect 2 0 56 0;
#X connect 3 0 56 2;
#X connect 7 0 8 1;
#X connect 8 0 6 0;
#X connect 8 0 6 1;
#X connect 10 0 62 0;
#X connect 11 0 62 1;
#X connect 12 0 62 2;
#X connect 17 0 60 1;
#X connect 19 0 33 1;
#X connect 21 0 58 0;
#X connect 22 0 58 2;
#X connect 26 0 27 1;
#X connect 27 0 25 0;
#X connect 27 0 25 1;
#X connect 29 0 60 0;
#X connect 30 0 60 2;
#X connect 33 0 16 0;
#X connect 35 0 36 0;
#X connect 36 0 40 1;
#X connect 38 0 48 0;
#X connect 39 0 35 0;
#X connect 40 0 49 0;
#X connect 41 0 43 1;
#X connect 42 0 36 1;
#X connect 43 0 37 0;
#X connect 43 0 37 1;
#X connect 48 0 40 0;
#X connect 49 0 43 0;
#X connect 50 0 43 1;
#X connect 51 0 50 0;
#X connect 52 0 50 0;
#X connect 56 0 8 0;
#X connect 58 0 27 0;
#X connect 58 0 33 0;
#X connect 60 0 58 1;
#X connect 62 0 56 1;
#X coords 0 574 1 573 200 200 0;
