#N canvas 739 509 450 346 10;
#X floatatom 40 129 5 0 0 0 - - -;
#X obj 40 239 int;
#X floatatom 40 261 5 0 0 0 - - -;
#X msg 73 189 0.4;
#X msg 53 148 1.5;
#X msg 63 168 2.9;
#X text 36 89 Rounding by using integer;
#X text 36 103 --> Truncation;
#X floatatom 149 202 5 0 0 0 - - -;
#X obj 149 221 + 0.5;
#X obj 149 243 i;
#X floatatom 149 265 5 0 0 0 - - -;
#X text 146 183 Rounding to the next whole number;
#X obj 19 16 ../pd_tutorial_header;
#X connect 0 0 1 0;
#X connect 1 0 2 0;
#X connect 3 0 1 0;
#X connect 4 0 1 0;
#X connect 5 0 1 0;
#X connect 8 0 9 0;
#X connect 9 0 10 0;
#X connect 10 0 11 0;
