#N canvas 739 509 450 300 10;
#X floatatom 40 49 5 0 0 0 - - -, f 5;
#X obj 40 159 int;
#X floatatom 40 181 5 0 0 0 - - -, f 5;
#X msg 73 109 0.4;
#X msg 53 68 1.5;
#X msg 63 88 2.9;
#X text 36 9 Rounding by using integer;
#X text 36 23 --> Truncation;
#X floatatom 149 122 5 0 0 0 - - -, f 5;
#X obj 149 141 + 0.5;
#X obj 149 163 i;
#X floatatom 149 185 5 0 0 0 - - -, f 5;
#X text 146 103 Rounding to the next whole number;
#X connect 0 0 1 0;
#X connect 1 0 2 0;
#X connect 3 0 1 0;
#X connect 4 0 1 0;
#X connect 5 0 1 0;
#X connect 8 0 9 0;
#X connect 9 0 10 0;
#X connect 10 0 11 0;
