#N canvas 96 102 546 394 10;
#X floatatom 22 145 5 0 0 0 - - -;
#X floatatom 22 260 8 0 0 0 - - -;
#X obj 25 124 hsl 128 15 0 127 0 0 empty empty empty -2 -8 0 10 -262144
-1 -1 0 1;
#X text 22 96 Scaling 0-127 to 1-10;
#X text 170 125 Scaling means: y = m*x + c;
#X text 57 217 The lower value is the offset;
#X text 115 184 9 = 127 * x;
#X text 115 197 9/127 = x;
#X obj 363 189 / 127;
#X floatatom 363 210 12 0 0 0 - - -;
#X text 113 166 The Higher Value is 10 = 127*x + 1;
#X text 362 225 Scaling Factor;
#X msg 363 168 9;
#X obj 22 216 + 1;
#X obj 22 164 * 0.0708661;
#X obj 19 16 ../pd_tutorial_header;
#X connect 0 0 14 0;
#X connect 2 0 0 0;
#X connect 8 0 9 0;
#X connect 9 0 14 1;
#X connect 12 0 8 0;
#X connect 13 0 1 0;
#X connect 14 0 13 0;
