#N canvas 96 102 546 668 10;
#X floatatom 22 65 5 0 0 0 - - -, f 5;
#X floatatom 22 180 8 0 0 0 - - -, f 8;
#X obj 25 44 hsl 128 15 0 127 0 0 empty empty empty -2 -8 0 10 -262144
-1 -1 0 1;
#X text 22 16 Scaling 0-127 to 1-10;
#X text 170 45 Scaling means: y = m*x + c;
#X text 57 137 The lower value is the offset;
#X text 115 104 9 = 127 * x;
#X text 115 117 9/127 = x;
#X obj 363 109 / 127;
#X floatatom 363 130 12 0 0 0 - - -, f 12;
#X text 113 86 The Higher Value is 10 = 127*x + 1;
#X text 40 265 Scaling means: y = m*x + c;
#X text 70 281 Equals: (y - c)/m = x;
#X obj 39 372 expr ($f1 - $f2) / $f3;
#X floatatom 39 393 12 0 0 0 - - -, f 12;
#X floatatom 39 320 5 0 0 2 Upper - -, f 5;
#X floatatom 76 320 5 0 0 2 Lower - -, f 5;
#X obj 76 340 t b f;
#X floatatom 141 320 5 0 0 2 Original_Upper_Value - -, f 5;
#X obj 141 340 t b f;
#X text 122 393 Scaling Factor;
#X floatatom 37 512 5 0 0 2 Upper - -, f 5;
#X floatatom 81 512 5 0 0 2 Lower - -, f 5;
#X obj 81 532 t b f;
#X floatatom 152 512 5 0 0 2 Upper - -, f 5;
#X obj 152 532 t b f;
#X obj 37 564 expr $f4 * (($f1 - $f2) / $f3) + $f2;
#X floatatom 37 585 12 0 0 0 - - -, f 12;
#X floatatom 223 512 5 0 0 2 Lower - -, f 5;
#X obj 223 532 t b f;
#X text 33 474 Scaling to:;
#X text 148 473 Scaling from:;
#X text 362 145 Scaling Factor;
#X msg 363 88 9;
#X obj 22 136 + 1;
#X obj 22 84 * 0.0708661;
#X connect 0 0 35 0;
#X connect 2 0 0 0;
#X connect 8 0 9 0;
#X connect 9 0 35 1;
#X connect 13 0 14 0;
#X connect 15 0 13 0;
#X connect 16 0 17 0;
#X connect 17 0 13 0;
#X connect 17 1 13 1;
#X connect 18 0 19 0;
#X connect 19 0 13 0;
#X connect 19 1 13 2;
#X connect 21 0 26 0;
#X connect 22 0 23 0;
#X connect 23 0 26 0;
#X connect 23 1 26 1;
#X connect 24 0 25 0;
#X connect 25 0 26 0;
#X connect 25 1 26 2;
#X connect 26 0 27 0;
#X connect 28 0 29 0;
#X connect 29 0 26 0;
#X connect 29 1 26 3;
#X connect 33 0 8 0;
#X connect 34 0 1 0;
#X connect 35 0 34 0;
