#N canvas 575 444 653 342 10;
#X obj 34 151 until;
#X msg 34 120 128;
#X floatatom 34 229 5 0 0 0 - - -;
#X obj 34 177 f;
#X obj 63 177 + 1;
#X msg 92 148 0, f 2;
#X text 31 93 Lets until bang 128 times.;
#X obj 34 199 + 1;
#X text 119 148 Counter Reset;
#X obj 263 159 t b b;
#X obj 263 190 until;
#X obj 263 136 bng 15 250 50 0 empty empty empty 17 7 0 10 -262144
-1 -1;
#X msg 327 189 0;
#X text 259 107 Stops \, when it gets a bang a right inlet.;
#X obj 263 221 f;
#X obj 295 221 + 1;
#X obj 263 243 + 1;
#X floatatom 263 268 5 0 0 0 - - -;
#X text 394 164 not so very nice...;
#X text 407 234 Change amount of iterations here.;
#X obj 343 233 sel 128;
#X text 259 92 Sending Bands forever.;
#X obj 19 16 ../pd_tutorial_header;
#X connect 0 0 3 0;
#X connect 1 0 0 0;
#X connect 3 0 4 0;
#X connect 3 0 7 0;
#X connect 4 0 3 1;
#X connect 5 0 3 1;
#X connect 7 0 2 0;
#X connect 9 0 10 0;
#X connect 9 1 12 0;
#X connect 10 0 14 0;
#X connect 11 0 9 0;
#X connect 12 0 14 1;
#X connect 14 0 15 0;
#X connect 14 0 16 0;
#X connect 15 0 14 1;
#X connect 16 0 17 0;
#X connect 16 0 20 0;
#X connect 20 0 10 1;
