#N canvas 606 534 558 343 10;
#X obj 116 165 t f f;
#X obj 98 188 t f b;
#X obj 93 220 f;
#X obj 98 244 +;
#X obj 98 266 / 2;
#X floatatom 98 288 5 0 0 0 - - -;
#X text 111 109 This gives you the Average of two following floats
;
#X msg 116 138 20;
#X msg 151 138 30;
#X obj 302 261 expr ($f1+$f2)/2;
#X floatatom 302 281 5 0 0 0 - - -;
#X text 298 188 Easy:;
#X obj 19 16 ../pd_tutorial_header;
#X floatatom 302 211 5 0 0 0 - - -;
#X floatatom 368 213 5 0 0 0 - - -;
#X obj 368 233 t b f;
#X connect 0 0 1 0;
#X connect 0 1 3 1;
#X connect 1 0 2 1;
#X connect 1 1 2 0;
#X connect 2 0 3 0;
#X connect 3 0 4 0;
#X connect 4 0 5 0;
#X connect 7 0 0 0;
#X connect 8 0 0 0;
#X connect 9 0 10 0;
#X connect 13 0 9 0;
#X connect 14 0 15 0;
#X connect 15 0 9 0;
#X connect 15 1 9 1;
