#N canvas 606 534 558 343 10;
#X obj 116 105 t f f;
#X obj 98 128 t f b;
#X obj 93 160 f;
#X obj 98 184 +;
#X obj 98 206 / 2;
#X floatatom 98 228 5 0 0 0 - - -, f 5;
#X text 111 49 This gives you the Average of two following floats;
#X msg 116 78 20;
#X msg 151 78 30;
#X obj 302 211 expr ($f1+$f2)/2;
#X floatatom 302 231 5 0 0 0 - - -, f 5;
#X text 298 172 Easy:;
#X connect 0 0 1 0;
#X connect 0 1 3 1;
#X connect 1 0 2 1;
#X connect 1 1 2 0;
#X connect 2 0 3 0;
#X connect 3 0 4 0;
#X connect 4 0 5 0;
#X connect 7 0 0 0;
#X connect 8 0 0 0;
#X connect 9 0 10 0;
