#N canvas 571 404 595 465 10;
#X floatatom 45 146 5 0 1000 0 - - -;
#X obj 45 204 +;
#X text 93 165 Value A;
#X text 131 204 Value B;
#X text 42 302 A and B should be between 0 - 1 and add up to 1;
#X text 41 94 A simple structure to Lo Pass-filter floats.;
#X text 42 111 y[n] = Ax[n] + Bx[n-1];
#X obj 85 204 * 0.9;
#X obj 45 165 * 0.1;
#X obj 205 204 +;
#X obj 306 204 +;
#X obj 306 165 * 0.3;
#X obj 346 204 * 0.7;
#X obj 205 165 * 0.001;
#X obj 245 204 * 0.999;
#X floatatom 205 226 5 0 0 0 - - -;
#X floatatom 306 226 5 0 0 0 - - -;
#X floatatom 45 226 5 0 0 0 - - -;
#X text 42 332 This Method is not exact to the input value but can
be used to eliminate input wiggeling of analog devices etc.;
#X obj 45 245 i;
#X obj 205 245 i;
#X obj 306 245 i;
#X floatatom 45 267 5 0 0 0 - - -;
#X floatatom 205 267 5 0 0 0 - - -;
#X floatatom 306 267 5 0 0 0 - - -;
#X obj 19 16 ../pd_tutorial_header;
#X connect 0 0 8 0;
#X connect 0 0 13 0;
#X connect 0 0 11 0;
#X connect 1 0 7 0;
#X connect 1 0 17 0;
#X connect 7 0 1 1;
#X connect 8 0 1 0;
#X connect 9 0 14 0;
#X connect 9 0 15 0;
#X connect 10 0 12 0;
#X connect 10 0 16 0;
#X connect 11 0 10 0;
#X connect 12 0 10 1;
#X connect 13 0 9 0;
#X connect 14 0 9 1;
#X connect 15 0 20 0;
#X connect 16 0 21 0;
#X connect 17 0 19 0;
#X connect 19 0 22 0;
#X connect 20 0 23 0;
#X connect 21 0 24 0;
