#N canvas 583 351 547 412 10;
#X obj 28 333 outlet;
#X obj 28 296 spigot 1;
#X obj 101 334 outlet;
#X obj 101 297 spigot 0;
#X obj 171 334 outlet;
#X obj 171 297 spigot 0;
#X obj 28 121 inlet;
#X obj 205 127 inlet;
#X obj 205 153 select 0 1 2 3;
#X msg 205 179 1 0 0 0;
#X msg 261 179 0 1 0 0;
#X msg 318 179 0 0 1 0;
#X msg 375 179 0 0 0 1;
#X obj 205 222 unpack 0 0 0 0;
#X obj 241 334 outlet;
#X obj 241 297 spigot 0;
#X obj 19 16 ../pd_tutorial_header;
#X connect 1 0 0 0;
#X connect 3 0 2 0;
#X connect 5 0 4 0;
#X connect 6 0 1 0;
#X connect 6 0 3 0;
#X connect 6 0 5 0;
#X connect 6 0 15 0;
#X connect 7 0 8 0;
#X connect 8 0 9 0;
#X connect 8 1 10 0;
#X connect 8 2 11 0;
#X connect 8 3 12 0;
#X connect 9 0 13 0;
#X connect 10 0 13 0;
#X connect 11 0 13 0;
#X connect 12 0 13 0;
#X connect 13 0 1 1;
#X connect 13 1 3 1;
#X connect 13 2 5 1;
#X connect 13 3 15 1;
#X connect 15 0 14 0;
