#N canvas 181 34 677 611 10;
#X text 39 30 CHALLENGE 1;
#X text 36 64 1) Create a patch that can print messages and numbers
in the terminal window.;
#X text 35 108 2) Create a patch that prints the value of a message
in the terminal window only when a bang triggers it.;
#X text 37 153 3) Remeber: right click on objects offers help... and
gives acces to the propertiers! Change the look of the bang GUI:;
#X obj 229 210 bng 40 50 20 0 2 empty button 5 20 0 8 -258113 -4034
-4034;
#X obj 165 229 bng 15 250 50 0 empty empty empty 17 7 0 10 -262144
-1 -1;
#X text 193 229 -->;
#X text 70 229 for example:;
