#N canvas 304 121 612 398 10;
#X text 55 44 1 Your best Friends:;
#X text 55 44 1 Your best Friends:;
#X text 59 185 2 Why is this important?;
#X text 105 218 Pd is open source and permanently in evelopement. There
are so may objects \, that it is hard to remember every single function
of them. So start a routine to always browse for everything you need.
;
#X text 104 326 OK... lets finally start...;
#X text 95 70 the Help Browser Help -> Browser Help files for every
object right click on object --> help the communitiy google / duckduckgo
/ pd website etc.;
