#N canvas 507 23 773 755 10;
#X text 30 105 Lets understand MESSAGES;
#X text 34 197 Here we go:;
#X obj 87 277 print;
#X msg 87 242 one;
#X text 220 240 MESSAGE of one ELEMENT;
#X obj 87 348 print;
#X msg 87 319 one two three;
#X obj 110 472 print;
#X msg 96 415 1;
#X msg 73 391 0;
#X msg 154 414 stop;
#X msg 137 390 start;
#X text 228 388 NUMBERS and SYMBOLS (note: many OUTLETS can be connectet
to one INLET);
#X msg 75 545 1 2 3 4 5;
#X obj 87 754 print;
#X msg 107 587 1 \, 2 \, 3 \, 4 \, 5;
#X text 231 538 one MESSAGE with five ELEMENTS;
#X text 228 587 five MESSAGES with one ELEMENT thanks to comma seperation
;
#X text 297 641 one MESSAGE with NUMBERS and SYMBOLS as ELEMENTS;
#X msg 132 640 1 2 3 hello 4 5 6 world;
#X msg 168 691 1 \, 2 \, hello \, world \, 3 \, 4;
#X msg 277 455 1;
#X obj 280 497 print;
#X floatatom 383 463 5 0 0 0 - - -;
#X msg 383 433 2;
#X text 220 318 MESSAGE of three ELEMENTS \, aka LIST;
#X msg 319 453 word;
#X obj 19 16 ../pd_tutorial_header;
#X text 31 140 In Pd every information is send as a MESSAGE. A MESSAGE
consists of its atoms. Those ELEMENTS can only be NUMBERS or SYMBOLS
;
#X connect 3 0 2 0;
#X connect 6 0 5 0;
#X connect 8 0 7 0;
#X connect 9 0 7 0;
#X connect 10 0 7 0;
#X connect 11 0 7 0;
#X connect 13 0 14 0;
#X connect 15 0 14 0;
#X connect 19 0 14 0;
#X connect 20 0 14 0;
#X connect 21 0 22 0;
#X connect 24 0 23 0;
#X connect 26 0 22 0;
