#N canvas 106 23 635 843 10;
#X obj 59 188, f 5;
#X obj 60 219 iNt;
#X obj 59 251 int;
#X text 139 186 empty object box;
#X text 140 217 wrong object box;
#X text 141 252 correct object (remeber: right click --> help);
#X text 28 310 2 MESSAGE Box;
#X msg 60 346;
#X text 20 153 1 OBJECT Box;
#X msg 59 379 message;
#X msg 59 410 1;
#X text 140 153 They performe codes actions! Typing is case sensitive!!!
;
#X text 147 306 Interactive for being clickable!!!;
#X floatatom 67 519 5 0 0 0 - - -;
#X floatatom 68 573 5 0 0 0 - - -;
#X text 152 572 Shift Click & drag changed dezimal values;
#X floatatom 68 545 5 0 0 0 - - -;
#X floatatom 68 608 5 0 0 0 - - -;
#X symbolatom 68 660 10 0 0 0 - - -;
#X text 26 474 3 NUMBER and SYMBOL Box;
#X text 154 516 number box;
#X text 154 543 click & write / click + drag IN LIVE MODE!!!;
#X text 159 656 click & write + enter;
#X text 39 719 4 COMMENT box;
#X text 70 755 comment;
#X text 168 753 click and write + enter IN EDIT MODE!!!;
#X text 22 114 All the object types;
#X obj 19 16 ../pd_tutorial_header;
