#N canvas 183 26 677 843 10;
#X text 74 99 BANG;
#X text 74 129 In Pd \, to bang means to trigger an action!;
#X obj 80 215 bang;
#X obj 80 240 print;
#X floatatom 80 175 5 0 0 0 - - -;
#X obj 81 339 bng 15 250 50 0 empty empty empty 17 7 0 10 -262144 -1
-1;
#X obj 81 418 print;
#X obj 113 369 bng 15 250 50 0 empty empty empty 17 7 0 10 -262144
-1 -1;
#X floatatom 81 287 5 0 0 0 - - -;
#X msg 128 286 hello world;
#X msg 135 176 hello world;
#X obj 228 288 bng 15 250 50 0 empty empty empty 17 7 0 10 -262144
-1 -1;
#X obj 80 604 print;
#X floatatom 80 576 5 0 0 0 - - -;
#X msg 80 478 set 123;
#X obj 169 509 bng 15 250 50 0 empty empty empty 17 7 0 10 -262144
-1 -1;
#X msg 141 478 set 321;
#X obj 80 675 loadbang;
#X msg 80 712 3;
#X floatatom 80 744 5 0 0 0 - - -;
#X msg 142 712 3;
#X floatatom 142 744 5 0 0 0 - - -;
#X text 246 676 loadbang sends a bang on patch startup!;
#X obj 262 287 b;
#X obj 262 261 bng 15 250 50 0 empty empty empty 17 7 0 10 -262144
-1 -1;
#X text 182 210 The bang object sends a trigger [bang] \, NO MATTER
WHAT it receives!;
#X text 221 383 ... or creade an empty object and typ [bng];
#X text 221 350 Create the bang button: Put/Einfügen-[bang] or [shift
+ cmd + b];
#X text 231 475 set a value in the number box \, then bang triggers
the number box to output to print object;
#X obj 19 16 ../pd_tutorial_header;
#X connect 2 0 3 0;
#X connect 4 0 2 0;
#X connect 5 0 6 0;
#X connect 5 0 7 0;
#X connect 8 0 5 0;
#X connect 9 0 5 0;
#X connect 10 0 2 0;
#X connect 11 0 5 0;
#X connect 13 0 12 0;
#X connect 14 0 13 0;
#X connect 15 0 13 0;
#X connect 16 0 13 0;
#X connect 17 0 18 0;
#X connect 18 0 19 0;
#X connect 20 0 21 0;
#X connect 23 0 5 0;
#X connect 24 0 23 0;
