#N struct 1004-grob-lib-x float x float y array numbers 1004-num-x
;
#N struct 1004-num-x float x float y;
#N canvas 614 28 593 755 10;
#X obj 66 23 doll;
#X floatatom 86 254 5 0 0 0 - - -, f 5;
#X floatatom 275 252 5 0 0 0 - - -, f 5;
#X obj 66 450 -;
#X obj 66 392 t b f;
#X obj 66 532 * 1;
#X obj 66 350 t f f f;
#X obj 263 347 t f f f;
#X obj 66 479 t f f;
#X floatatom 66 565 5 0 0 0 p1 - -, f 5;
#X obj 144 531 * 1;
#X floatatom 144 564 5 0 0 0 p2 - -, f 5;
#X obj 239 532 * 1;
#X floatatom 239 564 5 0 0 0 p3 - -, f 5;
#X obj 314 534 * 1;
#X floatatom 314 565 5 0 0 0 p4 - -, f 5;
#X obj 302 446 -;
#X obj 302 388 t b f;
#X obj 302 475 t f f;
#X text 44 34 p1;
#X text 275 35 p2;
#X text 46 228 p4;
#X text 276 229 p3;
#X obj 66 280 clip -100 100;
#X obj 66 305 + 100;
#X obj 66 327 * 0.005;
#X msg 66 423 1;
#X msg 302 419 1;
#X obj 263 278 clip -100 100;
#X obj 263 303 + 100;
#X obj 263 325 * 0.005;
#X text 366 564 relative weights;
#X connect 0 0 1 0;
#X connect 0 0 23 0;
#X connect 0 1 2 0;
#X connect 0 1 28 0;
#X connect 3 0 8 0;
#X connect 4 0 26 0;
#X connect 4 1 3 1;
#X connect 5 0 9 0;
#X connect 6 0 4 0;
#X connect 6 1 10 0;
#X connect 6 2 12 0;
#X connect 7 0 5 1;
#X connect 7 1 10 1;
#X connect 7 2 17 0;
#X connect 8 0 5 0;
#X connect 8 1 14 0;
#X connect 10 0 11 0;
#X connect 12 0 13 0;
#X connect 14 0 15 0;
#X connect 16 0 18 0;
#X connect 17 0 27 0;
#X connect 17 1 16 1;
#X connect 18 0 12 1;
#X connect 18 1 14 1;
#X connect 23 0 24 0;
#X connect 24 0 25 0;
#X connect 25 0 6 0;
#X connect 26 0 3 0;
#X connect 27 0 16 0;
#X connect 28 0 29 0;
#X connect 29 0 30 0;
#X connect 30 0 7 0;
