#N canvas 361 163 819 673 10;
#X obj 62 512 +;
#X floatatom 62 545 5 0 0 0 - - -;
#X msg 62 474 2;
#X msg 104 474 3;
#X obj 62 426 bng 15 250 50 0 empty empty empty 17 7 0 10 -262144 -1
-1;
#X obj 211 512 +;
#X floatatom 211 545 5 0 0 0 - - -;
#X msg 211 474 2;
#X msg 253 474 3;
#X obj 211 428 bng 15 250 50 0 empty empty empty 17 7 0 10 -262144
-1 -1;
#X text 362 485 Both equations look the same \, but the behave differently.
;
#X text 362 592 IT IS NEARLY IMPOSSIBLE TO REMEBER EVERY PATCH ORDER
WITHIN A COMPLETE PD PATCH... SO WE NEED A SOLUTION HERE!!!;
#X msg 63 215 1;
#X msg 113 215 2;
#X msg 164 215 3;
#X obj 63 284 print;
#X obj 113 284 print;
#X obj 164 284 print;
#X obj 63 153 bng 15 250 50 0 empty empty empty 17 7 0 10 -262144 -1
-1;
#X msg 243 215 1;
#X msg 293 215 2;
#X msg 344 215 3;
#X obj 243 284 print;
#X obj 293 284 print;
#X obj 344 284 print;
#X obj 243 150 bng 15 250 50 0 empty empty empty 17 7 0 10 -262144
-1 -1;
#X text 60 327 Bang-Order remembers the order that patch cords have
been connected...;
#X text 28 122 1) Order of processing with bangs;
#X text 83 152 PRESS THIS BUTTON;
#X text 267 151 THEN \, PRESS THAT BUTTON;
#X text 453 149 Compare the printout in the Pd window.;
#X text 84 424 PRESS THIS BUTTON;
#X text 233 426 THEN \, PRESS THAT BUTTON;
#X text 361 521 The reason is \, that Pd processes every patch in the
order \, that the user has connected the patch cords: In the first
patch \, the first line was connected to the [2] message atom \, then
to the [3] message atom. In the second patch \, the chords have been
drawn the other wa around.;
#X obj 19 16 ../pd_tutorial_header;
#X connect 0 0 1 0;
#X connect 2 0 0 0;
#X connect 3 0 0 1;
#X connect 4 0 2 0;
#X connect 4 0 3 0;
#X connect 5 0 6 0;
#X connect 7 0 5 0;
#X connect 8 0 5 1;
#X connect 9 0 8 0;
#X connect 9 0 7 0;
#X connect 12 0 15 0;
#X connect 13 0 16 0;
#X connect 14 0 17 0;
#X connect 18 0 14 0;
#X connect 18 0 13 0;
#X connect 18 0 12 0;
#X connect 19 0 22 0;
#X connect 20 0 23 0;
#X connect 21 0 24 0;
#X connect 25 0 19 0;
#X connect 25 0 20 0;
#X connect 25 0 21 0;
