#N canvas 181 23 878 755 10;
#X obj 62 512 +;
#X floatatom 62 545 5 0 0 0 - - -;
#X msg 62 474 2;
#X msg 104 474 3;
#X obj 62 426 bng 15 250 50 0 empty empty empty 17 7 0 10 -262144 -1
-1;
#X obj 211 512 +;
#X floatatom 211 545 5 0 0 0 - - -;
#X msg 211 474 2;
#X msg 253 474 3;
#X obj 211 428 bng 15 250 50 0 empty empty empty 17 7 0 10 -262144
-1 -1;
#X text 362 485 Both equations look the same \, but the behave differently.
;
#X msg 63 215 1;
#X msg 113 215 2;
#X msg 164 215 3;
#X obj 63 153 bng 15 250 50 0 empty empty empty 17 7 0 10 -262144 -1
-1;
#X msg 243 215 1;
#X msg 293 215 2;
#X msg 344 215 3;
#X obj 243 150 bng 15 250 50 0 empty empty empty 17 7 0 10 -262144
-1 -1;
#X text 60 327 Bang-Order remembers the order that patch cords have
been connected...;
#X text 28 122 1) Order of processing with bangs;
#X text 83 152 PRESS THIS BUTTON;
#X text 267 151 THEN \, PRESS THAT BUTTON;
#X text 453 149 Compare the printout in the Pd window.;
#X text 84 424 PRESS THIS BUTTON;
#X text 233 426 THEN \, PRESS THAT BUTTON;
#X text 361 521 The reason is \, that Pd processes every patch in the
order \, that the user has connected the patch cords: In the first
patch \, the first line was connected to the [2] message atom \, then
to the [3] message atom. In the second patch \, the chords have been
drawn the other wa around.;
#X obj 19 16 ../pd_tutorial_header;
#X text 362 592 IT IS NEARLY IMPOSSIBLE TO REMEBER EVERY PATCH ORDER
WITHIN A COMPLETE PD PATCH... SO WE NEED A SOLUTION HERE:;
#X obj 221 635 t b f a;
#X text 294 635 <----;
#X text 361 629 ITS CALLED "TRIGGER". THE MOST IMPORTANT OBJECT IN
PD FOR ORDERING EVENTS: LOOK IT UP IN 2_OBJECTS_GUI/14_TRIGGER.pd (or
just ctrl-click for its help page);
#X obj 63 284 print 1;
#X obj 113 284 print 2;
#X obj 164 284 print 3;
#X obj 243 284 print 1;
#X obj 293 284 print 2;
#X obj 344 284 print 3;
#X msg 63 796 1;
#X msg 113 796 2;
#X msg 164 796 3;
#X obj 63 731 bng 15 250 50 0 empty empty empty 17 7 0 10 -262144 -1
-1;
#X obj 63 831 print 1;
#X obj 113 831 print 2;
#X obj 164 831 print 3;
#X text 59 695 NEVER USE THIS!!!;
#X msg 318 796 1;
#X msg 368 796 2;
#X msg 419 796 3;
#X obj 318 731 bng 15 250 50 0 empty empty empty 17 7 0 10 -262144
-1 -1;
#X text 342 732 THEN \, PRESS THAT BUTTON;
#X obj 318 829 print 1;
#X obj 368 829 print 2;
#X obj 419 829 print 3;
#X text 88 732 PRESS THIS BUTTON;
#X obj 318 761 t b b b;
#X text 314 695 INSTEAD USE THIS!!! (ORDER GUARANTEED: RIGHT TO LEFT)
;
#X connect 0 0 1 0;
#X connect 2 0 0 0;
#X connect 3 0 0 1;
#X connect 4 0 2 0;
#X connect 4 0 3 0;
#X connect 5 0 6 0;
#X connect 7 0 5 0;
#X connect 8 0 5 1;
#X connect 9 0 8 0;
#X connect 9 0 7 0;
#X connect 11 0 32 0;
#X connect 12 0 33 0;
#X connect 13 0 34 0;
#X connect 14 0 13 0;
#X connect 14 0 12 0;
#X connect 14 0 11 0;
#X connect 15 0 35 0;
#X connect 16 0 36 0;
#X connect 17 0 37 0;
#X connect 18 0 15 0;
#X connect 18 0 16 0;
#X connect 18 0 17 0;
#X connect 38 0 42 0;
#X connect 39 0 43 0;
#X connect 40 0 44 0;
#X connect 41 0 38 0;
#X connect 41 0 39 0;
#X connect 41 0 40 0;
#X connect 46 0 51 0;
#X connect 47 0 52 0;
#X connect 48 0 53 0;
#X connect 49 0 55 0;
#X connect 55 0 46 0;
#X connect 55 1 47 0;
#X connect 55 2 48 0;
