#N canvas 221 239 697 607 10;
#X obj 36 159 loadbang;
#X floatatom 36 302 5 0 0 0 - - -;
#X msg 36 268 2;
#X obj 36 370 print;
#X msg 36 337 Hello world!;
#X obj 36 524 dac~;
#X obj 36 449 osc~ 333;
#X msg 36 223 \; pd dsp \$1;
#X msg 36 180 1;
#X obj 36 201 tgl 15 0 empty empty empty 17 7 0 10 -261234 -1 -1 1
1;
#X obj 36 484 *~ 0.1;
#X text 56 202 TURN ON/OFF AUDIO HERE;
#X text 32 92 Pd distinguishes between two control rates for connecting
objects: control data and audio signal. Control data is sent via thin
cabels. Audio signals are sent via thick cabels.;
#X text 249 154 Here the bang at startup is send to the message [1]
that will cause the checkbox to be checked turning \, sending out the
message [1] (or [0] if unchecked) and thus turning audio ON/OFF. This
is control rate data.;
#X text 121 336 CLICK ME;
#X text 66 266 CLICK ME;
#X text 248 267 This sends the message [2] to a so called number box.
;
#X text 250 335 And this one sends a text messag \, called a string
\, to the [print] objects. Watch the Pd window.;
#X text 250 442 Audio rate \, finally. The Oscillator [osc~] is producing
a tone \, which is attenuated in volume by the math object [*~] and
put out in the world via the digital-analog-converter [dac~] object.
;
#X obj 19 16 ../pd_tutorial_header;
#X connect 0 0 8 0;
#X connect 2 0 1 0;
#X connect 4 0 3 0;
#X connect 6 0 10 0;
#X connect 8 0 9 0;
#X connect 9 0 7 0;
#X connect 10 0 5 0;
#X connect 10 0 5 1;
