#N canvas 502 393 450 300 10;
#X obj 48 66 osc~ 440;
#X text 130 66 Sin OSC with 100% Amplitude Output;
#X text 130 86 Thick Cable == Audio Connection;
#X obj 48 118 dac~;
#X text 131 19 To let Pd calculate digital Audio \, turn on DSP in
Pd Window!;
#X obj 48 193 tgl 15 0 empty empty empty 17 7 0 10 -262144 -1 -1 0
1;
#X msg 48 213 \; pd dsp \$1;
#X floatatom 4 219 5 0 0 0 - - -, f 5;
#X text 131 123 Digital-Analog Converter == Audio Output;
#X text 132 220 Routine to toggle ON/OFF DSP from parent patcher.;
#X connect 0 0 3 0;
#X connect 5 0 6 0;
#X connect 5 0 7 0;
