#N canvas 502 393 450 300 10;
#X obj 48 66 osc~ 440;
#X obj 48 104 *~ 0.1;
#X text 130 66 Sin OSC with 100% Amplitude Output;
#X text 130 86 Thick Cable == Audio Connection;
#X text 132 106 10% of the Amplitude;
#X obj 48 148 dac~;
#X text 134 149 DA Converter == Audio Output;
#X connect 0 0 1 0;
#X connect 1 0 5 0;
