#N canvas 572 104 521 346 10;
#X obj 39 221 *~ 0.1;
#X obj 39 248 dac~;
#X obj 39 196 *~;
#X floatatom 39 62 5 0 0 0 - - -, f 5;
#X obj 120 149 line~;
#X msg 120 110 1 500;
#X msg 163 110 0 500;
#X text 209 111 Arguments: Target and time to reach in ms;
#X obj 81 93 line;
#X msg 81 59 800 500;
#X msg 141 59 400 600;
#X obj 39 118 osc~ 440;
#X text 211 152 Fade in and fade out;
#X text 214 58 Set and fade pitch;
#X obj 214 15 bng 15 250 50 0 empty empty empty 17 7 0 10 -262144 -1
-1;
#X text 237 14 Use one bang to trigger both values.;
#X connect 0 0 1 0;
#X connect 0 0 1 1;
#X connect 2 0 0 0;
#X connect 3 0 11 0;
#X connect 4 0 2 1;
#X connect 5 0 4 0;
#X connect 6 0 4 0;
#X connect 8 0 11 0;
#X connect 9 0 8 0;
#X connect 10 0 8 0;
#X connect 11 0 2 0;
