#N canvas 652 170 574 463 10;
#X obj 39 331 *~ 0.1;
#X obj 39 358 dac~;
#X obj 39 306 *~;
#X obj 106 268 line~;
#X obj 38 13 tgl 15 0 empty empty empty 17 7 0 10 -262144 -1 -1 0 1
;
#X msg 38 33 \; pd dsp \$1;
#X obj 39 74 key;
#X obj 39 268 osc~ 440;
#X floatatom 62 146 5 0 0 0 - - -, f 5;
#X msg 154 238 0 200;
#N canvas 662 393 533 309 keytofreq 0;
#X obj 18 30 inlet;
#X msg 18 91 69;
#X msg 45 91 71;
#X msg 73 91 73;
#X msg 99 91 74;
#X msg 125 91 76;
#X msg 152 91 78;
#X msg 179 91 80;
#X msg 206 91 81;
#X obj 18 157 outlet;
#X obj 18 134 mtof;
#X obj 18 57 sel 113 119 101 114 116 122 117;
#X text 254 53 Select Keys:qwertzui;
#X text 254 90 Trigger MIDI Note Nr;
#X text 257 136 Convert MIDI Note Nr to frequency;
#X connect 0 0 11 0;
#X connect 1 0 10 0;
#X connect 2 0 10 0;
#X connect 3 0 10 0;
#X connect 4 0 10 0;
#X connect 5 0 10 0;
#X connect 6 0 10 0;
#X connect 7 0 10 0;
#X connect 8 0 10 0;
#X connect 10 0 9 0;
#X connect 11 0 1 0;
#X connect 11 1 2 0;
#X connect 11 2 3 0;
#X connect 11 3 4 0;
#X connect 11 4 5 0;
#X connect 11 5 6 0;
#X connect 11 6 7 0;
#X connect 11 7 8 0;
#X restore 39 187 pd keytofreq;
#X text 143 187 (MIDI Note) Number to Frequency Play: qwertzui for
C Major;
#X text 114 145 Get ASCII Code of Key pressed and released;
#X text 240 214 Attack Decay Envelope;
#X msg 106 239 1 200;
#X obj 39 96 t b f b;
#X obj 154 215 delay 200;
#X connect 0 0 1 0;
#X connect 0 0 1 1;
#X connect 2 0 0 0;
#X connect 3 0 2 1;
#X connect 4 0 5 0;
#X connect 6 0 15 0;
#X connect 7 0 2 0;
#X connect 8 0 10 0;
#X connect 9 0 3 0;
#X connect 10 0 7 0;
#X connect 14 0 3 0;
#X connect 15 0 16 0;
#X connect 15 1 8 0;
#X connect 15 2 14 0;
#X connect 16 0 9 0;
