#N canvas 777 108 903 819 10;
#X obj 526 18 tgl 15 0 empty empty empty 17 7 0 10 -262144 -1 -1 0
1;
#X msg 526 38 \; pd dsp \$1;
#X obj 120 767 dac~ 1 2;
#X obj 120 745 *~;
#X obj 173 745 *~;
#X obj 30 663 vsl 20 60 0 1 0 0 empty empty Volume 0 -9 0 10 -261682
-1 -1 0 1;
#N canvas 4 23 450 278 (subpatch) 0;
#X array channel1 11360 float 2;
#X coords 0 1 11360 -1 200 140 1;
#X restore 526 132 graph;
#N canvas 4 23 450 278 (subpatch) 0;
#X array channel2 11360 float 2;
#X coords 0 1 11360 -1 200 140 1;
#X restore 526 297 graph;
#X obj 120 68 bng 15 250 50 0 empty empty empty 17 7 0 10 -228856 -1
-1;
#X obj 120 98 openpanel;
#X msg 120 119 read -resize \$1 channel1 channel2;
#X text 526 81 Two Arrays needed to store each Audio Channel. So its
two arrays for a stereo soundfile.;
#X obj 120 197 soundfiler;
#X floatatom 154 220 12 0 0 0 - - -, f 12;
#X obj 120 267 expr 44100 / $f1;
#X obj 120 497 phasor~;
#X floatatom 154 292 12 0 0 0 - - -, f 12;
#X obj 120 553 *~;
#X obj 120 616 tabread4~ channel1;
#X obj 173 637 tabread4~ channel2;
#X obj 154 241 s totalsamples;
#X obj 138 526 r totalsamples;
#X obj 528 443 hsl 195 20 0 1 0 0 empty r_playbackposition empty -2
-8 0 10 -262144 -1 -1 0 1;
#X text 518 467 (Playbackposition \, value 0 to 1);
#X text 147 66 Open Soundfile.;
#N canvas 4 23 450 300 playbackposition 1;
#X obj 96 83 snapshot~;
#X floatatom 96 105 12 0 0 0 - - -, f 12;
#X obj 96 151 /;
#X obj 96 151 /;
#X floatatom 96 174 5 0 0 1 Playbackposition_Value - r_playbackposition
, f 5;
#X obj 114 127 r totalsamples;
#X obj 96 18 loadbang;
#X msg 96 40 1;
#X obj 96 62 metro 30;
#X obj 43 18 inlet~;
#X connect 0 0 1 0;
#X connect 1 0 2 0;
#X connect 2 0 4 0;
#X connect 5 0 2 1;
#X connect 6 0 7 0;
#X connect 7 0 8 0;
#X connect 8 0 0 0;
#X connect 9 0 0 0;
#X restore 219 582 pd playbackposition;
#X obj 157 376 hsl 128 20 -1 1 0 0 empty empty empty -2 -8 0 10 -232576
-1 -1 12700 1;
#X floatatom 154 401 5 0 0 0 - - -, f 5;
#X msg 154 353 3.88204;
#X obj 154 311 prepend set;
#X obj 175 333 bng 15 250 50 0 empty empty Play_(at_original_speed)
17 7 0 10 -4034 -1 -1;
#X text 297 379 Playback Speed and Direction;
#X msg 166 464 0;
#X msg 203 464 0.5;
#X msg 73 376 0;
#X obj 20 316 bng 15 250 50 0 empty empty Stop 17 7 0 10 -258113 -1
-1;
#X obj 20 336 t b b;
#X obj 73 353 bng 15 250 50 0 empty empty Pause 17 7 0 10 -257985 -1
-1;
#X text 242 464 Set the Phase of tabel readding.;
#X text 242 478 0 is Beginning \, 0.5 half \, etc.;
#X connect 0 0 1 0;
#X connect 3 0 2 0;
#X connect 4 0 2 1;
#X connect 5 0 3 1;
#X connect 5 0 4 1;
#X connect 8 0 9 0;
#X connect 9 0 10 0;
#X connect 10 0 12 0;
#X connect 12 0 13 0;
#X connect 12 0 14 0;
#X connect 13 0 20 0;
#X connect 14 0 15 0;
#X connect 14 0 16 0;
#X connect 15 0 17 0;
#X connect 16 0 29 0;
#X connect 17 0 18 0;
#X connect 17 0 19 0;
#X connect 17 0 25 0;
#X connect 18 0 3 0;
#X connect 19 0 4 0;
#X connect 21 0 17 1;
#X connect 26 0 27 0;
#X connect 27 0 15 0;
#X connect 28 0 26 0;
#X connect 29 0 28 0;
#X connect 30 0 28 0;
#X connect 32 0 15 1;
#X connect 33 0 15 1;
#X connect 34 0 15 0;
#X connect 35 0 36 0;
#X connect 36 0 32 0;
#X connect 36 1 34 0;
#X connect 37 0 34 0;
