#N canvas 645 23 983 1005 10;
#X obj 703 56 tgl 15 0 s_onoff r_onoff empty 17 7 0 10 -262144 -1 -1
0 1;
#X msg 703 76 \; pd dsp \$1;
#X obj 120 58 bng 15 250 50 0 s_openfile empty Open_Soundfile 17 7
0 10 -228856 -1 -1;
#X obj 272 51 hsl 195 20 0 1 0 0 s_playbackposition r_playbackposition
Playback_Position_Monitor -2 -8 0 10 -204786 -1 -1 0 1;
#N canvas 4 23 276 464 soundfilearrays 0;
#N canvas 4 23 450 278 (subpatch) 0;
#X array channel1 14136 float 2;
#X coords 0 1 14136 -1 200 140 1;
#X restore 16 32 graph;
#N canvas 4 23 450 278 (subpatch) 0;
#X array channel2 14136 float 2;
#X coords 0 1 14136 -1 200 140 1;
#X restore 16 197 graph;
#X obj 19 349 hsl 195 20 0 1 0 0 empty r_playbackposition empty -2
-8 0 10 -262144 -1 -1 0 1;
#X restore 703 110 pd soundfilearrays;
#N canvas 672 29 597 752 soundfileplayer 0;
#X obj 120 44 openpanel;
#X msg 120 65 read -resize \$1 channel1 channel2;
#X obj 120 23 r s_openfile;
#X obj 120 87 soundfiler;
#X floatatom 154 110 12 0 0 0 - - -, f 12;
#X obj 120 157 expr 44100 / $f1;
#X obj 120 487 phasor~;
#X floatatom 154 182 12 0 0 0 - - -, f 12;
#X obj 120 543 *~;
#X obj 120 606 tabread4~ channel1;
#X obj 173 627 tabread4~ channel2;
#X obj 154 131 s totalsamples;
#X obj 138 516 r totalsamples;
#N canvas 4 23 450 300 playbackposition 0;
#X obj 96 83 snapshot~;
#X floatatom 96 105 12 0 0 0 - - -, f 12;
#X obj 96 151 /;
#X obj 96 151 /;
#X floatatom 96 174 5 0 0 1 Playbackposition_Value - r_playbackposition
, f 5;
#X obj 114 127 r totalsamples;
#X obj 96 18 loadbang;
#X msg 96 40 1;
#X obj 96 62 metro 30;
#X obj 43 18 inlet~;
#X connect 0 0 1 0;
#X connect 1 0 2 0;
#X connect 2 0 4 0;
#X connect 5 0 2 1;
#X connect 6 0 7 0;
#X connect 7 0 8 0;
#X connect 8 0 0 0;
#X connect 9 0 0 0;
#X restore 219 572 pd playbackposition;
#X floatatom 154 340 5 0 0 0 - - -, f 5;
#X msg 154 250 3.11969;
#X msg 166 414 0;
#X msg 218 419 0;
#X obj 166 387 t b b;
#X obj 173 317 r s_play;
#X obj 218 396 r s_pause;
#X obj 166 362 r s_stop;
#X obj 165 272 s r_playbackspeed;
#X obj 165 293 r s_playbackspeed;
#X floatatom 311 421 5 0 0 0 - - -, f 5;
#X obj 311 398 r s_playbackphase;
#X obj 180 446 s r_playbackphase;
#X obj 173 226 r s_playatoriginalspeed;
#X obj 120 669 s~ playerout1;
#X obj 173 696 s~ playerout2;
#X obj 439 399 r playbackrandom;
#X floatatom 439 422 5 0 0 0 - - -, f 5;
#X obj 270 197 s speedinfluenzer;
#X msg 154 204 set \$1;
#X connect 0 0 1 0;
#X connect 1 0 3 0;
#X connect 2 0 0 0;
#X connect 3 0 4 0;
#X connect 3 0 5 0;
#X connect 4 0 11 0;
#X connect 5 0 6 0;
#X connect 5 0 7 0;
#X connect 6 0 8 0;
#X connect 7 0 32 0;
#X connect 7 0 33 0;
#X connect 8 0 9 0;
#X connect 8 0 10 0;
#X connect 8 0 13 0;
#X connect 9 0 28 0;
#X connect 10 0 29 0;
#X connect 12 0 8 1;
#X connect 14 0 6 0;
#X connect 15 0 22 0;
#X connect 15 0 14 0;
#X connect 16 0 6 1;
#X connect 16 0 26 0;
#X connect 17 0 6 0;
#X connect 18 0 16 0;
#X connect 18 1 17 0;
#X connect 19 0 14 0;
#X connect 20 0 17 0;
#X connect 21 0 18 0;
#X connect 23 0 14 0;
#X connect 24 0 6 1;
#X connect 25 0 24 0;
#X connect 27 0 15 0;
#X connect 30 0 31 0;
#X connect 31 0 6 1;
#X connect 33 0 15 0;
#X restore 703 130 pd soundfileplayer;
#X obj 120 103 bng 15 250 50 0 s_play empty Play_Continue 17 7 0 10
-4034 -1 -1;
#X obj 120 120 bng 15 250 50 0 s_pause empty Pause 17 7 0 10 -257985
-1 -1;
#X obj 120 137 bng 15 250 50 0 s_stop empty Stop 17 7 0 10 -258113
-1 -1;
#X obj 272 92 hsl 128 20 -1 1 0 0 s_playbackspeed r_playbackspeed Playback_Speed_and_Direction
-2 -8 0 10 -232576 -1 -1 6350 1;
#X obj 272 132 hsl 128 20 0 1 0 0 s_playbackphase r_playbackphase Playback_Phase
-2 -8 0 10 -203904 -1 -1 0 1;
#X obj 453 89 vsl 20 60 0 1 0 0 s_volume r_volume Volume 0 -9 0 10
-261682 -1 -1 0 1;
#X obj 120 86 bng 15 250 50 0 s_playatoriginalspeed r_playatoriginalspeed
Play_Original_File 17 7 0 10 -204786 -1 -1;
#N canvas 4 23 328 206 audio_out 0;
#X obj 50 145 dac~ 1 2;
#X obj 50 102 *~;
#X obj 103 102 *~;
#X obj 154 62 r s_volume;
#X obj 50 20 r~ fxout1;
#X obj 103 40 r~ fxout2;
#X obj 138 149 s~ to_record_1;
#X obj 149 128 s~ to_record_2;
#X connect 1 0 0 0;
#X connect 1 0 6 0;
#X connect 2 0 0 1;
#X connect 2 0 7 0;
#X connect 3 0 2 1;
#X connect 3 0 1 1;
#X connect 4 0 1 0;
#X connect 5 0 2 0;
#X restore 703 231 pd audio_out;
#X obj 119 336 bng 15 250 50 0 s_hip_reset empty empty 17 7 0 10 -262144
-1 -1;
#X obj 119 354 bng 15 250 50 0 s_lop_reset empty empty 17 7 0 10 -262144
-1 -1;
#X obj 142 336 hsl 128 15 50 10000 1 0 s_hip_freq r_hip_freq empty
-2 -8 0 10 -262144 -1 -1 0 1;
#X obj 142 354 hsl 128 15 20000 5 1 0 s_lop_freq r_lop_freq empty -2
-8 0 10 -262144 -1 -1 0 1;
#X obj 122 213 hsl 128 15 10000 0 0 0 s_vcf_freq r_vcf_freq empty -2
-8 0 10 -262144 -1 -1 0 1;
#X obj 122 231 hsl 128 15 1 15 0 0 s_vcf_q r_vcf_q empty -2 -8 0 10
-262144 -1 -1 0 1;
#X floatatom 119 269 5 0 300 1 VCF_LFO_Amount r_vcf_lfo_amount s_vcf_lfo_amount
, f 5;
#X floatatom 119 252 5 0 1000 1 VCF_LFO_Speed r_vcf_lfo_speed s_vcf_lfo_speed
, f 5;
#X obj 703 273 loadbang;
#X text 770 271 Init Values;
#X text 263 211 vcf bp Freq 0-10 kHz;
#X text 263 229 vcf bp Q 1-15;
#X text 119 189 VC Band Pass Filter FX;
#X text 115 310 Hi- and Lo-Pass Filter FX;
#X obj 157 441 bng 15 250 50 0 empty empty Trigger_Once 17 7 0 10 -262144
-1 -1;
#N canvas 4 23 450 416 playbackrandomizer 0;
#X obj 41 322 s playbackrandom;
#X obj 41 126 random 1000;
#X obj 41 148 / 1000;
#X floatatom 41 170 5 0 0 0 - - -, f 5;
#X obj 84 13 inlet;
#X obj 89 78 metro 100;
#X obj 89 102 bng 15 250 50 0 empty empty empty 17 7 0 10 -262144 -1
-1;
#X obj 15 14 inlet;
#X obj 149 12 inlet;
#X obj 199 12 inlet;
#X obj 41 198 + 0;
#X obj 249 12 inlet;
#X obj 74 271 line 0 20;
#X obj 75 240 pack f 20;
#X connect 1 0 2 0;
#X connect 2 0 3 0;
#X connect 3 0 10 0;
#X connect 4 0 1 0;
#X connect 5 0 6 0;
#X connect 6 0 1 0;
#X connect 7 0 5 0;
#X connect 8 0 5 1;
#X connect 9 0 1 1;
#X connect 10 0 13 0;
#X connect 11 0 10 1;
#X connect 12 0 0 0;
#X connect 13 0 12 0;
#X restore 121 518 pd playbackrandomizer;
#X obj 121 423 tgl 15 0 empty r_pb_rand_onoff On/Off 17 7 0 10 -204800
-1 -1 0 1;
#X floatatom 193 460 5 1 10000 1 Speed r_pb_rand_speed -, f 5;
#X floatatom 229 478 5 1 1000 1 Spread r_pb_rand_spread -, f 5;
#X obj 268 496 hsl 50 15 0 1 0 0 empty r_pb_rand_offset Start_Offset
55 7 0 10 -262144 -1 -1 0 1;
#N canvas 350 538 604 343 playbackspeedrandomizer 0;
#X obj 268 200 s r_playbackspeed;
#X obj 268 145 line;
#X obj 268 119 pack f f;
#X floatatom 321 72 5 0 0 0 - - -, f 5;
#X obj 218 30 inlet;
#X obj 268 30 inlet;
#X obj 321 30 inlet;
#X obj 65 17 inlet;
#X floatatom 64 108 5 0 0 0 - - -, f 5;
#X obj 74 80 r speedinfluenzer;
#X obj 64 132 pack;
#X msg 107 105 300;
#X obj 61 46 t b b b;
#X obj 218 75 f;
#X obj 33 182 s r_speed_influ_fast;
#X obj 40 206 s r_speed_influ_slow;
#X obj 268 77 f;
#X obj 321 91 t b b f;
#X obj 7 247 s r_speed_influ_time;
#X msg 7 221 300;
#X connect 1 0 0 0;
#X connect 2 0 1 0;
#X connect 3 0 17 0;
#X connect 4 0 13 0;
#X connect 5 0 16 0;
#X connect 6 0 3 0;
#X connect 7 0 12 0;
#X connect 8 0 10 0;
#X connect 8 0 14 0;
#X connect 8 0 15 0;
#X connect 9 0 8 0;
#X connect 10 0 2 0;
#X connect 11 0 10 1;
#X connect 12 0 19 0;
#X connect 12 1 8 0;
#X connect 12 2 11 0;
#X connect 13 0 2 0;
#X connect 16 0 2 0;
#X connect 17 0 2 0;
#X connect 17 2 2 1;
#X connect 19 0 18 0;
#X restore 121 688 pd playbackspeedrandomizer;
#X obj 180 607 vsl 20 50 -100 100 0 0 s_speed_influ_fast r_speed_influ_fast
Speed_Hi 0 -9 0 10 -262144 -1 -1 2450 1;
#X obj 240 607 vsl 20 50 -1 1 0 0 s_speed_influ_slow r_speed_influ_slow
Speed_Lo 0 -9 0 10 -262144 -1 -1 2450 1;
#X obj 300 607 vsl 20 50 1 2000 0 0 s_speed_influ_time r_speed_influ_time
Change_Time 0 -9 0 10 -262144 -1 -1 733 1;
#X floatatom 180 665 5 0 0 0 - - -, f 5;
#X floatatom 240 665 5 0 0 0 - - -, f 5;
#X floatatom 300 665 5 0 0 0 - - -, f 5;
#X text 117 400 Playback Phase Randomizer;
#X text 118 568 Playback Speed Influenzer;
#X obj 121 605 bng 15 250 50 0 empty r_speed_influ_reset Reset 0 -7
0 10 -262144 -1 -1;
#X obj 120 39 bng 15 250 50 0 r_onoff empty Audio_On/Off 17 7 0 10
-228856 -1 -1;
#X text 284 355 lop Freq 20 kHz - 5 Hz;
#X text 284 335 hip Freq 0-10 kHz;
#N canvas 554 464 714 473 env_follow_routing 0;
#X obj 16 86 r env_follow_prefx;
#X obj 248 85 r env_follow_postfx;
#X obj 16 188 * 1;
#X obj 248 187 * 1;
#X floatatom 34 168 5 0 1 0 - - -, f 5;
#X floatatom 266 168 5 0 1 0 - - -, f 5;
#X text 76 168 Amount;
#X text 307 169 Amount;
#X obj 27 116 s r_env_follow_prefx_view;
#X obj 261 111 s r_env_follow_postfx_view;
#X obj 34 -1 inlet;
#X obj 266 -1 inlet;
#X obj 51 29 sel 0.01;
#X msg 51 51 0;
#X obj 281 29 sel 0.01;
#X msg 281 51 0;
#X obj 27 226 s r_env_follow_prefx_level;
#X obj 261 221 s r_env_follow_postfx_level;
#X text 113 272 implementation here!!!;
#X obj 303 319 s env_test;
#X connect 0 0 2 0;
#X connect 0 0 8 0;
#X connect 1 0 3 0;
#X connect 1 0 9 0;
#X connect 2 0 16 0;
#X connect 3 0 17 0;
#X connect 3 0 19 0;
#X connect 4 0 2 1;
#X connect 5 0 3 1;
#X connect 10 0 4 0;
#X connect 10 0 12 0;
#X connect 11 0 5 0;
#X connect 11 0 14 0;
#X connect 12 0 13 0;
#X connect 13 0 4 0;
#X connect 14 0 15 0;
#X connect 15 0 5 0;
#X restore 121 873 pd env_follow_routing;
#N canvas 4 23 598 613 audio_filter_fx 0;
#X obj 64 95 r~ playerout1;
#X obj 166 95 r~ playerout2;
#X obj 64 360 s~ fxout1;
#X obj 202 358 s~ fxout2;
#X text 435 366 Build FX here;
#N canvas 412 403 428 437 hip_lop_filter_fx 0;
#X obj 19 14 inlet~;
#X obj 70 14 inlet~;
#X obj 13 383 outlet~;
#X obj 111 381 outlet~;
#X obj 163 157 r s_lop_freq;
#X obj 126 26 r s_hip_freq;
#X obj 110 234 lop~;
#X obj 19 235 lop~;
#X obj 19 111 hip~;
#X obj 70 111 hip~;
#X msg 138 69 0;
#X msg 177 204 20000;
#X obj 138 91 s r_hip_freq;
#X obj 177 226 s r_lop_freq;
#X obj 138 48 r s_hip_reset;
#X obj 177 181 r s_lop_reset;
#X connect 0 0 8 0;
#X connect 1 0 9 0;
#X connect 4 0 6 1;
#X connect 4 0 7 1;
#X connect 5 0 8 1;
#X connect 5 0 9 1;
#X connect 6 0 3 0;
#X connect 7 0 2 0;
#X connect 8 0 7 0;
#X connect 9 0 6 0;
#X connect 10 0 8 1;
#X connect 10 0 9 1;
#X connect 10 0 12 0;
#X connect 11 0 6 1;
#X connect 11 0 7 1;
#X connect 11 0 13 0;
#X connect 14 0 10 0;
#X connect 15 0 11 0;
#X restore 64 202 pd hip_lop_filter_fx;
#N canvas 194 246 428 437 vc_filter_fx 0;
#X obj 28 14 inlet~;
#X obj 88 13 inlet~;
#X obj 28 383 outlet~;
#X obj 88 383 outlet~;
#X obj 138 250 sig~;
#X obj 138 227 r s_vcf_freq;
#X obj 180 277 r s_vcf_q;
#X obj 28 317 vcf~ 1;
#X obj 88 317 vcf~ 1;
#X obj 140 146 osc~ 5;
#X obj 140 173 *~;
#X obj 140 97 r s_vcf_lfo_speed;
#X obj 190 122 r s_vcf_lfo_amount;
#X obj 190 146 * 1000;
#X connect 0 0 7 0;
#X connect 1 0 8 0;
#X connect 4 0 7 1;
#X connect 4 0 8 1;
#X connect 5 0 4 0;
#X connect 6 0 7 2;
#X connect 6 0 8 2;
#X connect 7 0 2 0;
#X connect 8 0 3 0;
#X connect 9 0 10 0;
#X connect 10 0 7 1;
#X connect 10 0 8 1;
#X connect 11 0 9 0;
#X connect 12 0 13 0;
#X connect 13 0 10 1;
#X restore 64 144 pd vc_filter_fx;
#X obj 54 380 s~ to_env_follow1;
#X obj 192 378 s~ to_env_follow2;
#N canvas 54 56 675 493 envelope_follower 0;
#X floatatom 33 226 5 0 0 0 - - -, f 5;
#X obj 16 101 env~ 256 2;
#X obj 16 77 *~ 0.3;
#X obj 36 245 hsl 128 15 1.27 100 1 0 empty empty empty -2 -8 0 10
-262144 -1 -1 0 1;
#X obj 16 286 s env_follow_prefx;
#X floatatom 34 134 5 0 1 0 - - -, f 5;
#X obj 16 156 * 1;
#X floatatom 264 235 5 0 0 0 - - -, f 5;
#X obj 246 101 env~ 256 2;
#X obj 246 77 *~ 0.3;
#X obj 267 254 hsl 128 15 1.27 100 1 0 empty empty empty -2 -8 0 10
-262144 -1 -1 0 1;
#X floatatom 264 134 5 0 1 0 - - -, f 5;
#X obj 246 156 * 1;
#X obj 247 282 s env_follow_postfx;
#X obj 246 23 r~ to_env_follow1;
#X obj 261 44 r~ to_env_follow2;
#X obj 246 214 line;
#X obj 246 187 pack f 10;
#X obj 16 178 pack f 5;
#X obj 16 200 line;
#X obj 16 20 inlet~;
#X obj 36 40 inlet~;
#X connect 0 0 3 0;
#X connect 1 0 6 0;
#X connect 2 0 1 0;
#X connect 5 0 6 1;
#X connect 6 0 18 0;
#X connect 7 0 10 0;
#X connect 8 0 12 0;
#X connect 9 0 8 0;
#X connect 11 0 12 1;
#X connect 12 0 17 0;
#X connect 14 0 9 0;
#X connect 15 0 9 0;
#X connect 16 0 7 0;
#X connect 16 0 13 0;
#X connect 17 0 16 0;
#X connect 18 0 19 0;
#X connect 19 0 0 0;
#X connect 19 0 4 0;
#X connect 20 0 2 0;
#X connect 21 0 2 0;
#X restore 347 153 pd envelope_follower;
#X connect 0 0 6 0;
#X connect 0 0 9 0;
#X connect 1 0 6 1;
#X connect 1 0 9 1;
#X connect 5 0 2 0;
#X connect 5 0 7 0;
#X connect 5 1 3 0;
#X connect 5 1 8 0;
#X connect 6 0 5 0;
#X connect 6 1 5 1;
#X restore 703 171 pd audio_filter_fx;
#X text 116 737 Envelope Follower;
#X msg 703 302 \; r_vcf_freq 10000 \; r_vcf_q 1 \; r_vcf_lfo_speed
0 \; r_vcf_lfo_amount 0 \; r_hip_freq 0 \; r_lop_freq 20000 \; r_pb_rand_onoff
0 \; r_pb_rand_speed 100 \; r_pb_rand_spread 1000 \; r_pb_rand_offset
0 \; r_speed_influ_time 100 \; r_speed_influ_reset bang;
#X obj 124 848 hsl 50 15 0.01 1 1 0 empty empty PreFX_Amount -2 -8
0 10 -262144 -1 -1 0 1;
#X obj 268 848 hsl 50 15 0.01 1 1 0 empty empty PostFX_Amount -2 -8
0 10 -262144 -1 -1 0 1;
#X obj 118 764 cnv 15 200 60 empty empty Input_Monitor 4 10 0 10 -204786
-66577 0;
#X obj 128 803 hsl 80 15 1.27 100 1 0 empty r_env_follow_prefx_view
PreFX_Volume -2 -8 0 10 -262144 -1 -1 0 1;
#X obj 228 803 hsl 80 15 1.27 100 1 0 empty r_env_follow_postfx_view
PostFX_Volume -2 -8 0 10 -262144 -1 -1 0 1;
#X obj 121 900 cnv 15 200 60 empty empty FX_Amount_Monitor 4 10 0 10
-155173 -66577 0;
#X obj 131 939 hsl 80 15 1.27 100 1 0 empty r_env_follow_prefx_level
PreFX_Level -2 -8 0 10 -262144 -1 -1 0 1;
#X obj 231 939 hsl 80 15 1.27 100 1 0 empty r_env_follow_postfx_level
PostFX_Level -2 -8 0 10 -262144 -1 -1 0 1;
#X obj 702 552 bng 15 250 50 0 empty empty REC 17 7 0 10 -258113 -1
-1;
#X obj 774 552 bng 15 250 50 0 empty empty STOP_REC 17 7 0 10 -261234
-1 -1;
#N canvas 115 340 537 527 hard_disk_recorder 0;
#X msg 108 169 start;
#X msg 125 197 stop;
#X msg 272 79 1;
#X floatatom 233 128 5 0 0 0 - - -, f 5;
#X obj 262 105 + 1;
#X obj 233 104 f;
#X obj 101 9 inlet;
#X obj 182 10 inlet;
#X msg 233 164 open -bytes 3 recording/soundfile_\$1.wav;
#X obj 122 425 writesf~ 2;
#X obj 218 278 r~ to_record_2;
#X obj 180 258 r~ to_record_1;
#X obj 180 384 *~ 0;
#X obj 218 385 *~ 0;
#X obj 101 44 t b b b b;
#X obj 248 363 line 0 2;
#X msg 248 341 1 10;
#X msg 298 341 0 10;
#X obj 182 43 t b b;
#X obj 272 58 loadbang;
#X obj 273 11 inlet;
#X obj 15 447 outlet;
#X msg 16 397 1, f 1;
#X msg 36 397 0, f 1;
#X obj 15 419 metro 350;
#X text 12 472 Recorder Lamp;
#X text 205 426 Recorder;
#X text 329 276 Grab Audio from Audio_Out;
#X text 349 188 24Bit .wav Soundfile;
#X text 321 364 Prevent Clicking;
#X text 282 127 New Number for each File;
#X connect 0 0 9 0;
#X connect 0 0 22 0;
#X connect 1 0 9 0;
#X connect 1 0 23 0;
#X connect 2 0 5 1;
#X connect 3 0 8 0;
#X connect 4 0 5 1;
#X connect 5 0 3 0;
#X connect 5 0 4 0;
#X connect 6 0 14 0;
#X connect 7 0 18 0;
#X connect 8 0 9 0;
#X connect 10 0 13 0;
#X connect 11 0 12 0;
#X connect 12 0 9 0;
#X connect 13 0 9 1;
#X connect 14 1 0 0;
#X connect 14 2 5 0;
#X connect 14 3 16 0;
#X connect 15 0 13 1;
#X connect 15 0 12 1;
#X connect 16 0 15 0;
#X connect 18 0 17 0;
#X connect 18 1 1 0;
#X connect 19 0 2 0;
#X connect 20 0 2 0;
#X connect 22 0 24 0;
#X connect 23 0 24 0;
#X connect 24 0 21 0;
#X restore 702 578 pd hard_disk_recorder;
#X text 700 513 Recorder;
#X text 250 736 Not implemented yet!!!;
#X obj 846 553 bng 15 250 50 0 empty empty Reset_Filename 17 7 0 10
-262144 -1 -1;
#X obj 702 603 bng 15 300 80 0 empty empty RECORDING 17 7 0 10 -261234
-258113 -1;
#X connect 0 0 1 0;
#X connect 22 0 50 0;
#X connect 28 0 29 1;
#X connect 30 0 29 0;
#X connect 31 0 29 2;
#X connect 32 0 29 3;
#X connect 33 0 29 4;
#X connect 35 0 38 0;
#X connect 36 0 39 0;
#X connect 37 0 40 0;
#X connect 38 0 34 1;
#X connect 39 0 34 2;
#X connect 40 0 34 3;
#X connect 43 0 34 0;
#X connect 51 0 47 0;
#X connect 52 0 47 1;
#X connect 59 0 61 0;
#X connect 60 0 61 1;
#X connect 61 0 65 0;
#X connect 64 0 61 2;
