#N canvas 603 281 1003 702 10;
#X floatatom 25 27 5 0 0 0 - - -, f 5;
#X floatatom 25 326 5 0 0 0 - - -, f 5;
#X obj 38 60 value x;
#X obj 25 89 expr x \; x * 2 \; x * 3 \; x * 4 \; x * 5 \; x * 6 \;
x * 7 \; x * 8 \; x * 9 \; x * 10 \; x * 11 \; x * 12 \; x * 13 \;
x * 14 \; x * 15 \; x * 16 \;, f 94;
#X obj 25 345 osc~;
#X obj 25 389 *~ 0;
#X obj 50 366 r 1_vol;
#X obj 25 411 throw~ all_osc;
#X floatatom 68 436 5 0 0 0 - - -, f 5;
#X obj 68 455 osc~;
#X obj 68 499 *~ 0;
#X obj 68 521 throw~ all_osc;
#X obj 93 476 r 2_vol;
#X floatatom 113 556 5 0 0 0 - - -, f 5;
#X obj 113 575 osc~;
#X obj 113 619 *~ 0;
#X obj 113 641 throw~ all_osc;
#X obj 138 596 r 3_vol;
#X floatatom 156 326 5 0 0 0 - - -, f 5;
#X obj 156 345 osc~;
#X obj 156 389 *~ 0;
#X obj 156 411 throw~ all_osc;
#X obj 181 366 r 4_vol;
#X floatatom 200 436 5 0 0 0 - - -, f 5;
#X obj 200 455 osc~;
#X obj 200 499 *~ 0;
#X obj 200 521 throw~ all_osc;
#X obj 225 476 r 5_vol;
#X floatatom 243 556 5 0 0 0 - - -, f 5;
#X obj 243 575 osc~;
#X obj 243 619 *~ 0;
#X obj 243 641 throw~ all_osc;
#X obj 268 596 r 6_vol;
#X floatatom 287 326 5 0 0 0 - - -, f 5;
#X obj 287 345 osc~;
#X obj 287 389 *~ 0;
#X obj 287 411 throw~ all_osc;
#X floatatom 330 436 5 0 0 0 - - -, f 5;
#X obj 330 455 osc~;
#X obj 330 499 *~ 0;
#X obj 330 521 throw~ all_osc;
#X floatatom 377 556 5 0 0 0 - - -, f 5;
#X obj 377 575 osc~;
#X obj 377 619 *~ 0;
#X obj 377 641 throw~ all_osc;
#X floatatom 418 326 5 0 0 0 - - -, f 5;
#X obj 418 345 osc~;
#X obj 418 389 *~ 0;
#X obj 418 411 throw~ all_osc;
#X floatatom 464 436 5 0 0 0 - - -, f 5;
#X obj 464 455 osc~;
#X obj 464 499 *~ 0;
#X obj 464 521 throw~ all_osc;
#X floatatom 507 556 5 0 0 0 - - -, f 5;
#X obj 507 575 osc~;
#X obj 507 619 *~ 0;
#X obj 507 641 throw~ all_osc;
#X floatatom 549 326 5 0 0 0 - - -, f 5;
#X obj 549 345 osc~;
#X obj 549 389 *~ 0;
#X obj 549 411 throw~ all_osc;
#X floatatom 592 436 5 0 0 0 - - -, f 5;
#X obj 592 455 osc~;
#X obj 592 499 *~ 0;
#X obj 592 521 throw~ all_osc;
#X floatatom 637 556 5 0 0 0 - - -, f 5;
#X obj 637 575 osc~;
#X obj 637 619 *~ 0;
#X obj 637 641 throw~ all_osc;
#X floatatom 680 326 5 0 0 0 - - -, f 5;
#X obj 680 345 osc~;
#X obj 680 389 *~ 0;
#X obj 680 411 throw~ all_osc;
#X obj 312 366 r 7_vol;
#X obj 355 476 r 8_vol;
#X obj 402 596 r 9_vol;
#X obj 443 366 r 10_vol;
#X obj 489 476 r 11_vol;
#X obj 532 596 r 12_vol;
#X obj 574 366 r 13_vol;
#X obj 617 476 r 14_vol;
#X obj 662 596 r 15_vol;
#X obj 705 366 r 16_vol;
#X connect 0 0 2 0;
#X connect 0 0 3 0;
#X connect 1 0 4 0;
#X connect 3 0 1 0;
#X connect 3 1 8 0;
#X connect 3 2 13 0;
#X connect 3 3 18 0;
#X connect 3 4 23 0;
#X connect 3 5 28 0;
#X connect 3 6 33 0;
#X connect 3 7 37 0;
#X connect 3 8 41 0;
#X connect 3 9 45 0;
#X connect 3 10 49 0;
#X connect 3 11 53 0;
#X connect 3 12 57 0;
#X connect 3 13 61 0;
#X connect 3 14 65 0;
#X connect 3 15 69 0;
#X connect 4 0 5 0;
#X connect 5 0 7 0;
#X connect 6 0 5 1;
#X connect 8 0 9 0;
#X connect 9 0 10 0;
#X connect 10 0 11 0;
#X connect 12 0 10 1;
#X connect 13 0 14 0;
#X connect 14 0 15 0;
#X connect 15 0 16 0;
#X connect 17 0 15 1;
#X connect 18 0 19 0;
#X connect 19 0 20 0;
#X connect 20 0 21 0;
#X connect 22 0 20 1;
#X connect 23 0 24 0;
#X connect 24 0 25 0;
#X connect 25 0 26 0;
#X connect 27 0 25 1;
#X connect 28 0 29 0;
#X connect 29 0 30 0;
#X connect 30 0 31 0;
#X connect 32 0 30 1;
#X connect 33 0 34 0;
#X connect 34 0 35 0;
#X connect 35 0 36 0;
#X connect 37 0 38 0;
#X connect 38 0 39 0;
#X connect 39 0 40 0;
#X connect 41 0 42 0;
#X connect 42 0 43 0;
#X connect 43 0 44 0;
#X connect 45 0 46 0;
#X connect 46 0 47 0;
#X connect 47 0 48 0;
#X connect 49 0 50 0;
#X connect 50 0 51 0;
#X connect 51 0 52 0;
#X connect 53 0 54 0;
#X connect 54 0 55 0;
#X connect 55 0 56 0;
#X connect 57 0 58 0;
#X connect 58 0 59 0;
#X connect 59 0 60 0;
#X connect 61 0 62 0;
#X connect 62 0 63 0;
#X connect 63 0 64 0;
#X connect 65 0 66 0;
#X connect 66 0 67 0;
#X connect 67 0 68 0;
#X connect 69 0 70 0;
#X connect 70 0 71 0;
#X connect 71 0 72 0;
#X connect 73 0 35 1;
#X connect 74 0 39 1;
#X connect 75 0 43 1;
#X connect 76 0 47 1;
#X connect 77 0 51 1;
#X connect 78 0 55 1;
#X connect 79 0 59 1;
#X connect 80 0 63 1;
#X connect 81 0 67 1;
#X connect 82 0 71 1;
