#N canvas 356 207 539 221 10;
#X obj 240 99 bng 15 250 50 0 s_save_btn r_save_btn Save 17 7 0 10
-258113 -1 -1;
#X obj 240 116 bng 15 250 50 0 s_load_btn r_load_btn Load 17 7 0 10
-4034 -1 -1;
#X floatatom 21 101 5 0 0 1 Value1a r_value1a s_value1a, f 5;
#X floatatom 21 118 5 0 0 1 Value1b r_value1b s_value1b, f 5;
#X text 19 82 Instance1;
#X floatatom 137 101 5 0 0 1 Value2a r_value2a s_value2a, f 5;
#X floatatom 137 118 5 0 0 1 Value2b r_value2b s_value2b, f 5;
#X text 134 82 Instance2;
#X floatatom 240 83 5 1 1000 1 Preset_Nr r_preset_nr s_preset_nr,
f 5;
#X obj 240 66 bng 15 250 50 0 s_default r_default Init 17 7 0 10 -191407
-1 -1;
#N canvas 4 498 604 199 load_preset 0;
#X obj 71 66 route instance1 instance2;
#X obj 71 14 r s_preset_manager;
#N canvas 4 23 467 212 instance1_load 0;
#X obj 17 114 s r_value1a;
#X obj 89 89 s r_value1b;
#X obj 17 49 route value1a value1b;
#X obj 17 21 inlet;
#X connect 2 0 0 0;
#X connect 2 1 1 0;
#X connect 3 0 2 0;
#X restore 71 128 pd instance1_load;
#N canvas 4 23 451 202 instance2_load 0;
#X obj 37 59 unpack f f;
#X obj 37 85 s r_value2a;
#X obj 104 107 s r_value2b;
#X obj 37 31 inlet;
#X connect 0 0 1 0;
#X connect 0 1 2 0;
#X connect 3 0 0 0;
#X restore 157 104 pd instance2_load;
#X connect 0 0 2 0;
#X connect 0 1 3 0;
#X connect 1 0 0 0;
#X restore 386 117 pd load_preset;
#N canvas 243 366 794 393 preset_manager 0;
#X obj 52 18 r r_preset_manager;
#X obj 403 333 s s_preset_manager;
#X obj 194 189 f;
#X obj 52 95 list prepend add;
#X obj 52 117 list trim;
#X obj 52 255 textfile;
#X msg 194 212 write presets/preset_\$1.txt;
#X msg 69 179 clear;
#X obj 194 92 t b b b;
#X obj 217 123 s safe_trigger;
#X msg 435 146 read presets/preset_\$1.txt \, rewind;
#X obj 403 279 textfile;
#X obj 403 247 until;
#X obj 403 90 t b b;
#X obj 435 123 f;
#X obj 450 195 r s_default;
#X obj 450 217 t b b;
#X msg 482 240 read presets/preset_0_init.txt \, rewind;
#X obj 403 67 r s_load_btn;
#X obj 212 162 r s_preset_nr;
#X obj 453 96 r s_preset_nr;
#X obj 194 69 r s_save_btn;
#X connect 0 0 3 0;
#X connect 2 0 6 0;
#X connect 3 0 4 0;
#X connect 4 0 5 0;
#X connect 6 0 5 0;
#X connect 7 0 5 0;
#X connect 8 0 2 0;
#X connect 8 1 9 0;
#X connect 8 2 7 0;
#X connect 10 0 11 0;
#X connect 11 0 1 0;
#X connect 11 1 12 1;
#X connect 12 0 11 0;
#X connect 13 0 12 0;
#X connect 13 1 14 0;
#X connect 14 0 10 0;
#X connect 15 0 16 0;
#X connect 16 0 12 0;
#X connect 16 1 17 0;
#X connect 17 0 11 0;
#X connect 18 0 13 0;
#X connect 19 0 2 1;
#X connect 20 0 14 1;
#X connect 21 0 8 0;
#X restore 386 70 pd preset_manager;
#N canvas 396 145 258 194 save_preset 0;
#N canvas 890 154 450 323 instance2_save 0;
#X obj 23 167 f;
#X obj 147 167 f;
#X obj 23 255 list trim;
#X obj 23 233 list prepend instance2;
#X obj 41 142 r s_value2a;
#X obj 165 141 r s_value2b;
#X obj 23 21 r safe_trigger;
#X obj 23 44 t b b;
#X obj 23 190 pack f f;
#X obj 23 289 s r_preset_manager;
#X connect 0 0 8 0;
#X connect 1 0 8 1;
#X connect 2 0 9 0;
#X connect 3 0 2 0;
#X connect 4 0 0 1;
#X connect 5 0 1 1;
#X connect 6 0 7 0;
#X connect 7 0 0 0;
#X connect 7 1 1 0;
#X connect 8 0 3 0;
#X restore 27 51 pd instance2_save;
#N canvas 630 247 544 300 instance1_save 0;
#X obj 24 100 f;
#X obj 188 100 f;
#X obj 24 227 list trim;
#X obj 24 205 list prepend instance1;
#X obj 42 78 r s_value1a;
#X obj 206 78 r s_value1b;
#X obj 24 122 list prepend value1a;
#X obj 188 121 list prepend value1b;
#X obj 24 13 r safe_trigger;
#X obj 24 263 s r_preset_manager;
#X connect 0 0 6 0;
#X connect 1 0 7 0;
#X connect 2 0 9 0;
#X connect 3 0 2 0;
#X connect 4 0 0 1;
#X connect 5 0 1 1;
#X connect 6 0 3 0;
#X connect 7 0 3 0;
#X connect 8 0 0 0;
#X connect 8 0 1 0;
#X restore 27 31 pd instance1_save;
#X text 159 30 singles;
#X text 160 52 lists;
#X restore 386 93 pd save_preset;
#X coords 0 0 1 1 85 60 0;
