#N canvas 684 441 961 475 10;
#N canvas 4 36 751 436 safe_preset 1;
#X text 463 37 Global Trigger for saving!;
#X obj 24 170 f;
#X obj 188 170 f;
#X obj 463 170 f;
#X obj 586 178 f;
#X obj 127 273 list trim;
#X obj 519 275 list trim;
#X text 132 115 Instance 1;
#X text 559 107 Instance 2;
#X obj 127 251 list prepend instance1;
#X obj 519 253 list prepend instance2;
#X obj 42 145 r s_value1a;
#X obj 207 146 r s_value1b;
#X obj 481 145 r s_value2a;
#X obj 605 145 r s_value2b;
#X obj 24 192 list prepend value1a;
#X text 215 171 Pre-Store values to safe;
#X text 453 360 Send to global preset manager;
#X obj 315 360 s r_preset_manager;
#X obj 352 38 r safe_trigger;
#X obj 188 191 list prepend value1b;
#X obj 519 230 pack f f;
#X obj 463 97 t b b;
#X connect 1 0 15 0;
#X connect 2 0 20 0;
#X connect 3 0 21 0;
#X connect 4 0 21 1;
#X connect 5 0 18 0;
#X connect 6 0 18 0;
#X connect 9 0 5 0;
#X connect 10 0 6 0;
#X connect 11 0 1 1;
#X connect 12 0 2 1;
#X connect 13 0 3 1;
#X connect 14 0 4 1;
#X connect 15 0 9 0;
#X connect 19 0 1 0;
#X connect 19 0 2 0;
#X connect 19 0 22 0;
#X connect 20 0 9 0;
#X connect 21 0 10 0;
#X connect 22 0 3 0;
#X connect 22 1 4 0;
#X restore 461 152 pd safe_preset;
#N canvas 4 498 620 245 load_preset 0;
#X obj 71 146 s r_value1a;
#X obj 143 166 s r_value1b;
#X obj 71 66 route instance1 instance2;
#X obj 71 118 route value1a value1b;
#X text 256 67 Distribute Instance;
#X text 242 118 Distribute Values;
#X obj 389 119 unpack f f;
#X obj 389 145 s r_value2a;
#X obj 456 167 s r_value2b;
#X obj 71 14 r s_preset_manager;
#X text 212 17 Get the whole preset from manager.;
#X connect 2 0 3 0;
#X connect 2 1 6 0;
#X connect 3 0 0 0;
#X connect 3 1 1 0;
#X connect 6 0 7 0;
#X connect 6 1 8 0;
#X connect 9 0 2 0;
#X restore 461 187 pd load_preset;
#X obj 518 90 bng 15 250 50 0 empty empty empty 17 7 0 10 -258113 -1
-1;
#X obj 576 90 bng 15 250 50 0 empty empty empty 17 7 0 10 -4034 -1
-1;
#X floatatom 21 142 5 0 0 0 - - -, f 5;
#X floatatom 110 142 5 0 0 0 - - -, f 5;
#X text 67 50 Instance1;
#X floatatom 254 142 5 0 0 0 - r_value2a s_value2a, f 5;
#X floatatom 324 142 5 0 0 0 - r_value2b s_value2b, f 5;
#X text 262 48 Instance2;
#X text 20 75 Value1a;
#X text 110 77 Value1b;
#X text 238 78 Value2a;
#X text 307 77 Value2b;
#X obj 21 104 r r_value1a;
#X obj 110 104 r r_value1b;
#X obj 21 168 s s_value1a;
#X obj 110 168 s s_value1b;
#X text 580 150 Collect every value to safe in one place:;
#X text 580 186 Distribute every value to load in one place:;
#X text 541 90 Safe;
#X text 599 91 Load;
#X text 21 254 Save single values \, using s and r objects;
#X text 22 329 Save list of several values and using the s and r function
of the objects itself.;
#X text 21 270 Good for single Values.;
#X text 22 360 Good for a list of values.;
#N canvas 276 474 984 393 preset_manager 0;
#X obj 51 12 r r_preset_manager;
#X obj 551 343 s s_preset_manager;
#X obj 179 217 f;
#X obj 51 238 list prepend add;
#X obj 51 260 list trim;
#X obj 51 357 textfile;
#X msg 179 240 write presets/preset_\$1.txt;
#X msg 415 269 clear;
#X obj 369 143 t b b b;
#X obj 392 174 s safe_trigger;
#X obj 369 68 inlet;
#X text 368 49 SAFE!!!;
#X text 550 38 LOAD!!!;
#X obj 551 61 inlet;
#X msg 583 142 read presets/preset_\$1.txt \, rewind;
#X obj 551 280 textfile;
#X obj 551 248 until;
#X obj 551 91 t b b;
#X obj 583 119 f;
#X obj 273 71 inlet;
#X floatatom 273 104 5 0 0 0 - - -, f 5;
#X text 224 51 Preset Slot Nr;
#X text 621 267 (Sends a bang after reading);
#X text 617 239 (Does reading until gets a bang;
#X text 692 342 Send everything from one saved state.;
#X text 188 11 Receive everything to be saved at one place!;
#X obj 641 169 r s_default;
#X obj 641 191 t b b;
#X msg 673 214 read presets/preset_0_init.txt \, rewind;
#X connect 0 0 3 0;
#X connect 2 0 6 0;
#X connect 3 0 4 0;
#X connect 4 0 5 0;
#X connect 6 0 5 0;
#X connect 7 0 5 0;
#X connect 8 0 2 0;
#X connect 8 1 9 0;
#X connect 8 2 7 0;
#X connect 10 0 8 0;
#X connect 13 0 17 0;
#X connect 14 0 15 0;
#X connect 15 0 1 0;
#X connect 15 1 16 1;
#X connect 16 0 15 0;
#X connect 17 0 16 0;
#X connect 17 1 18 0;
#X connect 18 0 14 0;
#X connect 19 0 2 1;
#X connect 19 0 20 0;
#X connect 19 0 18 1;
#X connect 26 0 27 0;
#X connect 27 0 16 0;
#X connect 27 1 28 0;
#X connect 28 0 15 0;
#X restore 460 121 pd preset_manager;
#X floatatom 460 71 5 1 1000 0 - - -, f 5;
#X text 502 70 Preset Slot Number;
#X text 22 238 Instance 1:;
#X text 22 313 Instance 2:;
#X obj 648 91 bng 15 250 50 0 s_default r_default empty 17 7 0 10 -191407
-1 -1;
#X text 671 90 Recall Init Value;
#X connect 2 0 26 1;
#X connect 3 0 26 2;
#X connect 4 0 16 0;
#X connect 5 0 17 0;
#X connect 14 0 4 0;
#X connect 15 0 5 0;
#X connect 27 0 26 0;
