#N struct 1100-grob-lib-x float x float y array numbers 1100-num-x
;
#N struct 1100-num-x float x float y;
#N struct 1103-grob-lib-x float x float y array numbers 1103-num-x
;
#N struct 1103-num-x float x float y;
#N canvas 0 23 1276 755 10;
#X obj 78 351 dac~;
#X floatatom 82 64 5 0 0 0 - osc1 -, f 5;
#X floatatom 129 157 5 0 0 0 - mI -, f 5;
#X text 39 38 carrier frequency;
#X text 126 137 modulation index;
#X obj 535 409 tgl 15 0 empty empty empty 17 7 0 10 -262144 -1 -1 0
1;
#X msg 535 432 \; pd dsp \$1;
#X obj 453 510 spectrogram;
#X obj 751 483 tgl 15 0 empty empty empty 17 7 0 10 -262144 -1 -1 0
1;
#X floatatom 602 481 5 0 0 0 - - -, f 5;
#X obj 167 509 display;
#X obj 283 485 tgl 15 0 empty empty empty 17 7 0 10 -262144 -1 -1 0
1;
#X floatatom 370 485 5 0 0 0 - - -, f 5;
#X obj 84 236 operator;
#X obj 84 317 *~;
#X floatatom 99 294 5 0 0 0 - - -, f 5;
#X floatatom 455 70 5 0 0 0 - osc2 -, f 5;
#X floatatom 581 122 5 0 0 0 - fL -, f 5;
#X text 412 44 carrier frequency;
#X obj 457 242 operator;
#X obj 277 307 throw~ op1;
#X obj 479 147 catch~ op1;
#X obj 268 117 *;
#X obj 265 80 t b f;
#X floatatom 265 58 5 0 0 0 - - -, f 5;
#X text 261 34 ratio;
#X text 553 98 feedback_level;
#X obj 683 22 doll;
#X obj 683 257 clip -99 99;
#X floatatom 683 282 5 0 0 0 - - -, f 5;
#X obj 880 257 clip -99 99;
#X floatatom 880 282 5 0 0 0 - - -, f 5;
#X obj 683 308 m_scale -99 99 0 1;
#X obj 880 304 m_scale -99 99 0 1;
#X obj 683 338 s mI;
#X obj 880 334 s fL;
#X obj 1009 14 doll;
#X obj 1009 249 clip -99 99;
#X floatatom 1009 274 5 0 0 0 - - -, f 5;
#X obj 1206 249 clip -99 99;
#X floatatom 1206 274 5 0 0 0 - - -, f 5;
#X obj 1009 364 s osc1;
#X obj 1206 361 s osc2;
#X obj 1009 300 m_scale -99 99 40 88;
#X obj 1206 296 m_scale -99 99 40 88;
#X obj 1009 326 mtof;
#X obj 1206 325 mtof;
#X obj 377 93 spigot;
#X obj 377 66 tgl 15 0 empty empty empty 17 7 0 10 -262144 -1 -1 0
1;
#X obj 1009 -9 bng 15 250 50 0 empty empty empty 17 7 0 10 -262144
-1 -1;
#X connect 1 0 13 0;
#X connect 1 0 22 0;
#X connect 2 0 13 2;
#X connect 5 0 6 0;
#X connect 8 0 7 2;
#X connect 9 0 7 1;
#X connect 11 0 10 1;
#X connect 12 0 10 2;
#X connect 13 0 10 0;
#X connect 13 0 7 0;
#X connect 13 0 14 0;
#X connect 13 0 20 0;
#X connect 14 0 0 0;
#X connect 14 0 0 1;
#X connect 15 0 14 1;
#X connect 16 0 19 0;
#X connect 17 0 19 2;
#X connect 19 0 13 1;
#X connect 21 0 19 1;
#X connect 22 0 47 1;
#X connect 23 0 22 0;
#X connect 23 1 22 1;
#X connect 24 0 23 0;
#X connect 27 0 28 0;
#X connect 27 1 30 0;
#X connect 28 0 29 0;
#X connect 29 0 32 0;
#X connect 30 0 31 0;
#X connect 31 0 33 0;
#X connect 32 0 34 0;
#X connect 33 0 35 0;
#X connect 36 0 37 0;
#X connect 36 1 39 0;
#X connect 37 0 38 0;
#X connect 38 0 43 0;
#X connect 39 0 40 0;
#X connect 40 0 44 0;
#X connect 43 0 45 0;
#X connect 44 0 46 0;
#X connect 45 0 41 0;
#X connect 46 0 42 0;
#X connect 48 0 47 0;
#X connect 49 0 36 0;
