#N struct 1082-grob-lib-x float x float y array numbers 1082-num-x
;
#N struct 1082-num-x float x float y;
#N struct 1087-grob-lib-x float x float y array numbers 1087-num-x
;
#N struct 1087-num-x float x float y;
#N canvas 15 50 1241 797 10;
#X obj 78 351 dac~;
#X floatatom 82 64 5 0 0 0 - osc1 -, f 5;
#X floatatom 129 157 5 0 0 0 - mI -, f 5;
#X text 39 38 carrier frequency;
#X text 126 137 modulation index;
#X obj 417 330 tgl 15 0 empty empty empty 17 7 0 10 -262144 -1 -1 0
1;
#X msg 417 353 \; pd dsp \$1;
#X obj 453 510 spectrogram;
#X obj 751 483 tgl 15 0 empty empty empty 17 7 0 10 -262144 -1 -1 0
1;
#X floatatom 602 481 5 0 0 0 - - -, f 5;
#X obj 167 509 display;
#X obj 283 485 tgl 15 0 empty empty empty 17 7 0 10 -262144 -1 -1 0
1;
#X floatatom 370 485 5 0 0 0 - - -, f 5;
#X obj 85 241 operator;
#X obj 84 317 *~;
#X floatatom 99 294 5 0 0 0 - - -, f 5;
#X floatatom 455 70 5 0 0 0 - osc2 -, f 5;
#X floatatom 502 128 5 0 0 0 - fL -, f 5;
#X obj 457 242 operator;
#X obj 277 307 throw~ op1;
#X obj 479 147 catch~ op1;
#X obj 268 117 *;
#X obj 265 80 t b f;
#X floatatom 265 58 5 0 0 0 - - -, f 5;
#X text 261 34 ratio;
#X text 474 104 feedback_level;
#X obj 607 89 doll;
#X obj 607 324 clip -99 99;
#X floatatom 607 349 5 0 0 0 - - -, f 5;
#X obj 804 324 clip -99 99;
#X floatatom 804 349 5 0 0 0 - - -, f 5;
#X obj 607 375 m_scale -99 99 0 1;
#X obj 804 371 m_scale -99 99 0 1;
#X obj 607 405 s mI;
#X obj 804 401 s fL;
#X obj 933 323 clip -99 99;
#X floatatom 933 348 5 0 0 0 - - -, f 5;
#X obj 1130 323 clip -99 99;
#X floatatom 1130 348 5 0 0 0 - - -, f 5;
#X obj 933 438 s osc1;
#X obj 1130 435 s osc2;
#X obj 933 374 m_scale -99 99 40 88;
#X obj 1130 370 m_scale -99 99 40 88;
#X obj 933 400 mtof;
#X obj 1130 399 mtof;
#X obj 377 93 spigot;
#X obj 377 66 tgl 15 0 empty empty empty 17 7 0 10 -262144 -1 -1 0
1;
#X obj 933 65 bng 15 250 50 0 empty empty empty 17 7 0 10 -262144 -1
-1;
#X obj 606 66 bng 15 250 50 0 empty empty empty 17 7 0 10 -262144 -1
-1;
#X obj 690 326 pack;
#X obj 1045 326 pack;
#X obj 690 348 s xy1w;
#X obj 1045 348 s xy2w;
#N canvas 83 200 695 400 preset 1;
#X obj 30 119 pack f f f f;
#X obj 30 91 f;
#X obj 15 343 text define simpleFM;
#X obj 30 145 t l b;
#X msg 57 174 1e+06;
#X obj 30 201 text set simpleFM;
#X obj 30 40 bng 15 250 50 0 empty empty empty 17 7 0 10 -262144 -1
-1;
#X obj 46 66 unpack;
#X obj 92 66 unpack;
#X msg 15 318 clear;
#X obj 159 64 text size simpleFM;
#X obj 159 41 bng 15 250 50 0 empty empty empty 17 7 0 10 -262144 -1
-1;
#X obj 159 88 - 1;
#X obj 159 113 text delete simpleFM;
#X obj 46 40 r xy1w;
#X obj 92 40 r xy2w;
#X text 25 19 write preset;
#X text 157 20 delete last preset;
#X obj 360 65 text get simpleFM;
#X obj 360 100 s 2xyr;
#X obj 30 3 inlet;
#X obj 158 3 inlet;
#X obj 360 7 inlet;
#X msg 44 267 read simpleFM7.txt;
#X msg 26 292 write simpleFM7.txt;
#X obj 44 242 loadbang;
#X floatatom 196 89 5 0 0 0 - - -, f 5;
#X connect 0 0 3 0;
#X connect 1 0 0 0;
#X connect 3 0 5 0;
#X connect 3 1 4 0;
#X connect 4 0 5 1;
#X connect 6 0 1 0;
#X connect 7 0 1 1;
#X connect 7 1 0 1;
#X connect 8 0 0 2;
#X connect 8 1 0 3;
#X connect 9 0 2 0;
#X connect 10 0 26 0;
#X connect 10 0 12 0;
#X connect 11 0 10 0;
#X connect 12 0 13 0;
#X connect 14 0 7 0;
#X connect 15 0 8 0;
#X connect 18 0 19 0;
#X connect 20 0 6 0;
#X connect 21 0 11 0;
#X connect 22 0 18 0;
#X connect 23 0 2 0;
#X connect 24 0 2 0;
#X connect 25 0 23 0;
#X restore 851 509 pd preset;
#X obj 846 12 r 2xyr;
#X obj 846 38 unpack f f f f;
#X obj 851 485 bng 15 250 50 0 empty empty empty 17 7 0 10 -262144
-1 -1;
#X obj 876 485 bng 15 250 50 0 empty empty empty 17 7 0 10 -262144
-1 -1;
#X floatatom 902 485 5 0 0 0 - - -, f 5;
#X floatatom 849 79 5 0 0 0 - - -, f 5;
#X obj 933 88 doll;
#X text 412 44 modulator frequency;
#X floatatom 856 633 5 0 0 0 - - -, f 5;
#X msg 856 589 42;
#X msg 902 599 123;
#X obj 901 555 bng 15 250 50 0 empty empty empty 17 7 0 10 -262144
-1 -1;
#X connect 1 0 13 0;
#X connect 1 0 21 0;
#X connect 2 0 13 2;
#X connect 5 0 6 0;
#X connect 8 0 7 2;
#X connect 9 0 7 1;
#X connect 11 0 10 1;
#X connect 12 0 10 2;
#X connect 13 0 10 0;
#X connect 13 0 7 0;
#X connect 13 0 14 0;
#X connect 13 0 19 0;
#X connect 14 0 0 0;
#X connect 14 0 0 1;
#X connect 15 0 14 1;
#X connect 16 0 18 0;
#X connect 17 0 18 2;
#X connect 18 0 13 1;
#X connect 20 0 18 1;
#X connect 21 0 45 1;
#X connect 22 0 21 0;
#X connect 22 1 21 1;
#X connect 23 0 22 0;
#X connect 26 0 27 0;
#X connect 26 0 49 0;
#X connect 26 1 29 0;
#X connect 26 1 49 1;
#X connect 27 0 28 0;
#X connect 28 0 31 0;
#X connect 29 0 30 0;
#X connect 30 0 32 0;
#X connect 31 0 33 0;
#X connect 32 0 34 0;
#X connect 35 0 36 0;
#X connect 36 0 41 0;
#X connect 37 0 38 0;
#X connect 38 0 42 0;
#X connect 41 0 43 0;
#X connect 42 0 44 0;
#X connect 43 0 39 0;
#X connect 44 0 40 0;
#X connect 46 0 45 0;
#X connect 47 0 60 0;
#X connect 48 0 26 0;
#X connect 49 0 51 0;
#X connect 50 0 52 0;
#X connect 54 0 55 0;
#X connect 55 0 26 1;
#X connect 55 1 26 2;
#X connect 55 2 60 1;
#X connect 55 3 60 2;
#X connect 56 0 53 0;
#X connect 57 0 53 1;
#X connect 58 0 53 2;
#X connect 59 0 26 2;
#X connect 60 0 35 0;
#X connect 60 0 50 0;
#X connect 60 1 37 0;
#X connect 60 1 50 1;
#X connect 63 0 62 0;
#X connect 64 0 62 0;
#X connect 65 0 64 0;
