#N canvas 76 151 450 300 10;
#X obj 195 245 noteout;
#X msg 234 221 2;
#X floatatom 219 172 5 0 127 0 - - -, f 5;
#X floatatom 181 177 5 0 0 0 - - -, f 5;
#X obj 64 96 sel 0 1 2 3;
#X floatatom 54 154 5 0 0 0 - - -, f 5;
#X floatatom 91 123 5 0 0 0 - - -, f 5;
#X floatatom 124 130 5 0 0 0 - - -, f 5;
#X floatatom 160 129 5 0 0 0 - - -, f 5;
#X obj 33 20 tgl 15 0 empty empty empty 17 7 0 10 -262144 -1 -1 1 1
;
#X msg 33 40 connect \$1;
#X floatatom 120 51 5 0 0 0 - - -, f 5;
#X obj 120 29 r #abl_link_num_peers;
#X obj 64 75 abl_link~ 1 0 4 134;
#X text 206 76 Ableton Link External;
#X text 272 251 MIDI IAC;
#X connect 1 0 0 2;
#X connect 2 0 0 1;
#X connect 3 0 0 0;
#X connect 4 0 5 0;
#X connect 4 1 6 0;
#X connect 4 2 7 0;
#X connect 4 3 8 0;
#X connect 5 0 3 0;
#X connect 6 0 3 0;
#X connect 7 0 3 0;
#X connect 8 0 3 0;
#X connect 9 0 10 0;
#X connect 10 0 13 0;
#X connect 12 0 11 0;
#X connect 13 0 4 0;
