#N canvas 350 203 708 457 10;
#X obj 232 206 *~;
#X obj 82 279 +~;
#X text 228 5 modulation frequency;
#X text 421 6 modulation index;
#X obj 82 208 phasor~;
#X obj 82 315 cos~;
#X obj 83 25 inlet~;
#X text 70 6 carrier frequency;
#X obj 232 26 inlet~;
#X obj 425 26 inlet~;
#X obj 82 407 outlet~;
#X connect 0 0 1 1;
#X connect 1 0 5 0;
#X connect 4 0 1 0;
#X connect 5 0 10 0;
#X connect 6 0 4 0;
#X connect 8 0 0 0;
#X connect 9 0 0 1;
