#N canvas 142 23 1138 703 10;
#X obj 89 196 samphold~;
#X obj 103 274 snapshot~;
#X floatatom 103 303 5 0 0 0 - - -, f 5;
#X obj 147 157 phasor~;
#X floatatom 147 136 5 0 0 0 - - -, f 5;
#X msg 47 25 \; pd dsp \$1;
#N canvas 0 22 450 278 (subpatch) 0;
#X array array1 100 float 3;
#A 0 -0.354856 -0.354856 -0.354856 -0.354856 -0.354856 -0.354856 -0.354856
-0.354856 -0.354856 -0.354856 -0.354856 -0.354856 -0.354856 -0.354856
-0.354856 -0.354856 -0.354856 -0.354856 -0.354856 -0.354856 -0.354856
-0.354856 -0.354856 -0.354856 -0.354856 -0.354856 -0.354856 -0.354856
-0.354856 -0.354856 -0.354856 -0.354856 -0.354856 -0.354856 -0.354856
-0.354856 -0.354856 -0.354856 -0.354856 -0.354856 -0.354856 -0.354856
-0.354856 -0.354856 -0.354856 -0.354856 -0.354856 -0.354856 -0.354856
-0.354856 -0.354856 -0.354856 -0.354856 -0.354856 -0.354856 -0.354856
-0.354856 -0.354856 -0.354856 -0.354856 -0.354856 -0.354856 -0.354856
-0.354856 -0.354856 -0.354856 -0.354856 -0.354856 -0.354856 -0.354856
-0.354856 -0.354856 -0.354856 -0.354856 -0.354856 -0.354856 -0.354856
-0.354856 -0.354856 -0.354856 -0.354856 -0.354856 -0.354856 -0.354856
-0.354856 -0.354856 -0.354856 -0.354856 -0.354856 -0.354856 -0.354856
-0.354856 -0.354856 -0.354856 -0.354856 -0.354856 -0.354856 -0.354856
-0.354856 -0.354856;
#X coords 0 1 100 -1 200 140 1;
#X restore 25 394 graph;
#X obj 49 356 tabwrite~ array1;
#X obj 81 100 noise~;
#X obj 382 42 + 1;
#X obj 382 61 * 0.5;
#X floatatom 382 79 5 0 0 0 - - -, f 5;
#X obj 382 99 * 127;
#X floatatom 383 144 5 0 0 0 - - -, f 5;
#X obj 383 162 i;
#X floatatom 383 181 5 0 0 0 - - -, f 5;
#X obj 383 206 mtof;
#X floatatom 383 228 5 0 0 0 - - -, f 5;
#X obj 384 567 *~;
#X obj 491 528 vline~;
#X obj 382 669 dac~;
#X floatatom 431 81 5 0 0 0 - - -, f 5;
#X obj 382 121 +;
#X floatatom 433 107 5 0 0 0 - - -, f 5;
#X obj 157 196 threshold~ 0.99 1 0.5 1;
#X obj 147 109 /;
#X msg 147 85 1;
#X obj 147 63 t b f;
#X floatatom 147 45 5 0 0 0 - - -, f 5;
#X text 200 43 time in seconds;
#X text 200 134 or: time in hz;
#X text 470 78 range: from 1(only one note) to 127 (full midi range)
;
#X text 470 106 offset: minimum base note;
#X text 473 123 (when range is 1 determins the repeated note);
#X text 472 138 (when range is 127 \, offset is better 0 or it gets
VERY high);
#X text 199 90 time = 0 stops it;
#X obj 47 4 tgl 15 0 empty empty empty 17 7 0 10 -262144 -1 -1 0 1
;
#X obj 384 311 phasor~;
#X floatatom 384 289 5 0 0 0 - - -, f 5;
#X obj 384 441 expr~ $v1 > $v2;
#X obj 384 467 *~ 2;
#X obj 384 495 -~ 1;
#X floatatom 472 348 5 0 0 0 - - -, f 5;
#X obj 384 635 *~;
#X floatatom 398 589 5 0 0 0 - - -, f 5;
#X obj 398 607 dbtorms;
#X obj 471 411 line~;
#X obj 472 386 pack 0.5 20;
#X obj 522 360 * 1000;
#X obj 491 451 - 10;
#X msg 491 506 0 \, 1 10 \, 0 \$1 10;
#X obj 491 481 f;
#X obj 459 37 unpack f f;
#X obj 568 389 pack 0.5 20;
#X obj 567 414 line;
#X floatatom 567 439 5 0 0 0 - - -, f 5;
#X msg 459 15 40 40;
#X text 440 278 pulswidth (0. - 1.);
#X obj 472 324 * 0.49;
#X obj 472 301 + 1.01;
#N canvas 0 22 417 305 liststore2 0;
#X msg 184 174 add2 \$1;
#X msg 88 175 set \$1;
#X msg 88 145 40;
#X obj 184 83 t f b f;
#X msg 223 120 set \$1;
#X msg 223 144 40;
#X msg 88 119 set \$1;
#X obj 87 91 t b b f;
#X obj 86 33 inlet;
#X obj 184 31 inlet;
#X obj 88 224 outlet;
#X connect 0 0 10 0;
#X connect 1 0 10 0;
#X connect 2 0 1 0;
#X connect 3 0 0 0;
#X connect 3 1 2 0;
#X connect 3 2 4 0;
#X connect 4 0 5 0;
#X connect 5 0 0 0;
#X connect 6 0 2 0;
#X connect 7 0 5 0;
#X connect 7 1 2 0;
#X connect 7 2 6 0;
#X connect 8 0 7 0;
#X connect 9 0 3 0;
#X restore 459 -6 pd liststore2;
#X msg 146 4 set \$1;
#X msg 146 25 10;
#X obj 280 -16 loadbang;
#X connect 0 0 1 0;
#X connect 0 0 7 0;
#X connect 1 0 2 0;
#X connect 1 0 9 0;
#X connect 2 0 59 0;
#X connect 3 0 0 1;
#X connect 3 0 24 0;
#X connect 4 0 3 0;
#X connect 8 0 0 0;
#X connect 9 0 10 0;
#X connect 10 0 11 0;
#X connect 11 0 12 0;
#X connect 12 0 22 0;
#X connect 13 0 14 0;
#X connect 14 0 15 0;
#X connect 15 0 16 0;
#X connect 16 0 17 0;
#X connect 17 0 38 0;
#X connect 18 0 43 0;
#X connect 19 0 18 1;
#X connect 21 0 12 1;
#X connect 21 0 60 0;
#X connect 22 0 13 0;
#X connect 23 0 22 1;
#X connect 23 0 60 1;
#X connect 24 0 1 0;
#X connect 24 0 7 0;
#X connect 24 0 51 0;
#X connect 25 0 4 0;
#X connect 26 0 25 0;
#X connect 27 0 26 0;
#X connect 27 1 25 1;
#X connect 28 0 27 0;
#X connect 28 0 48 0;
#X connect 28 0 61 0;
#X connect 36 0 5 0;
#X connect 37 0 39 0;
#X connect 38 0 37 0;
#X connect 39 0 40 0;
#X connect 40 0 41 0;
#X connect 41 0 18 0;
#X connect 42 0 47 0;
#X connect 42 0 53 0;
#X connect 43 0 20 0;
#X connect 43 0 20 1;
#X connect 44 0 45 0;
#X connect 45 0 43 1;
#X connect 46 0 39 1;
#X connect 47 0 46 0;
#X connect 48 0 47 1;
#X connect 48 0 49 0;
#X connect 48 0 53 1;
#X connect 49 0 51 0;
#X connect 50 0 19 0;
#X connect 51 0 50 0;
#X connect 52 0 21 0;
#X connect 52 1 23 0;
#X connect 53 0 54 0;
#X connect 54 0 55 0;
#X connect 56 0 52 0;
#X connect 58 0 42 0;
#X connect 59 0 58 0;
#X connect 60 0 56 0;
#X connect 61 0 62 0;
#X connect 62 0 28 0;
#X connect 63 0 62 0;
#X connect 63 0 56 0;
