#N canvas 94 61 1063 653 10;
#X obj 78 351 dac~;
#X floatatom 82 64 5 0 0 0 - - -, f 5;
#X floatatom 170 65 5 0 0 0 - - -, f 5;
#X floatatom 366 65 5 0 0 0 - - -, f 5;
#X text 39 38 carrier frequency;
#X text 166 41 modulation frequency;
#X text 338 41 modulation index;
#X obj 552 225 tgl 15 0 empty empty empty 17 7 0 10 -262144 -1 -1 0
1;
#X msg 552 262 \; pd dsp \$1;
#X obj 470 340 spectrogram;
#X obj 761 297 tgl 15 0 empty empty empty 17 7 0 10 -262144 -1 -1 0
1;
#X floatatom 619 311 5 0 0 0 - - -, f 5;
#X obj 184 339 display;
#X obj 300 315 tgl 15 0 empty empty empty 17 7 0 10 -262144 -1 -1 1
1;
#X floatatom 387 315 5 0 0 0 - - -, f 5;
#X obj 84 236 operator;
#X obj 84 317 *~;
#X floatatom 99 294 5 0 0 0 - - -, f 5;
#X obj 170 136 osc~;
#X connect 1 0 15 0;
#X connect 2 0 18 0;
#X connect 3 0 15 2;
#X connect 7 0 8 0;
#X connect 10 0 9 2;
#X connect 11 0 9 1;
#X connect 13 0 12 1;
#X connect 14 0 12 2;
#X connect 15 0 12 0;
#X connect 15 0 9 0;
#X connect 15 0 16 0;
#X connect 16 0 0 0;
#X connect 16 0 0 1;
#X connect 17 0 16 1;
#X connect 18 0 15 1;
