#N canvas 94 61 1063 653 10;
#X obj 170 155 osc~;
#X obj 170 204 *~;
#X obj 78 351 dac~;
#X floatatom 82 64 5 0 0 0 - - -, f 5;
#X obj 81 316 *~;
#X floatatom 170 65 5 0 0 0 - - -, f 5;
#X floatatom 366 65 5 0 0 0 - - -, f 5;
#X obj 81 226 +~;
#X text 39 38 carrier frequency;
#X text 166 41 modulation frequency;
#X text 338 41 modulation index;
#X floatatom 99 289 5 0 0 0 - - -, f 5;
#X obj 552 225 tgl 15 0 empty empty empty 17 7 0 10 -262144 -1 -1 0
1;
#X msg 552 262 \; pd dsp \$1;
#X obj 470 340 spectrogram;
#X obj 761 297 tgl 15 0 empty empty empty 17 7 0 10 -262144 -1 -1 1
1;
#X floatatom 619 311 5 0 0 0 - - -, f 5;
#X obj 81 147 phasor~;
#X obj 81 248 cos~;
#X obj 184 339 display;
#X obj 300 315 tgl 15 0 empty empty empty 17 7 0 10 -262144 -1 -1 0
1;
#X floatatom 387 315 5 0 0 0 - - -, f 5;
#X connect 0 0 1 0;
#X connect 1 0 7 1;
#X connect 3 0 17 0;
#X connect 4 0 2 0;
#X connect 4 0 2 1;
#X connect 5 0 0 0;
#X connect 6 0 1 1;
#X connect 7 0 18 0;
#X connect 11 0 4 1;
#X connect 12 0 13 0;
#X connect 15 0 14 2;
#X connect 16 0 14 1;
#X connect 17 0 7 0;
#X connect 18 0 4 0;
#X connect 18 0 14 0;
#X connect 18 0 19 0;
#X connect 20 0 19 1;
#X connect 21 0 19 2;
