#N canvas 17 23 1037 755 10;
#X floatatom 29 71 5 0 0 0 - - -, f 5;
#X obj 76 71 store-collect-delayed more1;
#X floatatom 29 97 5 0 0 0 - - -, f 5;
#X obj 76 97 store-collect-delayed more2;
#X floatatom 30 124 5 0 0 0 - - -, f 5;
#X obj 77 124 store-collect-delayed more3;
#X obj 320 68 tagged-del more4;
#X obj 321 112 tagged-del more5;
#N canvas 96 22 1009 703 00_setup 0;
#X obj 153 243 text define -k preset;
#A set 0 more5/tag 99 \; 0 more4/tag 15 \; 0 more3 172 \; 0 more2 18
\; 0 more1 75 \; 1 more5/tag 1 \; 1 more4/tag 75 \; 1 more3 13 \; 1
more2 255 \; 1 more1 11 \; 2 more5/tag 188 \; 2 more4/tag -135 \; 2
more3 205 \; 2 more2 172 \; 2 more1 88 \;;
#X msg 172 184 write preset.txt;
#X msg 153 132 read preset.txt;
#X obj 126 273 text size preset;
#X obj 126 319 text get preset;
#X obj 126 343 list split 1;
#X floatatom 126 372 5 0 0 0 - - -, f 5;
#X floatatom 73 295 5 0 0 0 - - -, f 5;
#X obj 126 297 - 1;
#X obj 126 82 loadbang;
#X obj 126 105 t b b;
#X obj 126 398 s last_preset;
#X obj 185 214 r textshow;
#X obj 172 160 r write2disk;
#X connect 0 0 3 0;
#X connect 1 0 0 0;
#X connect 2 0 0 0;
#X connect 3 0 7 0;
#X connect 3 0 8 0;
#X connect 4 0 5 0;
#X connect 5 0 6 0;
#X connect 6 0 11 0;
#X connect 8 0 4 0;
#X connect 9 0 10 0;
#X connect 10 0 3 0;
#X connect 10 1 2 0;
#X connect 12 0 0 0;
#X connect 13 0 1 0;
#X restore 34 273 pd 00_setup;
#N canvas 27 22 1272 703 01save 0;
#X obj 90 59 bng 15 250 50 0 empty empty save 0 -6 0 8 -262144 -1 -1
;
#X obj 90 143 s SAVING-ADMIN;
#X obj 48 471 text set preset;
#X obj 48 311 r SAVING-SEND;
#X msg 75 434 1e+06;
#X obj 48 381 list prepend;
#X obj 117 245 f 0;
#X obj 153 246 + 1;
#X obj 90 121 t b b;
#X floatatom 132 224 5 0 0 0 - - -, f 5;
#X obj 48 335 t a b;
#X obj 132 179 r last_preset;
#X obj 132 200 + 1;
#X text 166 221 number of presets already saved previously;
#X text 517 56 how to delete a preset?;
#X text 528 102 (iteration with [until] similar to recalling);
#X text 522 89 - use [text delete] to erase the relevant lines;
#X text 522 123 - if the erased preset was not the last one:;
#X text 532 137 renumber presets after the deleted one ([text set])
;
#X connect 0 0 8 0;
#X connect 3 0 10 0;
#X connect 4 0 2 1;
#X connect 5 0 2 0;
#X connect 6 0 7 0;
#X connect 6 0 5 1;
#X connect 7 0 6 1;
#X connect 8 0 1 0;
#X connect 8 1 6 0;
#X connect 9 0 6 1;
#X connect 10 0 5 0;
#X connect 10 1 4 0;
#X connect 11 0 12 0;
#X connect 12 0 9 0;
#X restore 34 310 pd 01save;
#N canvas 633 37 1025 889 02recall 0;
#X obj 48 126 text search preset 0;
#X floatatom 25 30 5 0 0 0 - - -, f 5;
#X msg 63 219 add2 \$1;
#X msg 26 259 43 36;
#X obj 25 52 t b f f b;
#X msg 98 100 set;
#X obj 59 101 + 1;
#X obj 26 451 f 0;
#X obj 26 474 t f b;
#X obj 26 420 until;
#X obj 48 164 sel -1;
#X obj 54 452 + 1;
#X obj 26 518 text get preset;
#X msg 55 496 -1;
#X obj 26 542 list split 1;
#X obj 60 566 list trim;
#X obj 26 343 -;
#X floatatom 11 369 5 0 0 0 - - -, f 5;
#X obj 26 284 unpack;
#X obj 59 313 t f f;
#X obj 48 190 text size preset;
#X obj 60 589 s SAVING-REC;
#X connect 0 0 10 0;
#X connect 1 0 4 0;
#X connect 2 0 3 0;
#X connect 3 0 18 0;
#X connect 4 0 3 0;
#X connect 4 1 0 0;
#X connect 4 2 6 0;
#X connect 4 3 5 0;
#X connect 5 0 3 0;
#X connect 6 0 0 0;
#X connect 7 0 8 0;
#X connect 7 0 11 0;
#X connect 8 0 12 0;
#X connect 8 1 13 0;
#X connect 9 0 7 0;
#X connect 10 0 20 0;
#X connect 10 1 2 0;
#X connect 11 0 7 1;
#X connect 12 0 14 0;
#X connect 13 0 12 1;
#X connect 14 1 15 0;
#X connect 15 0 21 0;
#X connect 16 0 17 0;
#X connect 16 0 9 0;
#X connect 18 0 16 0;
#X connect 18 1 19 0;
#X connect 19 0 16 1;
#X connect 19 1 7 1;
#X connect 20 0 2 0;
#X restore 34 348 pd 02recall;
#N canvas 67 22 1172 703 03_otherDATA 0;
#X msg 180 482 franz;
#X obj 180 383 list prepend symbol;
#X msg 180 457 set \$1;
#X msg 128 300 frieda;
#X obj 180 433 list trim;
#X obj 245 123 store-collect-delayed more7;
#X obj 142 159 pack f f f f;
#X floatatom 142 134 5 0 0 0 - - -, f 5;
#X floatatom 165 115 5 0 0 0 - - -, f 5;
#X floatatom 188 95 5 0 0 0 - - -, f 5;
#X floatatom 211 72 5 0 0 0 - - -, f 5;
#X obj 142 34 unpack f f f f;
#X obj 303 433 store-collect-delayed more6;
#X msg 189 300 fred;
#X msg 230 300 franz;
#X msg 285 301 frederike;
#X obj 155 405 t b l;
#X text 66 35 1 lists;
#X text 51 299 2 symbols;
#X connect 0 0 12 0;
#X connect 1 0 16 0;
#X connect 2 0 0 0;
#X connect 3 0 1 0;
#X connect 4 0 2 0;
#X connect 5 0 11 0;
#X connect 6 0 5 0;
#X connect 7 0 6 0;
#X connect 8 0 6 1;
#X connect 9 0 6 2;
#X connect 10 0 6 3;
#X connect 11 0 7 0;
#X connect 11 1 8 0;
#X connect 11 2 9 0;
#X connect 11 3 10 0;
#X connect 12 0 1 0;
#X connect 13 0 1 0;
#X connect 14 0 1 0;
#X connect 15 0 1 0;
#X connect 16 0 0 0;
#X connect 16 1 4 0;
#X restore 34 384 pd 03_otherDATA;
#N canvas 65 77 1276 749 04_morph 0;
#X obj 48 126 text search preset 0;
#X floatatom 25 30 5 0 0 0 - - -, f 5;
#X msg 63 219 add2 \$1;
#X msg 26 259 10 5;
#X msg 98 100 set;
#X obj 59 101 + 1;
#X obj 26 451 f 0;
#X obj 26 474 t f b;
#X obj 26 420 until;
#X obj 48 164 sel -1;
#X obj 54 452 + 1;
#X obj 26 518 text get preset;
#X msg 55 496 -1;
#X obj 26 542 list split 1;
#X obj 26 343 -;
#X floatatom 11 369 5 0 0 0 - - -, f 5;
#X obj 26 284 unpack;
#X obj 59 313 t f f;
#X obj 48 190 text size preset;
#X obj 348 127 text search preset 0;
#X floatatom 325 31 5 0 0 0 - - -, f 5;
#X msg 363 220 add2 \$1;
#X msg 326 260 15 10;
#X msg 398 101 set;
#X obj 359 102 + 1;
#X obj 326 452 f 0;
#X obj 326 475 t f b;
#X obj 326 421 until;
#X obj 348 165 sel -1;
#X obj 354 453 + 1;
#X obj 326 519 text get preset;
#X msg 355 497 -1;
#X obj 326 543 list split 1;
#X obj 326 344 -;
#X floatatom 311 370 5 0 0 0 - - -, f 5;
#X obj 326 285 unpack;
#X obj 359 314 t f f;
#X obj 348 191 text size preset;
#X msg 87 598 1e+06;
#X obj 60 635 text set morph1;
#X msg 387 600 1e+06;
#X obj 360 570 t a b;
#X obj 432 155 text define morph2;
#X obj 360 637 text set morph2;
#X obj 325 53 t b f f b b;
#X msg 432 101 clear;
#X msg 131 101 clear;
#X obj 131 155 text define morph1;
#X obj 25 52 t b f f b b;
#X obj 663 178 text get morph1;
#X obj 768 178 text get morph2;
#X obj 663 204 list split 1;
#X obj 768 203 list split 1;
#X floatatom 697 237 5 0 0 0 - - -, f 5;
#X floatatom 802 233 5 0 0 0 - - -, f 5;
#X floatatom 604 442 5 0 0 0 - - -, f 5;
#X obj 607 328 hsl 128 15 0 127 0 0 empty empty empty -2 -8 0 10 -262144
-1 -1 0 1;
#X obj 604 348 / 127;
#X floatatom 604 374 5 0 0 0 - - -, f 5;
#X obj 604 472 list prepend;
#X obj 604 499 s SAVING-REC;
#X text 600 89 morph per parameter;
#X obj 1035 381 text get morph1;
#X obj 1140 381 text get morph2;
#X obj 1035 407 list split 1;
#X obj 1140 406 list split 1;
#X obj 985 130 hsl 128 15 0 127 0 0 empty empty empty -2 -8 0 10 -262144
-1 -1 0 1;
#X obj 982 150 / 127;
#X obj 967 516 list prepend;
#X obj 967 543 s SAVING-REC;
#X obj 1079 210 text size morph1;
#X obj 1079 155 bng 15 250 50 0 empty empty empty 17 7 0 10 -262144
-1 -1;
#X floatatom 1079 232 5 0 0 0 - - -, f 5;
#X obj 1035 282 until;
#X obj 1066 308 + 1;
#X obj 1035 331 % 5;
#X obj 1035 355 t f f;
#X obj 1035 253 f;
#X obj 982 180 t f b b;
#X msg 1021 201 0, f 2;
#X obj 1035 306 f;
#X obj 967 451 f;
#X obj 1035 430 t b a;
#X floatatom 663 111 5 0 0 0 - - -, f 5;
#X text 982 90 morph entire preset;
#X obj 60 568 t a b;
#X text 980 105 not 100% perfect...yet...);
#N canvas 0 22 972 643 m_scale 0;
#X obj 197 85 inlet;
#X obj 247 85 inlet;
#X obj 317 85 inlet;
#X obj 367 85 inlet;
#X obj 111 54 inlet;
#X obj 111 558 outlet;
#X text 609 49 ARGS;
#X text 619 95 2: input_high_border;
#X text 619 121 3: output_low_border;
#X text 619 143 4: output_high_border;
#X text 174 54 scale [from_low \, from_hi] to [to_low \, to_hi];
#X obj 416 126 t b b b b;
#X obj 416 84 loadbang;
#X obj 111 525 +;
#X text 229 297 inh-inl;
#X text 354 286 outh-outl;
#X obj 111 488 *;
#X text 143 338 - inl;
#X text 143 526 + outl;
#X obj 247 237 t b a;
#X obj 367 225 t b a;
#X msg 425 105 bang;
#X obj 111 364 / 1;
#X obj 111 340 -;
#X obj 317 287 -;
#X obj 317 266 swap;
#X obj 197 271 swap;
#X obj 197 296 -;
#N canvas 0 22 549 462 mapping 0;
#X obj 103 74 inlet;
#X obj 103 358 outlet;
#X obj 133 265 pow 1;
#X obj 206 75 inlet;
#X obj 206 120 select 1;
#X obj 187 254 * 2;
#X obj 187 227 - 1;
#X msg 187 276 10 \$1;
#X obj 206 96 route float dB;
#N canvas 477 233 525 407 demux3 0;
#X obj 88 263 outlet;
#X obj 88 226 spigot 1;
#X obj 171 264 outlet;
#X obj 171 227 spigot 0;
#X obj 241 264 outlet;
#X obj 241 227 spigot 0;
#X obj 265 152 unpack 0 0 0;
#X obj 88 51 inlet;
#X obj 265 57 inlet;
#X msg 265 109 1 0 0;
#X msg 311 110 0 1 0;
#X msg 360 110 0 0 1;
#X obj 265 83 select 0 1 2;
#X connect 1 0 0 0;
#X connect 3 0 2 0;
#X connect 5 0 4 0;
#X connect 6 0 1 1;
#X connect 6 1 3 1;
#X connect 6 2 5 1;
#X connect 7 0 1 0;
#X connect 7 0 3 0;
#X connect 7 0 5 0;
#X connect 8 0 12 0;
#X connect 9 0 6 0;
#X connect 10 0 6 0;
#X connect 11 0 6 0;
#X connect 12 0 9 0;
#X connect 12 1 10 0;
#X connect 12 2 11 0;
#X restore 103 204 pd demux3;
#X msg 206 142 0;
#X msg 259 142 1;
#X msg 301 143 2;
#X obj 187 302 pow;
#X connect 0 0 9 0;
#X connect 2 0 1 0;
#X connect 3 0 8 0;
#X connect 4 0 10 0;
#X connect 4 1 11 0;
#X connect 5 0 7 0;
#X connect 6 0 5 0;
#X connect 7 0 13 0;
#X connect 8 0 4 0;
#X connect 8 0 2 1;
#X connect 8 1 12 0;
#X connect 9 0 1 0;
#X connect 9 1 2 0;
#X connect 9 2 6 0;
#X connect 10 0 9 1;
#X connect 11 0 9 1;
#X connect 12 0 9 1;
#X connect 13 0 1 0;
#X restore 111 454 pd mapping;
#X obj 620 263 inlet;
#X obj 673 381 list trim;
#X obj 620 360 select 0;
#X msg 688 285 symbol dB;
#X msg 620 381 1;
#X obj 555 262 loadbang;
#X text 620 242 mapping;
#X obj 620 287 t a b;
#X obj 620 335 list split 1;
#X text 620 170 5: mapping: float is a pow-exponent \, "dB" can be
used to use a dB scaling (optional \, default is linear);
#X obj 197 135 unpack 0 0 0 0;
#X obj 197 115 route list;
#X text 619 73 1: input_low_border or list of four values;
#N canvas 172 83 586 377 LICENSE-GPL 0;
#X text 57 88 This program is free software: you can redistribute it
and/or modify it under the terms of the GNU General Public License
as published by the Free Software Foundation \, either version 3 of
the License \, or (at your option) any later version.;
#X text 58 168 This program is distributed in the hope that it will
be useful \, but WITHOUT ANY WARRANTY \; without even the implied warranty
of MERCHANTABILITY or FITNESS FOR A PARTICULAR PURPOSE. See the GNU
General Public License for more details.;
#X text 57 261 You should have received a copy of the GNU General Public
License along with this program. If not \, see <http://www.gnu.org/licenses/>.
;
#X text 61 54 Copyright (C) 2009 \, Reality Jockey Ltd.;
#X text 60 325 See the file LICENSE.txt for the full license text.
;
#X restore 732 29 pd LICENSE-GPL;
#X obj 197 174 f;
#X obj 247 172 f;
#X obj 317 172 f;
#X obj 367 171 f;
#X obj 620 312 list append, f 15;
#X connect 0 0 40 0;
#X connect 1 0 44 0;
#X connect 2 0 45 0;
#X connect 3 0 46 0;
#X connect 4 0 23 0;
#X connect 11 0 43 0;
#X connect 11 1 44 0;
#X connect 11 2 45 0;
#X connect 11 3 46 0;
#X connect 12 0 11 0;
#X connect 13 0 5 0;
#X connect 16 0 13 0;
#X connect 19 0 26 0;
#X connect 19 1 26 1;
#X connect 20 0 25 0;
#X connect 20 1 25 1;
#X connect 21 0 11 0;
#X connect 22 0 28 0;
#X connect 23 0 22 0;
#X connect 24 0 16 1;
#X connect 25 0 24 0;
#X connect 25 1 24 1;
#X connect 26 0 27 0;
#X connect 26 1 27 1;
#X connect 27 0 22 1;
#X connect 28 0 16 0;
#X connect 29 0 36 0;
#X connect 30 0 28 1;
#X connect 31 0 33 0;
#X connect 31 1 30 0;
#X connect 32 0 47 0;
#X connect 33 0 28 1;
#X connect 34 0 47 0;
#X connect 36 0 47 0;
#X connect 36 1 47 1;
#X connect 37 0 31 0;
#X connect 39 0 43 0;
#X connect 39 1 44 0;
#X connect 39 2 45 0;
#X connect 39 3 46 0;
#X connect 40 0 39 0;
#X connect 40 1 43 0;
#X connect 43 0 23 1;
#X connect 43 0 26 0;
#X connect 44 0 19 0;
#X connect 45 0 13 1;
#X connect 45 0 25 0;
#X connect 46 0 20 0;
#X connect 47 0 37 0;
#X restore 967 483 pd m_scale;
#X obj 1079 184 t b b b;
#X msg 1117 231 0;
#X msg 1147 231 1;
#X floatatom 653 350 5 0 0 0 - - -, f 5;
#N canvas 0 22 972 643 m_scale 0;
#X obj 197 85 inlet;
#X obj 247 85 inlet;
#X obj 317 85 inlet;
#X obj 367 85 inlet;
#X obj 111 54 inlet;
#X obj 111 558 outlet;
#X text 609 49 ARGS;
#X text 619 95 2: input_high_border;
#X text 619 121 3: output_low_border;
#X text 619 143 4: output_high_border;
#X text 174 54 scale [from_low \, from_hi] to [to_low \, to_hi];
#X obj 416 126 t b b b b;
#X obj 416 84 loadbang;
#X obj 111 525 +;
#X text 229 297 inh-inl;
#X text 354 286 outh-outl;
#X obj 111 488 *;
#X text 143 338 - inl;
#X text 143 526 + outl;
#X obj 247 237 t b a;
#X obj 367 225 t b a;
#X msg 425 105 bang;
#X obj 111 364 / 1;
#X obj 111 340 -;
#X obj 317 287 -;
#X obj 317 266 swap;
#X obj 197 271 swap;
#X obj 197 296 -;
#N canvas 0 22 549 462 mapping 0;
#X obj 103 74 inlet;
#X obj 103 358 outlet;
#X obj 133 265 pow 1;
#X obj 206 75 inlet;
#X obj 206 120 select 1;
#X obj 187 254 * 2;
#X obj 187 227 - 1;
#X msg 187 276 10 \$1;
#X obj 206 96 route float dB;
#N canvas 477 233 525 407 demux3 0;
#X obj 88 263 outlet;
#X obj 88 226 spigot 1;
#X obj 171 264 outlet;
#X obj 171 227 spigot 0;
#X obj 241 264 outlet;
#X obj 241 227 spigot 0;
#X obj 265 152 unpack 0 0 0;
#X obj 88 51 inlet;
#X obj 265 57 inlet;
#X msg 265 109 1 0 0;
#X msg 311 110 0 1 0;
#X msg 360 110 0 0 1;
#X obj 265 83 select 0 1 2;
#X connect 1 0 0 0;
#X connect 3 0 2 0;
#X connect 5 0 4 0;
#X connect 6 0 1 1;
#X connect 6 1 3 1;
#X connect 6 2 5 1;
#X connect 7 0 1 0;
#X connect 7 0 3 0;
#X connect 7 0 5 0;
#X connect 8 0 12 0;
#X connect 9 0 6 0;
#X connect 10 0 6 0;
#X connect 11 0 6 0;
#X connect 12 0 9 0;
#X connect 12 1 10 0;
#X connect 12 2 11 0;
#X restore 103 204 pd demux3;
#X msg 206 142 0;
#X msg 259 142 1;
#X msg 301 143 2;
#X obj 187 302 pow;
#X connect 0 0 9 0;
#X connect 2 0 1 0;
#X connect 3 0 8 0;
#X connect 4 0 10 0;
#X connect 4 1 11 0;
#X connect 5 0 7 0;
#X connect 6 0 5 0;
#X connect 7 0 13 0;
#X connect 8 0 4 0;
#X connect 8 0 2 1;
#X connect 8 1 12 0;
#X connect 9 0 1 0;
#X connect 9 1 2 0;
#X connect 9 2 6 0;
#X connect 10 0 9 1;
#X connect 11 0 9 1;
#X connect 12 0 9 1;
#X connect 13 0 1 0;
#X restore 111 454 pd mapping;
#X obj 620 263 inlet;
#X obj 673 381 list trim;
#X obj 620 360 select 0;
#X msg 688 285 symbol dB;
#X msg 620 381 1;
#X obj 555 262 loadbang;
#X text 620 242 mapping;
#X obj 620 287 t a b;
#X obj 620 335 list split 1;
#X text 620 170 5: mapping: float is a pow-exponent \, "dB" can be
used to use a dB scaling (optional \, default is linear);
#X obj 197 135 unpack 0 0 0 0;
#X obj 197 115 route list;
#X text 619 73 1: input_low_border or list of four values;
#N canvas 172 83 586 377 LICENSE-GPL 0;
#X text 57 88 This program is free software: you can redistribute it
and/or modify it under the terms of the GNU General Public License
as published by the Free Software Foundation \, either version 3 of
the License \, or (at your option) any later version.;
#X text 58 168 This program is distributed in the hope that it will
be useful \, but WITHOUT ANY WARRANTY \; without even the implied warranty
of MERCHANTABILITY or FITNESS FOR A PARTICULAR PURPOSE. See the GNU
General Public License for more details.;
#X text 57 261 You should have received a copy of the GNU General Public
License along with this program. If not \, see <http://www.gnu.org/licenses/>.
;
#X text 61 54 Copyright (C) 2009 \, Reality Jockey Ltd.;
#X text 60 325 See the file LICENSE.txt for the full license text.
;
#X restore 732 29 pd LICENSE-GPL;
#X obj 197 174 f;
#X obj 247 172 f;
#X obj 317 172 f;
#X obj 367 171 f;
#X obj 620 312 list append, f 33;
#X connect 0 0 40 0;
#X connect 1 0 44 0;
#X connect 2 0 45 0;
#X connect 3 0 46 0;
#X connect 4 0 23 0;
#X connect 11 0 43 0;
#X connect 11 1 44 0;
#X connect 11 2 45 0;
#X connect 11 3 46 0;
#X connect 12 0 11 0;
#X connect 13 0 5 0;
#X connect 16 0 13 0;
#X connect 19 0 26 0;
#X connect 19 1 26 1;
#X connect 20 0 25 0;
#X connect 20 1 25 1;
#X connect 21 0 11 0;
#X connect 22 0 28 0;
#X connect 23 0 22 0;
#X connect 24 0 16 1;
#X connect 25 0 24 0;
#X connect 25 1 24 1;
#X connect 26 0 27 0;
#X connect 26 1 27 1;
#X connect 27 0 22 1;
#X connect 28 0 16 0;
#X connect 29 0 36 0;
#X connect 30 0 28 1;
#X connect 31 0 33 0;
#X connect 31 1 30 0;
#X connect 32 0 47 0;
#X connect 33 0 28 1;
#X connect 34 0 47 0;
#X connect 36 0 47 0;
#X connect 36 1 47 1;
#X connect 37 0 31 0;
#X connect 39 0 43 0;
#X connect 39 1 44 0;
#X connect 39 2 45 0;
#X connect 39 3 46 0;
#X connect 40 0 39 0;
#X connect 40 1 43 0;
#X connect 43 0 23 1;
#X connect 43 0 26 0;
#X connect 44 0 19 0;
#X connect 45 0 13 1;
#X connect 45 0 25 0;
#X connect 46 0 20 0;
#X connect 47 0 37 0;
#X restore 604 411 pd m_scale;
#X obj 663 133 t f f b b;
#X msg 643 385 0;
#X msg 682 384 1;
#X connect 0 0 9 0;
#X connect 1 0 48 0;
#X connect 2 0 3 0;
#X connect 3 0 16 0;
#X connect 4 0 3 0;
#X connect 5 0 0 0;
#X connect 6 0 7 0;
#X connect 6 0 10 0;
#X connect 7 0 11 0;
#X connect 7 1 12 0;
#X connect 8 0 6 0;
#X connect 9 0 18 0;
#X connect 9 1 2 0;
#X connect 10 0 6 1;
#X connect 11 0 13 0;
#X connect 12 0 11 1;
#X connect 13 1 85 0;
#X connect 14 0 15 0;
#X connect 14 0 8 0;
#X connect 16 0 14 0;
#X connect 16 1 17 0;
#X connect 17 0 14 1;
#X connect 17 1 6 1;
#X connect 18 0 2 0;
#X connect 19 0 28 0;
#X connect 20 0 44 0;
#X connect 21 0 22 0;
#X connect 22 0 35 0;
#X connect 23 0 22 0;
#X connect 24 0 19 0;
#X connect 25 0 26 0;
#X connect 25 0 29 0;
#X connect 26 0 30 0;
#X connect 26 1 31 0;
#X connect 27 0 25 0;
#X connect 28 0 37 0;
#X connect 28 1 21 0;
#X connect 29 0 25 1;
#X connect 30 0 32 0;
#X connect 31 0 30 1;
#X connect 32 1 41 0;
#X connect 33 0 34 0;
#X connect 33 0 27 0;
#X connect 35 0 33 0;
#X connect 35 1 36 0;
#X connect 36 0 33 1;
#X connect 36 1 25 1;
#X connect 37 0 21 0;
#X connect 38 0 39 1;
#X connect 40 0 43 1;
#X connect 41 0 43 0;
#X connect 41 1 40 0;
#X connect 44 0 22 0;
#X connect 44 1 19 0;
#X connect 44 2 24 0;
#X connect 44 3 23 0;
#X connect 44 4 45 0;
#X connect 45 0 42 0;
#X connect 46 0 47 0;
#X connect 48 0 3 0;
#X connect 48 1 0 0;
#X connect 48 2 5 0;
#X connect 48 3 4 0;
#X connect 48 4 46 0;
#X connect 49 0 51 0;
#X connect 50 0 52 0;
#X connect 51 0 59 1;
#X connect 51 1 53 0;
#X connect 52 1 54 0;
#X connect 53 0 92 3;
#X connect 54 0 92 4;
#X connect 55 0 59 0;
#X connect 56 0 57 0;
#X connect 56 0 91 0;
#X connect 57 0 58 0;
#X connect 58 0 92 0;
#X connect 59 0 60 0;
#X connect 62 0 64 0;
#X connect 63 0 65 0;
#X connect 64 0 82 0;
#X connect 64 1 87 3;
#X connect 65 1 87 4;
#X connect 66 0 67 0;
#X connect 67 0 78 0;
#X connect 68 0 69 0;
#X connect 70 0 72 0;
#X connect 71 0 88 0;
#X connect 72 0 77 1;
#X connect 73 0 80 0;
#X connect 74 0 80 1;
#X connect 75 0 74 0;
#X connect 75 0 76 0;
#X connect 76 0 62 0;
#X connect 76 1 63 0;
#X connect 77 0 73 0;
#X connect 78 0 81 1;
#X connect 78 1 77 0;
#X connect 78 2 79 0;
#X connect 79 0 80 1;
#X connect 80 0 75 0;
#X connect 81 0 87 0;
#X connect 82 0 81 0;
#X connect 82 1 68 1;
#X connect 83 0 93 0;
#X connect 85 0 39 0;
#X connect 85 1 38 0;
#X connect 87 0 68 0;
#X connect 88 0 70 0;
#X connect 88 1 89 0;
#X connect 88 2 90 0;
#X connect 89 0 87 1;
#X connect 90 0 87 2;
#X connect 92 0 55 0;
#X connect 93 0 49 0;
#X connect 93 1 50 0;
#X connect 93 2 94 0;
#X connect 93 3 95 0;
#X connect 94 0 92 1;
#X connect 95 0 92 2;
#X restore 34 419 pd 04_morph;
#X obj 510 52 tgl 15 0 empty empty empty 17 7 0 10 -262144 -1 -1 0
1;
#N canvas 182 102 450 300 look_at_the_presetfile 0;
#X obj 45 128 s textshow;
#X obj 44 17 inlet;
#X obj 44 56 sel 0 1;
#X msg 44 85 close;
#X msg 91 85 click;
#X obj 309 17 inlet;
#X obj 309 55 s write2disk;
#X connect 1 0 2 0;
#X connect 2 0 3 0;
#X connect 2 1 4 0;
#X connect 3 0 0 0;
#X connect 4 0 0 0;
#X connect 5 0 6 0;
#X restore 510 113 pd look_at_the_presetfile;
#X text 28 22 some presettable numberboxes to work on;
#X text 502 35 use this to look at the presetfile;
#X obj 657 86 bng 15 250 50 0 empty empty empty 17 7 0 10 -262144 -1
-1;
#X text 655 68 and write it to disk;
#X text 35 238 the workings...;
#X obj 32 624 store-collect-delayed more9;
#X text 30 604 pedagogically ok but practically clumsy;
#X obj 390 629 scd more9;
#X text 388 591 shorter name = less clunsy;
#X text 387 609 inside this is the exact same;
#X text 37 533 then try to morph between 2 presets;
#X text 33 564 but before \, consider this:;
#X text 29 476 1 the patch "env4stage.pd", f 71;
#X text 33 457 homework: use this presetsystem and try to incorporate
it into, f 65;
#X text 23 501 2 the patch "simpleFM8.pd for the coordinates of the
two xy pads, f 65;
#X text 31 591 the name of thes state saving abstraction is very long
;
#X connect 0 0 1 0;
#X connect 1 0 0 0;
#X connect 2 0 3 0;
#X connect 3 0 2 0;
#X connect 4 0 5 0;
#X connect 5 0 4 0;
#X connect 13 0 14 0;
#X connect 17 0 14 1;
