#N canvas 539 302 711 458 10;
#X obj 42 54 r test1;
#X obj 42 76 print test1;
#X obj 127 54 r test2;
#X obj 127 76 print test2;
#X obj 213 194 r test3;
#X obj 255 216 print test3;
#X floatatom 213 219 5 0 0 0 - - -, f 5;
#X msg 346 50 \; test1 555 \; test2 lala \;;
#X text 344 99 Send messages to correspodning r objects.;
#X msg 346 164 add test3 123;
#X text 343 142 Add one more row:;
#X msg 346 190 \; test1 555 \; test2 lala \; test3 123 \;;
#X msg 493 164 set xyz;
#X msg 493 190 \; test1 555 \; test2 lala \;;
#X text 38 19 Simple-Storing of 1 preset in a message box.;
#X text 36 298 The Logic: Collect all values to be saved with one trigger
\, clear the storing message box an rewrite it with the new values.
Loading will work by distributing the content by clicking the storing
message box. To get more presets \, use several message boxes.;
#X text 490 143 This clears the list:;
#X connect 0 0 1 0;
#X connect 2 0 3 0;
#X connect 4 0 5 0;
#X connect 4 0 6 0;
#X connect 9 0 11 0;
#X connect 12 0 13 0;
