#N canvas 616 27 594 670 10;
#X obj 20 151 send;
#X obj 20 171 receive;
#X obj 80 151 s;
#X obj 80 171 r;
#X obj 20 250 metro;
#X obj 20 272 bng 15 150 50 0 empty empty empty 17 7 0 10 -262144 -1
-1;
#X obj 20 218 tgl 15 0 empty empty empty 17 7 0 10 -262144 -1 -1 0
1;
#X msg 51 218 200;
#X msg 82 218 500;
#X obj 20 466 metro;
#X obj 20 488 bng 15 150 50 0 empty empty empty 17 7 0 10 -262144 -1
-1;
#X obj 20 365 tgl 15 0 empty empty empty 17 7 0 10 -262144 -1 -1 0
1;
#X obj 47 434 r tempo;
#X msg 47 365 200;
#X msg 78 365 500;
#X obj 47 400 s tempo;
#X obj 122 399 cnv 15 100 60 empty empty empty 20 12 0 14 -233017 -66577
0;
#X obj 123 400 r tempo;
#X floatatom 123 434 5 0 0 0 - - -;
#X text 17 317 "Send" and "receive" \, or "s" and "r" need an argument.
They also can be used several times.;
#X obj 247 399 hsl 128 15 30 350 0 0 tempo empty empty -2 -8 0 10 -262144
-1 -1 0 1;
#X text 243 417 Send and receive arguments can be set in GUI Objects
proertiers!;
#X obj 19 16 ../pd_tutorial_header;
#X text 17 116 You can send and recieve messages without patch chords
by using the send and receive objects:;
#X text 242 447 Right click on the slider to check and change.;
#X connect 4 0 5 0;
#X connect 6 0 4 0;
#X connect 7 0 4 1;
#X connect 8 0 4 1;
#X connect 9 0 10 0;
#X connect 11 0 9 0;
#X connect 12 0 9 1;
#X connect 13 0 15 0;
#X connect 14 0 15 0;
#X connect 17 0 18 0;
