#N canvas 556 37 594 670 10;
#X obj 25 283 select 5;
#X obj 25 316 bng 15 250 50 0 empty empty empty 17 7 0 10 -262144 -1
-1;
#X obj 70 316 bng 15 250 50 0 empty empty empty 17 7 0 10 -262144 -1
-1;
#X floatatom 95 315 5 0 0 0 - - -;
#X floatatom 25 257 5 0 0 0 - - -;
#X obj 175 316 bng 15 250 50 0 empty empty empty 17 7 0 10 -262144
-1 -1;
#X obj 220 316 bng 15 250 50 0 empty empty empty 17 7 0 10 -262144
-1 -1;
#X obj 175 283 select hamster;
#X symbolatom 256 314 10 0 0 0 - - -;
#X msg 247 216 symbol cat;
#X msg 319 216 symbol hamster;
#X msg 176 216 symbol dog;
#X text 21 113 If you need to select from a list \, use the select
object.;
#X msg 70 257 8;
#X msg 256 259 symbol dog;
#X text 21 142 1) With one argument \, select can work as a trigger.
It sends out a bang \, when the incoming float or symbl matches its
argument. The argument can be changed via the cold inlet.;
#X text 27 361 2) When set up with several arguments \, select creates
a bang on every correspondend outlet and outputs every other value
at its rightmost outlet:;
#X obj 27 452 sel 1 2 3 4;
#X obj 27 489 bng 15 250 50 0 empty empty empty 17 7 0 10 -262144 -1
-1;
#X obj 47 489 bng 15 250 50 0 empty empty empty 17 7 0 10 -262144 -1
-1;
#X obj 67 489 bng 15 250 50 0 empty empty empty 17 7 0 10 -262144 -1
-1;
#X obj 87 489 bng 15 250 50 0 empty empty empty 17 7 0 10 -262144 -1
-1;
#X floatatom 110 489 5 0 0 0 - - -;
#X floatatom 27 426 5 0 0 0 - - -;
#X obj 202 480 bng 15 250 50 0 empty empty empty 0 -6 0 10 -262144
-1 -1;
#X obj 202 431 tgl 15 0 empty empty empty 0 -6 0 10 -262144 -1 -1 0
1;
#X obj 221 480 bng 15 250 50 0 empty empty empty 0 -6 0 10 -262144
-1 -1;
#X obj 202 452 sel 0 1;
#X obj 19 16 ../pd_tutorial_header;
#X text 326 259 Change argument here.;
#X text 27 546 3) Select Modes: float and symbol If the first argument
is a float \, select works in float mode and will distribute according
to the floats in its arguments. If the first argument is a symbol (a
text string) \, slect will handle every atom as a symbol. So string
needs the syntax "symbol string" and even flaots need "symbol 300"
because they will be read as a symbol string!;
#X connect 0 0 1 0;
#X connect 0 1 2 0;
#X connect 0 1 3 0;
#X connect 4 0 0 0;
#X connect 7 0 5 0;
#X connect 7 1 6 0;
#X connect 7 1 8 0;
#X connect 9 0 7 0;
#X connect 10 0 7 0;
#X connect 11 0 7 0;
#X connect 13 0 0 1;
#X connect 14 0 7 1;
#X connect 17 0 18 0;
#X connect 17 1 19 0;
#X connect 17 2 20 0;
#X connect 17 3 21 0;
#X connect 17 4 22 0;
#X connect 23 0 17 0;
#X connect 25 0 27 0;
#X connect 27 0 24 0;
#X connect 27 1 26 0;
