#N canvas 145 23 640 950 10;
#X msg 83 225 3;
#X obj 83 305 print;
#X msg 116 225 56;
#X msg 157 223 3.456;
#X floatatom 128 305 5 0 0 0 - - -;
#X text 76 373 2) $ and symbol atoms;
#X text 72 192 1) $ and float atoms;
#X text 95 396 When working with symbol atoms \, the first atom is
always interpreted as the SELECTOR. Only the second atom will be read
as the SYMBOL atom by the $ variable:;
#X msg 83 266 \$1;
#X text 68 95 Now that we know about selectors and values beeing single
atoms \, lets have a closer look on variable messages.;
#X text 215 276 $ always needs an number index number >=1 (\$1 \, \$2
\, \$3 \, etc.);
#X msg 101 502 \$1;
#X symbolatom 154 534 10 0 0 0 - - -;
#X obj 101 534 print;
#X msg 100 582 symbol text;
#X symbolatom 149 648 10 0 0 0 - - -;
#X msg 100 615 symbol \$1;
#X obj 100 649 print;
#X text 99 564 comment;
#X text 245 462 This will not work. The \$1 will interpret "text" as
the selector without a message following. It therefore outputs "0".
;
#X msg 187 583 error;
#X msg 101 471 error;
#X text 253 579 Here the selector "symbol" is given and \$1 can read
out the first message "text".;
#X msg 101 691 a b;
#X msg 101 718 \$1;
#X obj 101 749 print;
#X text 255 688 Here "a" is interpreted as a selector atom \, and "b"
will be read out as the messagea atom \,;
#X text 67 125 In Pd the dollar sign $ is an empty variable that can
be filled with an atom.;
#X text 214 257 The [\$1] message can store one float message.;
#X obj 19 16 ../pd_tutorial_header;
#X connect 0 0 8 0;
#X connect 2 0 8 0;
#X connect 3 0 8 0;
#X connect 8 0 1 0;
#X connect 8 0 4 0;
#X connect 11 0 12 0;
#X connect 11 0 13 0;
#X connect 14 0 16 0;
#X connect 16 0 15 0;
#X connect 16 0 17 0;
#X connect 20 0 16 0;
#X connect 21 0 11 0;
#X connect 23 0 24 0;
#X connect 24 0 25 0;
