#N canvas 567 23 624 755 10;
#X obj 49 135 trigger;
#X text 106 135 =;
#X obj 126 135 t;
#X text 46 180 1) Trigger outputs trigger in right to left order. What
it will output can be determined by the given arguments:;
#X obj 49 248 trigger bang bang bang;
#X obj 49 227 bng 15 250 50 0 empty empty empty 17 7 0 10 -262144 -1
-1;
#X obj 49 273 bng 15 250 50 0 empty empty empty 17 7 0 10 -262144 -1
-1;
#X obj 113 273 bng 15 250 50 0 empty empty empty 17 7 0 10 -262144
-1 -1;
#X obj 178 273 bng 15 250 50 0 empty empty empty 17 7 0 10 -262144
-1 -1;
#X text 181 273 1;
#X text 116 273 2;
#X text 52 273 3;
#X msg 178 300 first;
#X msg 113 300 second;
#X msg 49 300 third;
#X obj 49 340 print bangorder;
#X obj 230 248 t b b b;
#X text 205 249 =;
#X obj 49 459 t bang float;
#X obj 49 430 bng 15 250 50 0 empty empty empty 17 7 0 10 -262144 -1
-1;
#X msg 71 429 5;
#X floatatom 118 498 5 0 0 0 - - -;
#X obj 159 497 bng 15 250 50 0 empty empty empty 17 7 0 10 -262144
-1 -1;
#X floatatom 49 498 5 0 0 0 - - -;
#X obj 90 498 bng 15 250 50 0 empty empty empty 17 7 0 10 -262144 -1
-1;
#X text 48 544 A common usecase is triggering objects after inputting
a value:;
#X floatatom 55 591 5 0 0 0 - - -;
#X floatatom 110 591 5 0 0 0 - - -;
#X obj 110 614 t b f;
#X obj 110 643 f;
#X floatatom 110 665 5 0 0 0 - - -;
#X obj 55 644 f;
#X floatatom 55 665 5 0 0 0 - - -;
#X text 161 612 First \, the float gets out the right outlet and feeds
the f object without triggering \, then bang triggers [f] to output
its value.;
#X floatatom 55 714 5 0 0 0 - - -;
#X floatatom 100 714 5 0 0 0 - - -;
#X obj 55 778 +;
#X obj 100 736 t b f;
#X floatatom 55 808 5 0 0 0 - - -;
#X text 152 713 This is a very common use case for doing math. Here
\, every inputs triggers the calculation.;
#X obj 19 16 ../pd_tutorial_header;
#X text 46 100 The trigger object [t] can be used to keep trigger actions
in Order and guarantee a sequence of events:;
#X text 46 399 2) Other arguments convert the input determine their
type:;
#X connect 4 0 6 0;
#X connect 4 1 7 0;
#X connect 4 2 8 0;
#X connect 5 0 4 0;
#X connect 6 0 14 0;
#X connect 7 0 13 0;
#X connect 8 0 12 0;
#X connect 12 0 15 0;
#X connect 13 0 15 0;
#X connect 14 0 15 0;
#X connect 18 0 23 0;
#X connect 18 0 24 0;
#X connect 18 1 21 0;
#X connect 18 1 22 0;
#X connect 19 0 18 0;
#X connect 20 0 18 0;
#X connect 26 0 31 0;
#X connect 27 0 28 0;
#X connect 28 0 29 0;
#X connect 28 1 29 1;
#X connect 29 0 30 0;
#X connect 31 0 32 0;
#X connect 34 0 36 0;
#X connect 35 0 37 0;
#X connect 36 0 38 0;
#X connect 37 0 36 0;
#X connect 37 1 36 1;
