#N canvas 526 23 567 438 10;
#X obj 45 127 unpack f f f f;
#X floatatom 45 168 5 0 0 0 - - -, f 5;
#X floatatom 84 168 5 0 0 0 - - -, f 5;
#X floatatom 124 168 5 0 0 0 - - -, f 5;
#X floatatom 163 168 5 0 0 0 - - -, f 5;
#X obj 45 75 bng 15 250 50 0 empty empty empty 17 7 0 10 -262144 -1
-1;
#X msg 45 99 1 -3 1.234 -1.234;
#X text 42 35 To split a list in its single atoms \, use the unpack
object:;
#X text 43 211 comment;
#X floatatom 45 261 5 0 0 0 - - -, f 5;
#X floatatom 87 262 5 0 0 0 - - -, f 5;
#X obj 45 340 print;
#X obj 45 287 pack f f f;
#X floatatom 129 261 5 0 0 0 - - -, f 5;
#X msg 45 314 \$2 \$1 \$3;
#X text 47 220 The $ sign can be used to change the order of a list:
;
#X connect 0 0 1 0;
#X connect 0 1 2 0;
#X connect 0 2 3 0;
#X connect 0 3 4 0;
#X connect 5 0 6 0;
#X connect 6 0 0 0;
#X connect 9 0 12 0;
#X connect 10 0 12 1;
#X connect 12 0 14 0;
#X connect 13 0 12 2;
#X connect 14 0 11 0;
