#N canvas 526 23 567 471 10;
#X obj 55 187 unpack f f f f;
#X floatatom 55 228 5 0 0 0 - - -;
#X floatatom 94 228 5 0 0 0 - - -;
#X floatatom 134 228 5 0 0 0 - - -;
#X floatatom 173 228 5 0 0 0 - - -;
#X obj 55 135 bng 15 250 50 0 empty empty empty 17 7 0 10 -262144 -1
-1;
#X msg 55 159 1 -3 1.234 -1.234;
#X text 52 95 To split a list in its single atoms \, use the unpack
object:;
#X text 53 271 comment;
#X floatatom 55 321 5 0 0 0 - - -;
#X floatatom 97 322 5 0 0 0 - - -;
#X obj 55 400 print;
#X obj 55 347 pack f f f;
#X floatatom 139 321 5 0 0 0 - - -;
#X msg 55 374 \$2 \$1 \$3;
#X text 57 280 The $ sign can be used to change the order of a list:
;
#X obj 19 16 ../pd_tutorial_header;
#X connect 0 0 1 0;
#X connect 0 1 2 0;
#X connect 0 2 3 0;
#X connect 0 3 4 0;
#X connect 5 0 6 0;
#X connect 6 0 0 0;
#X connect 9 0 12 0;
#X connect 10 0 12 1;
#X connect 12 0 14 0;
#X connect 13 0 12 2;
#X connect 14 0 11 0;
