#N canvas 140 29 619 566 10;
#X obj 63 227 vradio 15 1 0 8 empty empty empty 0 -8 0 10 -262144 -33289
-1 3;
#X text 56 115 RADIO Gui (from old radio station selector buttons)
;
#X obj 111 159 bng 15 250 50 0 empty empty empty 17 7 0 10 -262144
-1 -1;
#X obj 43 419 bng 15 250 50 0 empty empty empty 17 7 0 10 -262144 -1
-1;
#X floatatom 75 395 5 0 0 0 - - -;
#X msg 138 166 3;
#X floatatom 172 178 5 0 0 0 - - -;
#X text 253 285 Click the radio to output a correspondent number value
;
#X obj 123 287 hradio 15 1 0 8 empty empty empty 0 -8 0 10 -262144
-1 -1 3;
#X obj 107 331 bng 15 250 50 0 empty empty empty 17 7 0 10 -262144
-1 -1;
#X floatatom 137 344 5 0 0 0 - - -;
#X obj 192 315 hsl 128 15 0 7 0 0 empty empty empty -2 -8 0 10 -262144
-1 -1 5443 1;
#X obj 203 368 hradio 15 1 0 8 empty empty right_click_edit_for_COLORS_and_more
0 -8 0 10 -261682 -4034 -159808 3;
#X msg 201 245 set 5;
#X text 244 247 Again: Set + Value \, changes but does NOT trigger
;
#X obj 19 16 ../pd_tutorial_header;
#X text 234 167 Input a number value to set the correspondent radio
and output the value;
#X text 235 192 ATTENTION: IT COUNTS FROM 0 \, SO THE NUMBER 3 WILL
ACTIVATE OPTION 4!;
#X text 234 217 (thats something many objects do);
#X connect 0 0 4 0;
#X connect 0 0 3 0;
#X connect 2 0 0 0;
#X connect 2 0 8 0;
#X connect 5 0 0 0;
#X connect 5 0 8 0;
#X connect 6 0 0 0;
#X connect 6 0 8 0;
#X connect 8 0 9 0;
#X connect 8 0 10 0;
#X connect 8 0 11 0;
#X connect 8 0 12 0;
#X connect 13 0 8 0;
