#N canvas -104 39 1276 905 10;
#X obj 108 154 pack;
#X obj 108 106 f;
#X obj 129 128 t f f;
#X obj 156 155 delay;
#X floatatom 123 63 5 0 0 0 - - -, f 5;
#X floatatom 159 62 5 0 0 0 - - -, f 5;
#X obj 88 59 bng 15 250 50 0 empty empty empty 17 7 0 10 -262144 -1
-1;
#X msg 108 178 0 \, \$1 \$2;
#X text -139 284 \$1 level1;
#X text 122 41 L1;
#X text 145 39 R1;
#X text 236 38 L2;
#X text 281 37 R2;
#X text 345 37 L3;
#X text 390 36 R3;
#X text 448 37 L4;
#X text 493 36 R4;
#X text -138 303 \$2 rate1;
#X text -139 328 \$3 level2;
#X text -139 348 \$4 rate2;
#X text -138 414 \$7 rate3;
#X text -139 395 \$6 level3;
#X text -139 374 \$5=\$2 delay1;
#X text -139 439 \$8 = \$2 + \$4 (delay1+delay2);
#X obj 136 105 f;
#X text -139 459 \$9 level4;
#X text -139 485 ??????;
#X obj 223 152 pack;
#X obj 223 104 f;
#X obj 244 126 t f f;
#X obj 271 153 delay;
#X floatatom 238 61 5 0 0 0 - - -, f 5;
#X floatatom 274 60 5 0 0 0 - - -, f 5;
#X obj 259 103 f;
#X obj 223 79 t b b;
#X obj 337 150 pack;
#X obj 337 102 f;
#X obj 358 124 t f f;
#X obj 385 151 delay;
#X floatatom 352 59 5 0 0 0 - - -, f 5;
#X floatatom 388 58 5 0 0 0 - - -, f 5;
#X obj 373 101 f;
#X obj 337 77 t b b;
#X obj 448 156 pack;
#X obj 448 108 f;
#X obj 469 130 t f f;
#X obj 496 157 delay;
#X floatatom 463 65 5 0 0 0 - - -, f 5;
#X floatatom 499 64 5 0 0 0 - - -, f 5;
#X obj 484 107 f;
#X obj 448 83 t b b;
#X obj 107 320 line~;
#X obj 108 81 t b b b;
#X obj 122 14 inlet;
#X obj 163 12 inlet;
#X obj 65 15 inlet;
#X obj 232 13 inlet;
#X obj 273 11 inlet;
#X obj 348 12 inlet;
#X obj 389 10 inlet;
#X obj 455 11 inlet;
#X obj 496 9 inlet;
#X obj 107 345 outlet~;
#X obj 573 9 inlet;
#X obj 572 38 spigot;
#X connect 0 0 7 0;
#X connect 1 0 0 0;
#X connect 2 0 0 1;
#X connect 2 1 3 0;
#X connect 3 0 34 0;
#X connect 4 0 1 1;
#X connect 5 0 24 1;
#X connect 6 0 52 0;
#X connect 7 0 51 0;
#X connect 24 0 2 0;
#X connect 27 0 51 0;
#X connect 28 0 27 0;
#X connect 29 0 27 1;
#X connect 29 1 30 0;
#X connect 30 0 42 0;
#X connect 31 0 28 1;
#X connect 32 0 33 1;
#X connect 33 0 29 0;
#X connect 34 0 28 0;
#X connect 34 1 33 0;
#X connect 35 0 51 0;
#X connect 36 0 35 0;
#X connect 37 0 35 1;
#X connect 37 1 38 0;
#X connect 38 0 50 0;
#X connect 39 0 36 1;
#X connect 40 0 41 1;
#X connect 41 0 37 0;
#X connect 42 0 36 0;
#X connect 42 1 41 0;
#X connect 43 0 51 0;
#X connect 44 0 43 0;
#X connect 45 0 43 1;
#X connect 45 1 46 0;
#X connect 46 0 64 1;
#X connect 47 0 44 1;
#X connect 48 0 49 1;
#X connect 49 0 45 0;
#X connect 50 0 44 0;
#X connect 50 1 49 0;
#X connect 51 0 62 0;
#X connect 52 0 1 0;
#X connect 52 1 24 0;
#X connect 53 0 4 0;
#X connect 54 0 5 0;
#X connect 55 0 6 0;
#X connect 56 0 31 0;
#X connect 57 0 32 0;
#X connect 58 0 39 0;
#X connect 59 0 40 0;
#X connect 60 0 47 0;
#X connect 61 0 48 0;
#X connect 63 0 64 0;
#X connect 64 0 52 0;
