#N canvas 0 22 981 572 10;
#X obj 77 271 vline~;
#X floatatom 88 92 5 0 0 0 - - -, f 5;
#X floatatom 129 92 5 0 0 0 - - -, f 5;
#X floatatom 172 91 5 0 0 0 - - -, f 5;
#X floatatom 214 92 5 0 0 0 - - -, f 5;
#X obj 76 163 f;
#X obj 59 133 bng 15 250 50 0 empty empty empty 17 7 0 10 -262144 -1
-1;
#X obj 117 158 +;
#X text 62 184 \$1;
#X text 95 184 \$2;
#X text 115 184 \$1;
#X text 135 184 \$3;
#X text 161 183 \$4;
#X obj 77 201 pack f f f f f f f;
#X text 180 183 \$5;
#N canvas 317 86 421 568 3add 0;
#X obj 11 7 inlet;
#X obj 64 8 inlet;
#X obj 126 9 inlet;
#X obj 12 82 +;
#X obj 12 135 +;
#X obj 12 162 outlet;
#X obj 64 34 t b f;
#X obj 125 31 t b f;
#X connect 0 0 3 0;
#X connect 1 0 6 0;
#X connect 2 0 7 0;
#X connect 3 0 4 0;
#X connect 4 0 5 0;
#X connect 6 0 3 0;
#X connect 6 1 3 1;
#X connect 7 0 3 0;
#X connect 7 1 4 1;
#X restore 217 159 pd 3add;
#X obj 128 133 t b f;
#X msg 77 232 0 \, 1 \$1 \, 0.5 \$2 \$3 \, 0.5 \$4 \$5 \, 0 \$6 \$7
;
#X text 85 67 a;
#X text 127 67 d;
#X text 171 66 s;
#X text 214 67 r;
#X connect 1 0 5 1;
#X connect 1 0 7 0;
#X connect 1 0 13 2;
#X connect 1 0 15 0;
#X connect 2 0 13 1;
#X connect 2 0 15 1;
#X connect 2 0 16 0;
#X connect 3 0 13 3;
#X connect 3 0 15 2;
#X connect 4 0 13 5;
#X connect 5 0 13 0;
#X connect 6 0 5 0;
#X connect 7 0 13 4;
#X connect 13 0 17 0;
#X connect 15 0 13 6;
#X connect 16 0 7 0;
#X connect 16 1 7 1;
#X connect 17 0 0 0;
