#N canvas 531 143 819 571 10;
#X obj 62 402 +;
#X floatatom 62 435 5 0 0 0 - - -, f 5;
#X msg 62 364 2;
#X msg 104 364 3;
#X obj 62 316 bng 15 250 50 0 empty empty empty 17 7 0 10 -262144 -1
-1;
#X obj 188 402 +;
#X floatatom 188 435 5 0 0 0 - - -, f 5;
#X msg 188 364 2;
#X msg 230 364 3;
#X obj 188 318 bng 15 250 50 0 empty empty empty 17 7 0 10 -262144
-1 -1;
#X text 312 359 Both equations look the same \, but the behave differently.
;
#X text 311 395 The reason is \, that Pd processes bangs in the order
\, that the user has connected the patch cords: 1) first connected
to 2 atom \, then 3 atom 2) first connected to 3 atom \, then 2 atom.
;
#X text 311 473 IT IS NEARLY IMPOSSIBLE TO REMEBER EVERY PATCH ORDER
WITHIN A COMPLETE PD PATCH... SO WE NEED A SOLUTION HERE!!!;
#X msg 63 105 1;
#X msg 113 105 2;
#X msg 164 105 3;
#X obj 63 174 print;
#X obj 113 174 print;
#X obj 164 174 print;
#X obj 63 43 bng 15 250 50 0 empty empty empty 17 7 0 10 -262144 -1
-1;
#X msg 243 105 1;
#X msg 293 105 2;
#X msg 344 105 3;
#X obj 243 174 print;
#X obj 293 174 print;
#X obj 344 174 print;
#X obj 243 40 bng 15 250 50 0 empty empty empty 17 7 0 10 -262144 -1
-1;
#X text 60 217 Bang-Order remembers the order that patch cords have
been connected...;
#X text 28 12 1) Order of processing with bangs;
#X connect 0 0 1 0;
#X connect 2 0 0 0;
#X connect 3 0 0 1;
#X connect 4 0 2 0;
#X connect 4 0 3 0;
#X connect 5 0 6 0;
#X connect 7 0 5 0;
#X connect 8 0 5 1;
#X connect 9 0 8 0;
#X connect 9 0 7 0;
#X connect 13 0 16 0;
#X connect 14 0 17 0;
#X connect 15 0 18 0;
#X connect 19 0 15 0;
#X connect 19 0 14 0;
#X connect 19 0 13 0;
#X connect 20 0 23 0;
#X connect 21 0 24 0;
#X connect 22 0 25 0;
#X connect 26 0 20 0;
#X connect 26 0 21 0;
#X connect 26 0 22 0;
