#N canvas 221 239 525 410 10;
#X msg 28 149 \; pd dsp 1;
#X obj 28 125 loadbang;
#X floatatom 138 158 5 0 0 0 - - -, f 5;
#X msg 138 121 2;
#X obj 192 154 print;
#X msg 192 121 Hello world!;
#X obj 29 253 *~ 0.2;
#X obj 29 293 dac~;
#X obj 29 218 osc~ 333;
#X text 28 26 Pure Data distinguishes between two control rates for
connecting objects: control data and audio signal. Control data is
sent via thin cabels Audio signals are sent via thick cabels.;
#X connect 1 0 0 0;
#X connect 3 0 2 0;
#X connect 5 0 4 0;
#X connect 6 0 7 0;
#X connect 6 0 7 1;
#X connect 8 0 6 0;
