#N struct 1100-grob-lib-x float x float y array numbers 1100-num-x
;
#N struct 1100-num-x float x float y;
#N canvas 400 535 492 243 10;
#N canvas 621 141 450 300 ds 0;
#X text 39 20 A library of graphical objects;
#N canvas 525 556 648 345 grob-lib-x 0;
#X text 42 137 Arrays are painted using "plot" drawing instructions:
;
#X text 44 21 This declares an array named "numbers" whose elements
are described by the template "num". Note that array declarations take
three arguments: the word "array" \, the name of the array and the
name of the elements.;
#X obj 65 100 struct \$0-grob-lib-x float x float y array numbers \$0-num-x
;
#X obj 57 166 plot numbers 0 0 0 0;
#X obj 68 233 drawpolygon 0 1 -8 -8 8 -8 8 8 -8 8 -8 -8;
#X restore 86 107 pd grob-lib-x;
#X text 222 107 num-x plotted;
#X text 188 77 float with x and y fields;
#N canvas 686 559 581 359 num-x 0;
#X text 80 32 The num-x float has an and an x field.;
#X text 112 154 A red box visualizes the float values:;
#X obj 135 95 struct \$0-num-x float x float y;
#X obj 91 184 filledpolygon 900 555 1 -5 0 0 5 5 0 0 -5;
#X restore 85 77 pd num-x;
#X restore 209 186 pd ds;
#N canvas 0 22 817 468 engine 1;
#X obj 289 112 makefilename pd-%s;
#X obj 289 88 symbol \$0-p;
#X msg 243 59 bang;
#X msg 289 139 traverse \$1 \, bang;
#X obj 289 161 pointer;
#X obj 472 188 makefilename pd-%s;
#X obj 472 164 symbol \$0-p;
#X msg 472 139 bang;
#X msg 472 222 \; \$1 clear;
#X obj 182 207 append \$0-grob-lib-x x y;
#X floatatom 130 317 5 0 0 0 - - -, f 5;
#X floatatom 257 316 5 0 0 0 - - -, f 5;
#X obj 65 245 element \$0-grob-lib-x numbers;
#X msg 65 222 0;
#X obj 145 290 get \$0-num-x x y;
#X obj 195 119 t b b b b;
#X obj 176 23 inlet;
#X obj 123 48 inlet;
#X obj 160 345 outlet;
#X obj 226 349 outlet;
#X obj 18 145 metro 100;
#X msg 177 163 100;
#X msg 230 160 100;
#X obj 314 303 set \$0-num-x x y;
#X obj 371 208 inlet;
#X obj 314 243 inlet;
#X obj 314 271 f;
#X obj 366 244 f;
#X obj 370 270 t b f;
#X obj 216 325 * 1;
#X connect 0 0 3 0;
#X connect 1 0 0 0;
#X connect 2 0 15 0;
#X connect 3 0 4 0;
#X connect 4 0 9 2;
#X connect 5 0 8 0;
#X connect 6 0 5 0;
#X connect 7 0 6 0;
#X connect 9 0 12 1;
#X connect 12 0 14 0;
#X connect 12 0 23 2;
#X connect 13 0 12 0;
#X connect 14 0 10 0;
#X connect 14 0 18 0;
#X connect 14 0 26 1;
#X connect 14 1 11 0;
#X connect 14 1 27 1;
#X connect 14 1 29 0;
#X connect 15 0 21 0;
#X connect 15 1 22 0;
#X connect 15 2 1 0;
#X connect 15 3 7 0;
#X connect 16 0 2 0;
#X connect 17 0 20 0;
#X connect 20 0 13 0;
#X connect 21 0 9 0;
#X connect 22 0 9 1;
#X connect 24 0 27 0;
#X connect 25 0 26 0;
#X connect 26 0 23 0;
#X connect 27 0 28 0;
#X connect 28 0 26 0;
#X connect 28 1 23 1;
#X connect 29 0 19 0;
#X restore 219 104 pd engine;
#X obj 165 1 tgl 15 1 empty empty poll -25 10 0 8 -262144 -1 -1 1 1
;
#X obj 211 139 outlet;
#X obj 277 143 outlet;
#X msg 228 60 bang;
#X obj 228 35 loadbang;
#X obj 205 9 inlet;
#X obj 3 18 cnv 15 200 200 empty empty empty 20 12 0 14 -62784 -66577
0;
#N canvas 0 22 1242 892 \$0-p 0;
#X scalar 1100-grob-lib-x 100 100 \; -74 -77 \; \;;
#X coords 0 200 200 0 200 200 1;
#X restore 3 18 pd \$0-p;
#X obj 251 9 inlet;
#X obj 293 11 inlet;
#X connect 1 0 3 0;
#X connect 1 1 4 0;
#X connect 2 0 1 0;
#X connect 5 0 1 1;
#X connect 6 0 5 0;
#X connect 7 0 5 0;
#X connect 10 0 1 2;
#X connect 11 0 1 3;
#X coords 0 0 1 1 204 220 1;
