#N canvas 102 23 994 611 10;
#X obj 62 76 osc~;
#X floatatom 65 38 5 0 0 0 - - -, f 5;
#X obj 79 182 snapshot~;
#X obj 118 161 metro 100;
#X obj 116 143 tgl 7 0 empty empty empty 17 7 0 10 -262144 -1 -1 1
1;
#X floatatom 81 206 5 0 0 0 - - -, f 5;
#X obj 12 74 noise~;
#X obj 15 126 *~;
#X obj 62 124 *~;
#X floatatom 175 34 5 0 0 0 - - -, f 5;
#X obj 178 72 expr 1-$f1;
#X floatatom 181 99 5 0 0 0 - - -, f 5;
#X obj 290 155 +;
#X obj 290 175 mtof;
#X obj 290 197 osc~;
#X obj 287 222 soundoutput;
#X obj 291 128 * 127;
#X floatatom 320 103 5 0 0 0 - - -, f 5;
#X floatatom 342 140 5 0 0 0 - - -, f 5;
#X floatatom 175 139 5 0 0 0 - - -, f 5;
#X floatatom 350 196 5 0 0 0 - - -, f 5;
#X connect 0 0 8 0;
#X connect 1 0 0 0;
#X connect 2 0 5 0;
#X connect 3 0 2 0;
#X connect 4 0 3 0;
#X connect 5 0 16 0;
#X connect 6 0 7 0;
#X connect 7 0 2 0;
#X connect 8 0 2 0;
#X connect 9 0 8 1;
#X connect 9 0 10 0;
#X connect 10 0 7 1;
#X connect 10 0 11 0;
#X connect 12 0 13 0;
#X connect 13 0 14 0;
#X connect 13 0 20 0;
#X connect 14 0 15 0;
#X connect 14 0 15 1;
#X connect 16 0 12 0;
#X connect 17 0 16 1;
#X connect 18 0 12 1;
#X connect 19 0 3 1;
