#N canvas 29 23 1203 930 10;
#X obj 45 119 bng 15 250 50 0 empty empty empty 17 7 0 10 -262144 -1
-1;
#X obj 48 323 vsl 15 128 0 2000 0 0 empty empty empty 0 -9 0 10 -262144
-1 -1 4679 1;
#N canvas 0 22 450 300 count 0;
#X obj 48 150 f;
#X obj 77 151 + 1;
#X obj 48 67 inlet;
#X obj 114 68 inlet;
#X obj 48 193 outlet;
#X connect 0 0 1 0;
#X connect 0 0 4 0;
#X connect 1 0 0 1;
#X connect 2 0 0 0;
#X connect 3 0 0 1;
#X connect 3 0 4 0;
#X restore 48 295 pd count;
#X obj 104 323 vsl 15 128 0 2000 0 0 empty empty empty 0 -9 0 10 -262144
-1 -1 1798 1;
#N canvas 0 22 450 300 count 0;
#X obj 48 150 f;
#X obj 77 151 + 1;
#X obj 48 67 inlet;
#X obj 114 68 inlet;
#X obj 48 193 outlet;
#X connect 0 0 1 0;
#X connect 0 0 4 0;
#X connect 1 0 0 1;
#X connect 2 0 0 0;
#X connect 3 0 0 1;
#X connect 3 0 4 0;
#X restore 104 295 pd count;
#X obj 161 324 vsl 15 128 0 2000 0 0 empty empty empty 0 -9 0 10 -262144
-1 -1 1785 1;
#N canvas 0 22 450 300 count 0;
#X obj 48 150 f;
#X obj 77 151 + 1;
#X obj 48 67 inlet;
#X obj 114 68 inlet;
#X obj 48 193 outlet;
#X connect 0 0 1 0;
#X connect 0 0 4 0;
#X connect 1 0 0 1;
#X connect 2 0 0 0;
#X connect 3 0 0 1;
#X connect 3 0 4 0;
#X restore 161 296 pd count;
#X obj 217 324 vsl 15 128 0 200 0 0 empty empty empty 0 -9 0 10 -262144
-1 -1 10160 1;
#N canvas 0 22 450 300 count 0;
#X obj 48 150 f;
#X obj 77 151 + 1;
#X obj 48 67 inlet;
#X obj 114 68 inlet;
#X obj 48 193 outlet;
#X connect 0 0 1 0;
#X connect 0 0 4 0;
#X connect 1 0 0 1;
#X connect 2 0 0 0;
#X connect 3 0 0 1;
#X connect 3 0 4 0;
#X restore 217 296 pd count;
#X obj 110 122 until;
#X obj 130 85 t f b;
#X floatatom 130 61 5 0 0 0 - - -, f 5;
#X obj 274 324 vsl 15 128 0 200 0 0 empty empty empty 0 -9 0 10 -262144
-1 -1 0 1;
#N canvas 0 22 450 300 count 0;
#X obj 48 150 f;
#X obj 77 151 + 1;
#X obj 48 67 inlet;
#X obj 114 68 inlet;
#X obj 48 193 outlet;
#X connect 0 0 1 0;
#X connect 0 0 4 0;
#X connect 1 0 0 1;
#X connect 2 0 0 0;
#X connect 3 0 0 1;
#X connect 3 0 4 0;
#X restore 274 296 pd count;
#X obj 331 324 vsl 15 128 0 200 0 0 empty empty empty 0 -9 0 10 -262144
-1 -1 0 1;
#N canvas 0 22 450 300 count 0;
#X obj 48 150 f;
#X obj 77 151 + 1;
#X obj 48 67 inlet;
#X obj 114 68 inlet;
#X obj 48 193 outlet;
#X connect 0 0 1 0;
#X connect 0 0 4 0;
#X connect 1 0 0 1;
#X connect 2 0 0 0;
#X connect 3 0 0 1;
#X connect 3 0 4 0;
#X restore 331 296 pd count;
#X obj 387 325 vsl 15 128 0 2000 0 0 empty empty empty 0 -9 0 10 -262144
-1 -1 1594 1;
#N canvas 0 22 450 300 count 0;
#X obj 48 150 f;
#X obj 77 151 + 1;
#X obj 48 67 inlet;
#X obj 114 68 inlet;
#X obj 48 193 outlet;
#X connect 0 0 1 0;
#X connect 0 0 4 0;
#X connect 1 0 0 1;
#X connect 2 0 0 0;
#X connect 3 0 0 1;
#X connect 3 0 4 0;
#X restore 387 297 pd count;
#X obj 444 325 vsl 15 128 0 2000 0 0 empty empty empty 0 -9 0 10 -262144
-1 -1 1275 1;
#N canvas 0 22 450 300 count 0;
#X obj 48 150 f;
#X obj 77 151 + 1;
#X obj 48 67 inlet;
#X obj 114 68 inlet;
#X obj 48 193 outlet;
#X connect 0 0 1 0;
#X connect 0 0 4 0;
#X connect 1 0 0 1;
#X connect 2 0 0 0;
#X connect 3 0 0 1;
#X connect 3 0 4 0;
#X restore 444 297 pd count;
#X obj 45 200 sel 0 1 2 3 4 5 6 7, f 76;
#X obj 45 155 random 8;
#X floatatom 66 326 5 0 0 0 - - -, f 5;
#X floatatom 121 326 5 0 0 0 - - -, f 5;
#X floatatom 177 324 5 0 0 0 - - -, f 5;
#X floatatom 233 325 5 0 0 0 - - -, f 5;
#X floatatom 292 324 5 0 0 0 - - -, f 5;
#X floatatom 350 323 5 0 0 0 - - -, f 5;
#X floatatom 404 323 5 0 0 0 - - -, f 5;
#X floatatom 462 322 5 0 0 0 - - -, f 5;
#X obj 304 41 +;
#X obj 304 61 mtof;
#X obj 304 83 osc~;
#X obj 301 108 soundoutput;
#X floatatom 322 20 5 0 0 0 - - -, f 5;
#X obj 43 61 metro 1000;
#X obj 41 42 tgl 7 0 empty empty empty 17 7 0 10 -262144 -1 -1 1 1
;
#X floatatom 124 41 5 0 0 0 - - -, f 5;
#X msg 201 153 0;
#X floatatom 49 456 5 0 0 0 - - -, f 5;
#X msg 56 241 1;
#X msg 112 242 3;
#X msg 170 221 5;
#X msg 235 220 6;
#X msg 419 223 8;
#X msg 489 223 10;
#X obj 267 276 s oszi;
#X obj 243 23 r oszi;
#X connect 0 0 21 0;
#X connect 1 0 39 0;
#X connect 2 0 1 0;
#X connect 2 0 22 0;
#X connect 4 0 3 0;
#X connect 4 0 23 0;
#X connect 6 0 5 0;
#X connect 6 0 24 0;
#X connect 8 0 7 0;
#X connect 8 0 25 0;
#X connect 9 0 21 0;
#X connect 10 0 9 0;
#X connect 10 1 38 0;
#X connect 11 0 10 0;
#X connect 13 0 12 0;
#X connect 13 0 26 0;
#X connect 15 0 14 0;
#X connect 15 0 27 0;
#X connect 17 0 16 0;
#X connect 17 0 28 0;
#X connect 19 0 18 0;
#X connect 19 0 29 0;
#X connect 20 0 2 0;
#X connect 20 0 40 0;
#X connect 20 1 4 0;
#X connect 20 1 41 0;
#X connect 20 2 6 0;
#X connect 20 2 42 0;
#X connect 20 3 8 0;
#X connect 20 3 43 0;
#X connect 20 4 2 0;
#X connect 20 4 40 0;
#X connect 20 5 2 0;
#X connect 20 5 40 0;
#X connect 20 6 17 0;
#X connect 20 6 44 0;
#X connect 20 7 19 0;
#X connect 20 7 45 0;
#X connect 21 0 20 0;
#X connect 30 0 31 0;
#X connect 31 0 32 0;
#X connect 32 0 33 0;
#X connect 32 0 33 1;
#X connect 34 0 30 1;
#X connect 35 0 21 0;
#X connect 36 0 35 0;
#X connect 37 0 35 1;
#X connect 38 0 2 1;
#X connect 38 0 4 1;
#X connect 38 0 6 1;
#X connect 38 0 8 1;
#X connect 38 0 13 1;
#X connect 38 0 15 1;
#X connect 38 0 17 1;
#X connect 38 0 19 1;
#X connect 40 0 46 0;
#X connect 41 0 46 0;
#X connect 42 0 46 0;
#X connect 43 0 46 0;
#X connect 44 0 46 0;
#X connect 45 0 46 0;
#X connect 47 0 30 0;
