#N struct 1171-grob-lib-x float x float y array numbers 1171-num-x
;
#N struct 1171-num-x float x float y;
#N struct 1176-grob-lib-x float x float y array numbers 1176-num-x
;
#N struct 1176-num-x float x float y;
#N canvas 4 36 1276 956 10;
#X obj 79 486 dac~;
#X floatatom 82 64 5 0 0 0 - osc1 -, f 5;
#X floatatom 129 157 5 0 0 0 - mI -, f 5;
#X text 39 38 carrier frequency;
#X text 126 137 modulation index;
#X obj 418 334 tgl 15 0 empty empty empty 17 7 0 10 -262144 -1 -1 0
1;
#X msg 417 353 \; pd dsp \$1;
#X obj 453 510 spectrogram;
#X obj 751 483 tgl 15 0 empty empty empty 17 7 0 10 -262144 -1 -1 0
1;
#X floatatom 602 481 5 0 0 0 - - -, f 5;
#X obj 167 509 display;
#X obj 283 485 tgl 15 0 empty empty empty 17 7 0 10 -262144 -1 -1 0
1;
#X floatatom 370 485 5 0 0 0 - - -, f 5;
#X obj 84 236 operator;
#X obj 85 452 *~;
#X floatatom 103 430 5 0 0 0 - - -, f 5;
#X floatatom 455 70 5 0 0 0 - osc2 -, f 5;
#X floatatom 502 128 5 0 0 0 - fL -, f 5;
#X obj 457 242 operator;
#X obj 147 258 throw~ op1;
#X obj 479 147 catch~ op1;
#X obj 268 117 *;
#X obj 265 80 t b f;
#X floatatom 265 58 5 0 0 0 - - -, f 5;
#X text 261 34 ratio;
#X text 474 104 feedback_level;
#X obj 607 89 doll;
#X obj 607 324 clip -99 99;
#X floatatom 607 349 5 0 0 0 - - -, f 5;
#X obj 804 324 clip -99 99;
#X floatatom 804 349 5 0 0 0 - - -, f 5;
#X obj 607 375 m_scale -99 99 0 1;
#X obj 804 371 m_scale -99 99 0 1;
#X obj 607 405 s mI;
#X obj 804 401 s fL;
#X obj 933 323 clip -99 99;
#X floatatom 933 348 5 0 0 0 - - -, f 5;
#X obj 1130 323 clip -99 99;
#X floatatom 1130 348 5 0 0 0 - - -, f 5;
#X obj 933 438 s osc1;
#X obj 1130 435 s osc2;
#X obj 933 374 m_scale -99 99 40 88;
#X obj 1130 370 m_scale -99 99 40 88;
#X obj 933 400 mtof;
#X obj 1130 399 mtof;
#X obj 377 93 spigot;
#X obj 377 66 tgl 15 0 empty empty empty 17 7 0 10 -262144 -1 -1 0
1;
#X obj 933 65 bng 15 250 50 0 empty empty empty 17 7 0 10 -262144 -1
-1;
#X obj 606 66 bng 15 250 50 0 empty empty empty 17 7 0 10 -262144 -1
-1;
#X obj 690 326 pack;
#X obj 1045 326 pack;
#X obj 690 348 s xy1w;
#X obj 1045 348 s xy2w;
#N canvas 61 86 1233 763 preset 0;
#X obj 30 119 pack f f f f;
#X obj 30 91 f;
#X obj 15 343 text define simpleFM;
#X obj 30 145 t l b;
#X msg 57 174 1e+06;
#X obj 30 201 text set simpleFM;
#X obj 30 40 bng 15 250 50 0 empty empty empty 17 7 0 10 -262144 -1
-1;
#X obj 46 66 unpack;
#X obj 92 66 unpack;
#X msg 15 318 clear;
#X obj 159 64 text size simpleFM;
#X obj 159 41 bng 15 250 50 0 empty empty empty 17 7 0 10 -262144 -1
-1;
#X obj 159 88 - 1;
#X obj 159 113 text delete simpleFM;
#X obj 46 40 r xy1w;
#X obj 92 40 r xy2w;
#X text 25 19 write preset;
#X text 157 20 delete last preset;
#X obj 360 65 text get simpleFM;
#X obj 360 100 s 2xyr;
#X obj 30 3 inlet;
#X obj 158 3 inlet;
#X obj 360 7 inlet;
#X obj 44 242 loadbang;
#X floatatom 196 89 5 0 0 0 - - -, f 5;
#X msg 44 267 read simpleFM8.txt;
#X msg 26 292 write simpleFM8.txt;
#X connect 0 0 3 0;
#X connect 1 0 0 0;
#X connect 3 0 5 0;
#X connect 3 1 4 0;
#X connect 4 0 5 1;
#X connect 6 0 1 0;
#X connect 7 0 1 1;
#X connect 7 1 0 1;
#X connect 8 0 0 2;
#X connect 8 1 0 3;
#X connect 9 0 2 0;
#X connect 10 0 24 0;
#X connect 10 0 12 0;
#X connect 11 0 10 0;
#X connect 12 0 13 0;
#X connect 14 0 7 0;
#X connect 15 0 8 0;
#X connect 18 0 19 0;
#X connect 20 0 6 0;
#X connect 21 0 11 0;
#X connect 22 0 18 0;
#X connect 23 0 25 0;
#X connect 25 0 2 0;
#X connect 26 0 2 0;
#X restore 851 509 pd preset;
#X obj 788 -9 r 2xyr;
#X obj 788 17 unpack f f f f;
#X obj 851 485 bng 15 250 50 0 empty empty empty 17 7 0 10 -262144
-1 -1;
#X obj 876 485 bng 15 250 50 0 empty empty empty 17 7 0 10 -262144
-1 -1;
#X floatatom 902 485 5 0 0 0 - - -, f 5;
#X floatatom 849 79 5 0 0 0 - - -, f 5;
#X obj 933 88 doll;
#X text 412 44 modulator frequency;
#X obj 655 70 line;
#X obj 655 48 pack f f;
#X floatatom 952 3 5 0 0 0 - - -, f 5;
#X obj 723 48 pack f f;
#X obj 723 69 line;
#X obj 980 70 line;
#X obj 980 48 pack f f;
#X obj 1048 48 pack f f;
#X obj 1048 69 line;
#X obj 85 400 *~;
#X obj 136 338 vline~;
#X floatatom 279 185 5 0 0 0 - - -, f 5;
#X floatatom 320 185 5 0 0 0 - - -, f 5;
#X floatatom 363 184 5 0 0 0 - - -, f 5;
#X floatatom 405 185 5 0 0 0 - - -, f 5;
#X obj 267 256 f;
#X obj 250 226 bng 15 250 50 0 empty empty empty 17 7 0 10 -262144
-1 -1;
#X obj 308 251 +;
#X text 253 277 \$1;
#X text 286 277 \$2;
#X text 306 277 \$1;
#X text 326 277 \$3;
#X text 352 276 \$4;
#X obj 268 294 pack f f f f f f f;
#X text 371 276 \$5;
#N canvas 317 86 421 568 3add 0;
#X obj 11 7 inlet;
#X obj 64 8 inlet;
#X obj 126 9 inlet;
#X obj 12 82 +;
#X obj 12 135 +;
#X obj 12 162 outlet;
#X obj 64 34 t b f;
#X obj 125 31 t b f;
#X connect 0 0 3 0;
#X connect 1 0 6 0;
#X connect 2 0 7 0;
#X connect 3 0 4 0;
#X connect 4 0 5 0;
#X connect 6 0 3 0;
#X connect 6 1 3 1;
#X connect 7 0 3 0;
#X connect 7 1 4 1;
#X restore 408 252 pd 3add;
#X text 260 142 attack;
#X text 306 142 decay;
#X text 345 141 sustain;
#X text 394 141 release;
#X obj 319 226 t b f;
#X msg 135 315 0 \, 1 \$1 \, 0.5 \$2 \$3 \, 0.5 \$4 \$5 \, 0 \$6 \$7
;
#X connect 1 0 13 0;
#X connect 1 0 21 0;
#X connect 2 0 13 2;
#X connect 5 0 6 0;
#X connect 8 0 7 2;
#X connect 9 0 7 1;
#X connect 11 0 10 1;
#X connect 12 0 10 2;
#X connect 13 0 10 0;
#X connect 13 0 7 0;
#X connect 13 0 19 0;
#X connect 13 0 71 0;
#X connect 14 0 0 0;
#X connect 14 0 0 1;
#X connect 15 0 14 1;
#X connect 16 0 18 0;
#X connect 17 0 18 2;
#X connect 18 0 13 1;
#X connect 20 0 18 1;
#X connect 21 0 45 1;
#X connect 22 0 21 0;
#X connect 22 1 21 1;
#X connect 23 0 22 0;
#X connect 26 0 27 0;
#X connect 26 0 49 0;
#X connect 26 1 29 0;
#X connect 26 1 49 1;
#X connect 27 0 28 0;
#X connect 28 0 31 0;
#X connect 29 0 30 0;
#X connect 30 0 32 0;
#X connect 31 0 33 0;
#X connect 32 0 34 0;
#X connect 35 0 36 0;
#X connect 36 0 41 0;
#X connect 37 0 38 0;
#X connect 38 0 42 0;
#X connect 41 0 43 0;
#X connect 42 0 44 0;
#X connect 43 0 39 0;
#X connect 44 0 40 0;
#X connect 46 0 45 0;
#X connect 47 0 60 0;
#X connect 48 0 26 0;
#X connect 49 0 51 0;
#X connect 50 0 52 0;
#X connect 54 0 55 0;
#X connect 55 0 63 0;
#X connect 55 1 65 0;
#X connect 55 2 68 0;
#X connect 55 3 69 0;
#X connect 56 0 53 0;
#X connect 57 0 53 1;
#X connect 58 0 53 2;
#X connect 59 0 26 2;
#X connect 60 0 35 0;
#X connect 60 0 50 0;
#X connect 60 1 37 0;
#X connect 60 1 50 1;
#X connect 62 0 26 1;
#X connect 63 0 62 0;
#X connect 64 0 63 1;
#X connect 64 0 65 1;
#X connect 64 0 68 1;
#X connect 64 0 69 1;
#X connect 65 0 66 0;
#X connect 66 0 26 2;
#X connect 67 0 60 1;
#X connect 68 0 67 0;
#X connect 69 0 70 0;
#X connect 70 0 60 2;
#X connect 71 0 14 0;
#X connect 72 0 71 1;
#X connect 73 0 77 1;
#X connect 73 0 79 0;
#X connect 73 0 85 2;
#X connect 73 0 87 0;
#X connect 74 0 85 1;
#X connect 74 0 87 1;
#X connect 74 0 92 0;
#X connect 75 0 85 3;
#X connect 75 0 87 2;
#X connect 76 0 85 5;
#X connect 77 0 85 0;
#X connect 78 0 77 0;
#X connect 79 0 85 4;
#X connect 85 0 93 0;
#X connect 87 0 85 6;
#X connect 92 0 79 0;
#X connect 92 1 79 1;
#X connect 93 0 72 0;
