#N canvas 195 79 974 625 10;
#X obj 55 204 metro 500;
#X msg 55 128 1;
#X msg 65 147 0;
#X msg 99 127 bang;
#X msg 110 147 stop;
#X msg 105 386 60000;
#X obj 55 230 bng 15 250 50 0 empty empty empty 17 7 0 10 -262144 -1
-1;
#X text 37 102 1) Lets remember the metro object:;
#X obj 86 488 metro;
#X floatatom 159 374 5 0 0 0 - - -;
#X obj 86 341 t b b b;
#X obj 86 317 bng 15 250 50 0 empty empty empty 17 7 0 10 -262144 -1
-1;
#X floatatom 189 443 5 0 0 0 - - -;
#X obj 105 455 i;
#X floatatom 190 471 5 0 0 0 - - -;
#X msg 55 316 0;
#X obj 86 514 bng 15 100 50 0 empty empty empty 17 7 0 10 -262144 -1
-1;
#X msg 159 338 60;
#X obj 159 316 loadbang;
#X text 233 315 Loadbang gives an initial BPM value;
#X text 237 470 "int" or "i" rounds a float to an integer;
#X obj 159 394 t b f;
#X obj 105 427 /;
#X msg 645 387 60000 \$1;
#X floatatom 645 356 5 0 0 0 - - -;
#X floatatom 645 429 5 0 0 0 - - -;
#X obj 618 450 metro;
#X obj 618 336 tgl 15 0 empty empty empty 17 7 0 10 -262144 -1 -1 0
1;
#X obj 618 475 bng 15 250 50 0 empty empty empty 17 7 0 10 -228856
-204786 -1;
#X text 614 299 The same as a nice solution:;
#X obj 645 408 div;
#X obj 19 16 ../pd_tutorial_header;
#X text 44 283 2) Now we want to create a BPM metronome;
#X text 682 428 Millisenconds;
#X text 207 375 SET BPM HERE;
#X text 643 335 TURN ON/OFF HERE;
#X text 680 356 SET BPM HERE;
#X connect 0 0 6 0;
#X connect 1 0 0 0;
#X connect 2 0 0 0;
#X connect 3 0 0 0;
#X connect 4 0 0 0;
#X connect 5 0 22 0;
#X connect 8 0 16 0;
#X connect 9 0 21 0;
#X connect 10 0 8 0;
#X connect 10 1 5 0;
#X connect 10 2 9 0;
#X connect 11 0 10 0;
#X connect 13 0 14 0;
#X connect 13 0 8 1;
#X connect 15 0 8 0;
#X connect 17 0 9 0;
#X connect 18 0 17 0;
#X connect 21 0 22 0;
#X connect 21 1 22 1;
#X connect 22 0 12 0;
#X connect 22 0 13 0;
#X connect 23 0 30 0;
#X connect 24 0 23 0;
#X connect 25 0 26 1;
#X connect 26 0 28 0;
#X connect 27 0 26 0;
#X connect 30 0 25 0;
