#N canvas 536 82 590 899 10;
#X text 59 94 In a lot of cases it is curtial to count! Lets use the
BPM metronome as a bang source so we can count the bangs.;
#X obj 135 356 + 1;
#X floatatom 87 382 5 0 0 0 - - -;
#X msg 187 319 0;
#X text 197 384 Counting up on every beat.;
#X text 214 320 Resets the counter.;
#X obj 93 568 +;
#X floatatom 93 591 5 0 0 0 - - -;
#X msg 76 492 1;
#X msg 93 516 -1;
#X msg 124 540 0;
#X text 105 491 increment;
#X text 122 515 decrement;
#X text 154 538 reset counter;
#X obj 88 709 bng 15 250 50 0 empty empty empty 17 7 0 10 -262144 -1
-1;
#X msg 129 708 0;
#X text 57 443 Two more typical counters:;
#X floatatom 88 769 5 0 0 0 - - -;
#X obj 124 568 f;
#X obj 88 745 f;
#X obj 318 708 bng 15 250 50 0 empty empty empty 17 7 0 10 -262144
-1 -1;
#X msg 359 707 0;
#X floatatom 318 768 5 0 0 0 - - -;
#X obj 318 744 f;
#X text 388 707 instant reset;
#X text 159 708 reset on next bang;
#X obj 129 745 + 1;
#X obj 359 744 + 1;
#X msg 114 237 60000 \$1;
#X floatatom 114 206 5 0 0 0 - - -;
#X obj 114 258 div;
#X obj 87 300 metro;
#X obj 87 206 tgl 15 0 empty empty empty 17 7 0 10 -228856 -1 -1 0
1;
#X text 149 206 BPM;
#X obj 87 358 f;
#X msg 114 176 60;
#X obj 114 154 loadbang;
#X floatatom 114 279 5 0 0 0 - - -;
#X obj 51 331 bng 15 250 50 0 empty empty empty 17 7 0 10 -262144 -1
-1;
#X obj 19 16 ../pd_tutorial_header;
#X text 85 671 How to reset a counter:;
#X connect 1 0 34 1;
#X connect 3 0 34 1;
#X connect 6 0 7 0;
#X connect 6 0 18 0;
#X connect 8 0 6 0;
#X connect 9 0 6 0;
#X connect 10 0 18 0;
#X connect 14 0 19 0;
#X connect 15 0 19 1;
#X connect 18 0 6 1;
#X connect 19 0 17 0;
#X connect 19 0 26 0;
#X connect 20 0 23 0;
#X connect 21 0 23 0;
#X connect 21 0 27 0;
#X connect 23 0 22 0;
#X connect 23 0 27 0;
#X connect 26 0 19 1;
#X connect 27 0 23 1;
#X connect 28 0 30 0;
#X connect 29 0 28 0;
#X connect 30 0 37 0;
#X connect 31 0 34 0;
#X connect 31 0 38 0;
#X connect 32 0 31 0;
#X connect 34 0 1 0;
#X connect 34 0 2 0;
#X connect 35 0 29 0;
#X connect 36 0 35 0;
#X connect 37 0 31 1;
