#N canvas 608 361 679 597 10;
#X obj 144 383 + 1;
#X floatatom 113 407 5 0 0 0 - - -;
#X msg 187 346 0;
#X obj 113 460 % 8;
#X floatatom 113 488 5 0 0 0 - - -;
#X text 80 116 Lets add a nice festure to the BPM metronome: some kind
of cylcing counter. For this \, we will use the "modulus" object:;
#X text 80 156 THIS OBJECT HAS NOTHING TO DO WITH PERCENTAGE!!!;
#X msg 161 418 3;
#X obj 73 460 mod 8;
#X floatatom 73 488 5 0 0 0 - - -;
#X msg 140 276 60000 \$1;
#X floatatom 140 245 5 0 0 0 - - -;
#X obj 140 297 div;
#X floatatom 140 318 5 0 0 0 - - -;
#X obj 113 339 metro;
#X obj 113 245 tgl 15 0 empty empty empty 17 7 0 10 -262144 -1 -1 0
1;
#X text 175 245 BPM;
#X obj 113 383 f;
#X msg 140 213 120;
#X obj 140 192 loadbang;
#X obj 19 16 ../pd_tutorial_header;
#X text 200 462 In this case \, "modulo" actually will cycle for the
value given at its argument. The argument can be changed by the sending
a number to its cold inlet.;
#X connect 0 0 17 1;
#X connect 1 0 3 0;
#X connect 1 0 8 0;
#X connect 2 0 17 1;
#X connect 3 0 4 0;
#X connect 7 0 3 1;
#X connect 7 0 8 1;
#X connect 8 0 9 0;
#X connect 10 0 12 0;
#X connect 11 0 10 0;
#X connect 12 0 13 0;
#X connect 13 0 14 1;
#X connect 14 0 17 0;
#X connect 15 0 14 0;
#X connect 17 0 0 0;
#X connect 17 0 1 0;
#X connect 18 0 11 0;
#X connect 19 0 18 0;
