#N canvas 438 285 593 489 10;
#X obj 94 233 + 1;
#X floatatom 63 272 0 0 0 0 - - -;
#X obj 63 309 div 4;
#X floatatom 127 351 0 0 0 0 - - -;
#X floatatom 63 358 0 0 0 0 - - -;
#X obj 63 329 + 1;
#X floatatom 232 270 0 0 0 0 - - -;
#X msg 137 193 1;
#X text 63 381 Bar;
#X text 126 380 Beat;
#X text 94 273 Total Beats;
#X text 265 271 How many beats per bar?;
#X msg 232 248 4;
#X obj 232 225 loadbang;
#X msg 270 248 3;
#X text 168 194 Reset;
#X text 30 19 Combining metro \, counter \, mod and div \, we can create
something like a beat counter:;
#X text 34 422 By the way: the difference between "mod" and "%" is
basically \, that "mod" only handles positive numbers and "%" also
works in negative range.;
#X msg 90 127 60000 \$1;
#X floatatom 90 96 5 0 0 0 - - -, f 5;
#X obj 90 148 div;
#X floatatom 90 169 5 0 0 0 - - -, f 5;
#X obj 63 190 metro;
#X obj 63 96 tgl 15 0 empty empty empty 17 7 0 10 -262144 -1 -1 0 1
;
#X text 125 96 BPM;
#X obj 90 52 loadbang;
#X floatatom 11 358 5 0 0 0 - - -, f 5;
#X obj 11 336 / 4;
#X msg 90 73 130;
#X obj 63 233 f 1;
#X obj 127 330 + 2;
#X obj 127 309 mod 4;
#X connect 0 0 29 1;
#X connect 1 0 2 0;
#X connect 1 0 27 0;
#X connect 1 0 31 0;
#X connect 2 0 5 0;
#X connect 5 0 4 0;
#X connect 6 0 2 1;
#X connect 6 0 31 1;
#X connect 7 0 29 1;
#X connect 12 0 6 0;
#X connect 13 0 12 0;
#X connect 14 0 6 0;
#X connect 18 0 20 0;
#X connect 19 0 18 0;
#X connect 20 0 21 0;
#X connect 21 0 22 1;
#X connect 22 0 29 0;
#X connect 23 0 22 0;
#X connect 25 0 28 0;
#X connect 27 0 26 0;
#X connect 28 0 19 0;
#X connect 29 0 0 0;
#X connect 29 0 1 0;
#X connect 30 0 3 0;
#X connect 31 0 30 0;
