#N canvas 438 285 703 704 10;
#X obj 154 323 + 1;
#X floatatom 113 362 0 0 0 0 - - -;
#X obj 113 409 div 4;
#X floatatom 177 462 0 0 0 0 - - -;
#X floatatom 113 468 0 0 0 0 - - -;
#X obj 113 439 + 1;
#X floatatom 282 360 0 0 0 0 - - -;
#X msg 197 280 1;
#X text 113 491 Bar;
#X text 176 491 Beat;
#X text 144 363 Total Beats;
#X msg 282 338 4;
#X obj 282 315 loadbang;
#X msg 320 338 3;
#X text 228 281 Reset;
#X text 80 109 Combining metro \, counter \, mod and div \, we can
create something like a beat counter:;
#X msg 140 217 60000 \$1;
#X floatatom 140 186 5 0 0 0 - - -;
#X obj 140 238 div;
#X floatatom 140 259 5 0 0 0 - - -;
#X obj 113 280 metro;
#X obj 113 186 tgl 15 0 empty empty empty 17 7 0 10 -228856 -1 -1 0
1;
#X text 175 186 BPM;
#X obj 140 142 loadbang;
#X floatatom 61 458 5 0 0 0 - - -;
#X obj 61 436 / 4;
#X msg 140 163 130;
#X obj 113 323 f 1;
#X obj 177 409 mod 4;
#X obj 177 440 + 1;
#X text 317 463 (Tip: [change] object avoids multiple outputs!);
#X text 114 572 By the way: the difference between [mod] and [%] is
basically \, that [mod] only handles positive numbers and [%] also
works in negative range.;
#X obj 19 16 ../pd_tutorial_header;
#X text 352 337 How many beats per bar?;
#X connect 0 0 27 1;
#X connect 1 0 2 0;
#X connect 1 0 25 0;
#X connect 1 0 28 0;
#X connect 2 0 5 0;
#X connect 5 0 4 0;
#X connect 6 0 2 1;
#X connect 6 0 28 1;
#X connect 7 0 27 1;
#X connect 11 0 6 0;
#X connect 12 0 11 0;
#X connect 13 0 6 0;
#X connect 16 0 18 0;
#X connect 17 0 16 0;
#X connect 18 0 19 0;
#X connect 19 0 20 1;
#X connect 20 0 27 0;
#X connect 21 0 20 0;
#X connect 23 0 26 0;
#X connect 25 0 24 0;
#X connect 26 0 17 0;
#X connect 27 0 0 0;
#X connect 27 0 1 0;
#X connect 28 0 29 0;
#X connect 29 0 3 0;
