#N canvas 263 43 667 584 10;
#X floatatom 65 137 5 0 0 0 - - -, f 5;
#X floatatom 102 137 5 0 0 0 - - -, f 5;
#X obj 30 243 >;
#X floatatom 30 280 5 0 0 0 - - -, f 5;
#X msg 30 137 bang;
#X text 28 44 Pd provides several relational operators \, that all
behave the same: They output "1" if the condition is true and they
output "0" if the cindition is false. This also means \, that they
output a bang everytime!;
#X text 192 134 Input can be number messages.;
#X text 282 158 A list of two floats \, sent to the left input will
be distributed to the two inlets of the operator.;
#X obj 69 262 >=;
#X floatatom 69 300 5 0 0 0 - - -, f 5;
#X floatatom 109 320 5 0 0 0 - - -, f 5;
#X obj 109 282 ==;
#X floatatom 149 340 5 0 0 0 - - -, f 5;
#X obj 149 302 !=;
#X floatatom 189 360 5 0 0 0 - - -, f 5;
#X floatatom 229 380 5 0 0 0 - - -, f 5;
#X obj 189 322 <=;
#X obj 229 342 <;
#X text 211 240 greater then;
#X text 231 260 greater equal then;
#X text 251 280 equal;
#X text 271 300 non equal;
#X text 291 320 less equal then;
#X text 311 340 less then;
#X obj 48 472 &&;
#X obj 105 498 ||;
#X floatatom 48 497 5 0 0 0 - - -, f 5;
#X floatatom 105 524 5 0 0 0 - - -, f 5;
#X floatatom 48 395 5 0 0 0 - - -, f 5;
#X floatatom 105 395 5 0 0 0 - - -, f 5;
#X text 143 463 Logic "and": 1 if both are none 0;
#X text 177 492 Logic "or": 1 if both are 0;
#X msg 193 157 1 2;
#X msg 246 160 5 3;
#X obj 105 416 t b f;
#X obj 388 448 pack;
#X floatatom 388 401 5 0 0 0 - - -, f 5;
#X floatatom 424 402 5 0 0 0 - - -, f 5;
#X obj 424 422 t b f;
#X obj 388 496 &&;
#X floatatom 388 517 5 0 0 0 - - -, f 5;
#X obj 442 496 ||;
#X floatatom 442 517 5 0 0 0 - - -, f 5;
#X text 468 450 The same \, by sending a list;
#X connect 0 0 2 0;
#X connect 0 0 8 0;
#X connect 0 0 11 0;
#X connect 0 0 13 0;
#X connect 0 0 16 0;
#X connect 0 0 17 0;
#X connect 1 0 2 1;
#X connect 1 0 8 1;
#X connect 1 0 11 1;
#X connect 1 0 13 1;
#X connect 1 0 16 1;
#X connect 1 0 17 1;
#X connect 2 0 3 0;
#X connect 4 0 2 0;
#X connect 4 0 8 0;
#X connect 4 0 11 0;
#X connect 4 0 13 0;
#X connect 4 0 16 0;
#X connect 4 0 17 0;
#X connect 8 0 9 0;
#X connect 11 0 10 0;
#X connect 13 0 12 0;
#X connect 16 0 14 0;
#X connect 17 0 15 0;
#X connect 24 0 26 0;
#X connect 25 0 27 0;
#X connect 28 0 24 0;
#X connect 28 0 25 0;
#X connect 29 0 34 0;
#X connect 32 0 2 0;
#X connect 32 0 8 0;
#X connect 32 0 11 0;
#X connect 32 0 13 0;
#X connect 32 0 16 0;
#X connect 32 0 17 0;
#X connect 33 0 2 0;
#X connect 33 0 8 0;
#X connect 33 0 11 0;
#X connect 33 0 13 0;
#X connect 33 0 16 0;
#X connect 33 0 17 0;
#X connect 34 0 25 0;
#X connect 34 0 24 0;
#X connect 34 1 25 1;
#X connect 34 1 24 1;
#X connect 35 0 39 0;
#X connect 35 0 41 0;
#X connect 36 0 35 0;
#X connect 37 0 38 0;
#X connect 38 0 35 0;
#X connect 38 1 35 1;
#X connect 39 0 40 0;
#X connect 41 0 42 0;
