#N canvas 510 329 488 268 10;
#X obj 32 88 swap;
#X obj 32 116 -;
#X floatatom 32 138 5 0 0 0 - - -, f 5;
#X floatatom 32 66 3 0 0 0 - - -, f 3;
#X text 27 26 Use this [swap] connection to change operands:;
#X connect 0 0 1 0;
#X connect 0 1 1 1;
#X connect 1 0 2 0;
#X connect 3 0 0 0;
