#N canvas 4 23 435 672 10;
#X obj 68 133 min;
#X floatatom 68 155 5 0 0 0 - - -, f 5;
#X floatatom 24 87 5 0 0 0 - - -, f 5;
#X floatatom 68 87 5 0 0 0 - - -, f 5;
#X obj 68 108 t b f;
#X obj 158 133 min;
#X floatatom 158 155 5 0 0 0 - - -, f 5;
#X floatatom 114 87 5 0 0 0 - - -, f 5;
#X floatatom 158 87 5 0 0 0 - - -, f 5;
#X obj 158 108 t b f;
#X obj 248 133 min;
#X floatatom 248 155 5 0 0 0 - - -, f 5;
#X floatatom 204 87 5 0 0 0 - - -, f 5;
#X floatatom 248 87 5 0 0 0 - - -, f 5;
#X obj 248 108 t b f;
#X obj 338 133 min;
#X floatatom 338 155 5 0 0 0 - - -, f 5;
#X floatatom 294 87 5 0 0 0 - - -, f 5;
#X floatatom 338 87 5 0 0 0 - - -, f 5;
#X obj 338 108 t b f;
#X obj 128 233 min;
#X floatatom 128 255 5 0 0 0 - - -, f 5;
#X obj 128 208 t b f;
#X obj 218 233 min;
#X floatatom 218 255 5 0 0 0 - - -, f 5;
#X obj 218 208 t b f;
#X obj 168 313 min;
#X floatatom 168 335 5 0 0 0 - - -, f 5;
#X obj 168 288 t b f;
#X floatatom 78 485 5 0 0 0 - - -, f 5;
#X obj 78 438 t b f;
#X floatatom 168 485 5 0 0 0 - - -, f 5;
#X obj 168 438 t b f;
#X floatatom 118 565 5 0 0 0 - - -, f 5;
#X obj 118 518 t b f;
#X floatatom 44 407 5 0 0 0 - - -, f 5;
#X floatatom 88 407 5 0 0 0 - - -, f 5;
#X floatatom 134 407 5 0 0 0 - - -, f 5;
#X floatatom 178 407 5 0 0 0 - - -, f 5;
#X obj 78 463 max;
#X obj 168 463 max;
#X obj 118 543 max;
#X text 22 48 Smallest of all numbers;
#X text 41 378 Largest of all numbers;
#X connect 0 0 1 0;
#X connect 1 0 20 0;
#X connect 2 0 0 0;
#X connect 3 0 4 0;
#X connect 4 0 0 0;
#X connect 4 1 0 1;
#X connect 5 0 6 0;
#X connect 6 0 22 0;
#X connect 7 0 5 0;
#X connect 8 0 9 0;
#X connect 9 0 5 0;
#X connect 9 1 5 1;
#X connect 10 0 11 0;
#X connect 11 0 23 0;
#X connect 12 0 10 0;
#X connect 13 0 14 0;
#X connect 14 0 10 0;
#X connect 14 1 10 1;
#X connect 15 0 16 0;
#X connect 16 0 25 0;
#X connect 17 0 15 0;
#X connect 18 0 19 0;
#X connect 19 0 15 0;
#X connect 19 1 15 1;
#X connect 20 0 21 0;
#X connect 21 0 26 0;
#X connect 22 0 20 0;
#X connect 22 1 20 1;
#X connect 23 0 24 0;
#X connect 24 0 28 0;
#X connect 25 0 23 0;
#X connect 25 1 23 1;
#X connect 26 0 27 0;
#X connect 28 0 26 0;
#X connect 28 1 26 1;
#X connect 29 0 41 0;
#X connect 30 0 39 0;
#X connect 30 1 39 1;
#X connect 31 0 34 0;
#X connect 32 0 40 0;
#X connect 32 1 40 1;
#X connect 34 0 41 0;
#X connect 34 1 41 1;
#X connect 35 0 39 0;
#X connect 36 0 30 0;
#X connect 37 0 40 0;
#X connect 38 0 32 0;
#X connect 39 0 29 0;
#X connect 40 0 31 0;
#X connect 41 0 33 0;
