#N canvas 254 334 1067 573 12;
#X obj 34 157 until;
#X obj 34 211 f;
#X obj 66 211 + 1;
#X obj 149 161 sel 0;
#X msg 52 184 0;
#X obj 34 401 f;
#X msg 115 290 1;
#X msg 415 88 const;
#X obj 34 263 t b f f b;
#X floatatom 321 61 5 0 0 0 - - -;
#X msg 321 87 resize \$1;
#X obj 54 315 array get \$0-array;
#X obj 34 426 array set \$0-array;
#X obj 66 236 mod 128;
#X obj 67 115 array size \$0-array;
#X obj 35 87 t b b;
#X obj 321 120 array define \$0-array 128;
#X text 457 87 clear array to 0;
#X obj 54 342 s to-\$0-array-math;
#X obj 318 360 r to-\$0-array-math;
#X obj 318 471 s from-\$0-array-math;
#X obj 52 374 r from-\$0-array-math;
#X obj 35 61 r doit-\$0-array-math;
#X obj 703 443 spigot 0;
#X obj 756 320 tgl 15 0 empty empty empty 17 7 0 10 -262144 -1 -1 0
1;
#X obj 633 490 s doit-\$0-array-math;
#X obj 703 466 bang;
#X text 777 317 Toggle on/off instant calculation;
#X text 368 60 Resize Array;
#X text 33 30 array calculation procedure;
#X obj 461 310 cnv 15 260 40 empty empty empty 20 12 0 14 -228856 -66577
0;
#X obj 633 321 bng 15 250 50 0 empty empty empty 17 7 0 10 -262144
-1 -1;
#X floatatom 543 320 5 0 0 0 - - -;
#X text 658 320 Do it!;
#X text 473 321 Array +;
#X text 597 319 =;
#X text 318 25 Define and Resize Array here.;
#X obj 300 406 cnv 15 320 40 empty empty empty 20 12 0 14 -228856 -66577
0;
#X obj 318 417 expr $f1 + $f2;
#X text 436 424 $f1 must be array values!;
#X text 436 408 Do this calculation.;
#X connect 0 0 1 0;
#X connect 1 0 2 0;
#X connect 1 0 8 0;
#X connect 2 0 1 1;
#X connect 2 0 13 0;
#X connect 3 0 0 1;
#X connect 3 0 4 0;
#X connect 4 0 1 1;
#X connect 5 0 12 0;
#X connect 6 0 11 1;
#X connect 7 0 16 0;
#X connect 8 0 5 0;
#X connect 8 1 11 0;
#X connect 8 2 12 1;
#X connect 8 3 6 0;
#X connect 9 0 10 0;
#X connect 10 0 16 0;
#X connect 11 0 18 0;
#X connect 13 0 3 0;
#X connect 14 0 13 1;
#X connect 14 0 0 0;
#X connect 15 0 0 0;
#X connect 15 1 14 0;
#X connect 19 0 38 0;
#X connect 21 0 5 1;
#X connect 22 0 15 0;
#X connect 23 0 26 0;
#X connect 24 0 23 1;
#X connect 26 0 25 0;
#X connect 31 0 25 0;
#X connect 32 0 23 0;
#X connect 32 0 38 1;
#X connect 38 0 20 0;
