#N canvas 372 63 613 638 10;
#X text 51 20 In Pd \, there are several math objects to choose from.
Here we will focus on how they work and in which order Pd calculates
a patch!;
#X obj 76 104 +;
#X obj 105 104 -;
#X obj 134 104 *;
#X obj 165 104 /;
#X text 54 80 1) Basic Math Objects;
#X text 75 150 The RIGHT inlet stores one float for the math operation!
;
#X text 76 168 The left inlet fires the equation when recieving a float
or a bang.;
#X obj 79 281 + 3;
#X obj 117 280 - 2;
#X obj 156 280 * 5.34;
#X obj 208 280 / 4;
#X msg 78 224 3;
#X floatatom 79 311 5 0 0 0 - - -, f 5;
#X floatatom 117 311 5 0 0 0 - - -, f 5;
#X floatatom 156 311 5 0 0 0 - - -, f 5;
#X floatatom 208 311 5 0 0 0 - - -, f 5;
#X floatatom 195 224 5 0 0 0 - - -, f 5;
#X text 260 253 You can set a fixed initial value for every equation.
Sending a number to the left inlet fires the equation.;
#X text 62 368 2) Some more basic math objects;
#X obj 80 435 sqrt;
#X msg 80 404 4;
#X floatatom 80 463 5 0 0 0 - - -, f 5;
#X floatatom 122 404 5 0 0 0 - - -, f 5;
#X msg 80 496 4;
#X floatatom 157 496 5 0 0 0 - - -, f 5;
#X obj 80 543 pow 2;
#X obj 130 543 pow 4;
#X floatatom 80 579 5 0 0 0 - - -, f 5;
#X floatatom 130 578 5 0 0 0 - - -, f 5;
#X floatatom 179 577 8 0 0 0 - - -, f 8;
#X obj 179 543 pow 8;
#X text 219 439 Square root;
#X text 238 542 Exponentiate a number;
#X connect 8 0 13 0;
#X connect 9 0 14 0;
#X connect 10 0 15 0;
#X connect 11 0 16 0;
#X connect 12 0 8 0;
#X connect 12 0 9 0;
#X connect 12 0 10 0;
#X connect 12 0 11 0;
#X connect 17 0 8 0;
#X connect 17 0 9 0;
#X connect 17 0 10 0;
#X connect 17 0 11 0;
#X connect 20 0 22 0;
#X connect 21 0 20 0;
#X connect 23 0 20 0;
#X connect 24 0 26 0;
#X connect 24 0 27 0;
#X connect 24 0 31 0;
#X connect 25 0 26 0;
#X connect 25 0 27 0;
#X connect 25 0 31 0;
#X connect 26 0 28 0;
#X connect 27 0 29 0;
#X connect 31 0 30 0;
