#N canvas 462 28 825 644 10;
#X obj 18 24 expr;
#X text 52 24 can perform multiple equations within one singel object
;
#X obj 59 101 bng 15 250 50 0 empty empty empty 17 7 0 10 -262144 -1
-1;
#X obj 59 124 t b b;
#X msg 59 159 2;
#X msg 98 159 5;
#X obj 59 193 expr $f1 + $f2 \; $f1 - $f2 \; $f1 * $f2 \; $f1 / $f2
\;;
#X floatatom 59 281 5 0 0 0 - - -, f 5;
#X floatatom 98 281 5 0 0 0 - - -, f 5;
#X floatatom 137 281 5 0 0 0 - - -, f 5;
#X floatatom 176 281 5 0 0 0 - - -, f 5;
#X text 181 193 Devide every singel equation with \; hit return and
write the following equation into the next line. Every equation will
generate its own output from LEFT to RIGHT.;
#X text 21 67 1) Different equations in one expr object;
#X text 32 337 2) List as input for the expression object;
#X floatatom 59 475 5 0 0 0 - - -, f 5;
#X floatatom 100 475 5 0 0 0 - - -, f 5;
#X floatatom 141 475 5 0 0 0 - - -, f 5;
#X floatatom 182 475 5 0 0 0 - - -, f 5;
#X text 229 373 The leftmost inlet can handle lists of float atoms.
;
#X msg 59 374 2 5 3;
#X obj 59 403 expr $f1 + $f2 + $f3 \; $f1 - $f2 - $f3 \; $f1 + $f2
* $f3 \; $f1 / $f2 - $f3 \;;
#X connect 2 0 3 0;
#X connect 3 0 4 0;
#X connect 3 1 5 0;
#X connect 4 0 6 0;
#X connect 5 0 6 1;
#X connect 6 0 7 0;
#X connect 6 1 8 0;
#X connect 6 2 9 0;
#X connect 6 3 10 0;
#X connect 19 0 20 0;
#X connect 20 0 14 0;
#X connect 20 1 15 0;
#X connect 20 2 16 0;
#X connect 20 3 17 0;
