#N canvas 663 173 317 283 10;
#N canvas 607 164 816 770 doodle_synth 0;
#X text 24 26 Key Triggered Mono Synth;
#X obj 438 44 tgl 15 0 empty empty empty 17 7 0 10 -262144 -1 -1 1
1;
#X msg 438 63 \; pd dsp \$1;
#X obj 438 23 loadbang;
#X obj 129 529 *~ 0.1;
#X obj 30 665 dac~;
#X obj 129 459 *~;
#X obj 129 419 osc~ 440;
#X obj 335 345 delay 200;
#X obj 30 419 phasor~ 440;
#X obj 30 459 *~;
#X obj 30 529 *~ 0.1;
#X obj 30 358 r freq;
#X obj 218 321 r attack;
#X obj 335 321 r decay;
#N canvas 4 23 252 283 key_to_freq 0;
#X obj 25 18 key;
#X floatatom 44 150 5 0 0 0 - - -, f 5;
#X obj 25 84 t b f b;
#N canvas 662 393 533 309 qwertzui_to_Cmaj 0;
#X obj 18 30 inlet;
#X msg 18 91 69;
#X msg 45 91 71;
#X msg 73 91 73;
#X msg 99 91 74;
#X msg 125 91 76;
#X msg 152 91 78;
#X msg 179 91 80;
#X msg 206 91 81;
#X obj 17 222 outlet;
#X obj 17 199 mtof;
#X text 254 53 Select Keys:qwertzui;
#X text 257 136 Convert MIDI Note Nr to frequency;
#X obj 18 57 sel 113 119 101 114 116 122 117 105;
#X text 272 90 Trigger MIDI Note Nr;
#X connect 0 0 13 0;
#X connect 1 0 10 0;
#X connect 2 0 10 0;
#X connect 3 0 10 0;
#X connect 4 0 10 0;
#X connect 5 0 10 0;
#X connect 6 0 10 0;
#X connect 7 0 10 0;
#X connect 8 0 10 0;
#X connect 10 0 9 0;
#X connect 13 0 1 0;
#X connect 13 1 2 0;
#X connect 13 2 3 0;
#X connect 13 3 4 0;
#X connect 13 4 5 0;
#X connect 13 5 6 0;
#X connect 13 6 7 0;
#X connect 13 7 8 0;
#X restore 44 172 pd qwertzui_to_Cmaj;
#X floatatom 44 193 5 0 0 0 - - -, f 5;
#X obj 44 213 s freq;
#X obj 64 106 s attack;
#X obj 25 125 s decay;
#X obj 25 60 spigot;
#X obj 58 37 r key_on_off;
#X connect 0 0 8 0;
#X connect 1 0 3 0;
#X connect 2 0 7 0;
#X connect 2 1 1 0;
#X connect 2 2 6 0;
#X connect 3 0 4 0;
#X connect 4 0 5 0;
#X connect 8 0 2 0;
#X connect 9 0 8 1;
#X restore 437 99 pd key_to_freq;
#X obj 218 370 f;
#X msg 218 390 1 \$1;
#X obj 335 369 f;
#X msg 335 390 0 \$1;
#X obj 233 343 r attack_time;
#X obj 386 319 r decay_time;
#X obj 30 399 / 2;
#X text 270 667 Why \, is there a trigger bug at certain keyboard keys?
(layout german langauge \, mac keyboard);
#X obj 30 627 lop~ 5000;
#X obj 218 419 line~ 200 2;
#N canvas 927 575 450 405 doodle 0;
#X obj 17 15 r doodle_start_stop;
#X obj 17 94 metro 555;
#X obj 68 40 r doodle_tempo;
#X obj 122 110 s doodle_b;
#X obj 17 282 mtof;
#X obj 17 123 random 100;
#X floatatom 17 260 5 0 0 0 - - -, f 5;
#X obj 17 237 i;
#X obj 36 353 s freq;
#X obj 17 303 t b f b;
#X obj 56 329 s attack;
#X obj 16 379 s decay;
#X obj 17 216 + 30;
#X obj 17 168 * 0.1;
#X obj 44 145 r doodle_span;
#X obj 38 195 r doodle_offset;
#X obj 287 108 metro 1110;
#X msg 287 150 \$1 200;
#X obj 287 129 random 5000;
#X obj 287 171 line 5000 2;
#X obj 287 232 s lop_freq;
#X obj 344 87 * 0.3;
#X obj 287 212 spigot;
#X obj 320 191 r filter_doodle;
#X connect 0 0 1 0;
#X connect 0 0 16 0;
#X connect 1 0 3 0;
#X connect 1 0 5 0;
#X connect 2 0 1 1;
#X connect 2 0 21 0;
#X connect 4 0 9 0;
#X connect 5 0 13 0;
#X connect 6 0 4 0;
#X connect 7 0 6 0;
#X connect 9 0 11 0;
#X connect 9 1 8 0;
#X connect 9 2 10 0;
#X connect 12 0 7 0;
#X connect 13 0 12 0;
#X connect 14 0 13 1;
#X connect 15 0 12 1;
#X connect 16 0 18 0;
#X connect 17 0 19 0;
#X connect 18 0 17 0;
#X connect 19 0 22 0;
#X connect 21 0 16 1;
#X connect 22 0 20 0;
#X connect 23 0 22 1;
#X restore 437 118 pd doodle;
#X obj 24 129 cnv 15 140 145 empty empty D___dle 20 12 0 25 -204786
-66577 0;
#X obj 49 200 tgl 15 0 doodle_start_stop r_doodle_start_stop Doodle_Now
17 7 0 10 -232576 -1 -1 0 1;
#X floatatom 32 183 5 0 0 1 Doodle_Tempo r_doodle_tempo doodle_tempo
, f 5;
#X obj 63 134 bng 15 100 50 0 empty doodle_b empty 17 7 0 10 -232576
-159808 -1;
#X obj 35 234 hsl 27 15 10 60 0 0 doodle_offset empty Doodle_Offset
31 8 0 10 -232576 -1 -1 0 1;
#X obj 35 217 hsl 27 15 0 1 0 0 doodle_span empty Doodle_Ambitus 31
8 0 10 -232576 -1 -1 0 1;
#X obj 49 251 tgl 15 0 filter_doodle r_filter_doodle Filter_Doodle
17 7 0 10 -232576 -1 -1 0 1;
#X obj 84 134 bng 15 100 50 0 empty doodle_b empty 17 7 0 10 -232576
-159808 -1;
#X text 24 40 Play Cmaj on qwertzui;
#X obj 24 65 cnv 15 140 60 empty empty empty 20 12 0 14 -261682 -66577
0;
#X floatatom 32 88 5 0 2000 1 Attack_time r_attack_time attack_time
, f 5;
#X floatatom 32 106 5 0 2000 1 Decay_time r_decay_time decay_time,
f 5;
#X obj 32 70 tgl 15 0 key_on_off r_key_on_off KeyTrig_On/Off 19 7 0
10 -204786 -1 -1 0 1;
#X obj 167 65 cnv 15 140 209 empty empty empty 20 12 0 14 -233017 -66577
0;
#X obj 199 121 vsl 20 60 0 0.5 0 1 empty empty Sine_Volume 0 70 0 10
-261234 -1 -1 2100 1;
#X obj 174 111 vsl 20 60 0 0.5 0 1 empty empty Saw_Volume 0 -9 0 10
-261234 -1 -1 400 1;
#X obj 177 214 hsl 120 15 50 5000 1 1 empty lop_freq LoPass_Filter
-2 -8 0 10 -262130 -1 -1 8968 1;
#X connect 1 0 2 0;
#X connect 3 0 1 0;
#X connect 4 0 24 0;
#X connect 6 0 4 0;
#X connect 7 0 6 0;
#X connect 8 0 18 0;
#X connect 9 0 10 0;
#X connect 10 0 11 0;
#X connect 11 0 24 0;
#X connect 12 0 22 0;
#X connect 12 0 7 0;
#X connect 13 0 16 0;
#X connect 14 0 8 0;
#X connect 16 0 17 0;
#X connect 17 0 25 0;
#X connect 18 0 19 0;
#X connect 19 0 25 0;
#X connect 20 0 16 1;
#X connect 21 0 8 1;
#X connect 21 0 18 1;
#X connect 22 0 9 0;
#X connect 24 0 5 0;
#X connect 24 0 5 1;
#X connect 25 0 6 1;
#X connect 25 0 10 1;
#X connect 41 0 4 1;
#X connect 42 0 11 1;
#X connect 43 0 24 1;
#X coords 0 -1 1 1 291 260 2 20 20;
#X restore 14 9 pd doodle_synth;
